%TF.GenerationSoftware,KiCad,Pcbnew,7.0.8*%
%TF.CreationDate,2023-11-03T11:40:41-07:00*%
%TF.ProjectId,bus_driver,6275735f-6472-4697-9665-722e6b696361,rev?*%
%TF.SameCoordinates,Original*%
%TF.FileFunction,Soldermask,Top*%
%TF.FilePolarity,Negative*%
%FSLAX46Y46*%
G04 Gerber Fmt 4.6, Leading zero omitted, Abs format (unit mm)*
G04 Created by KiCad (PCBNEW 7.0.8) date 2023-11-03 11:40:41*
%MOMM*%
%LPD*%
G01*
G04 APERTURE LIST*
%ADD10R,1.700000X1.700000*%
%ADD11C,1.400000*%
%ADD12O,1.400000X1.400000*%
%ADD13R,1.500000X1.500000*%
%ADD14C,1.500000*%
%ADD15R,1.800000X1.800000*%
%ADD16C,1.800000*%
%ADD17C,2.100000*%
G04 APERTURE END LIST*
D10*
%TO.C,J2*%
X162560000Y-110490000D03*
%TD*%
%TO.C,J7*%
X162560000Y-124460000D03*
%TD*%
D11*
%TO.C,R4*%
X158750000Y-95250000D03*
D12*
X158750000Y-102870000D03*
%TD*%
D11*
%TO.C,R2*%
X151130000Y-107950000D03*
D12*
X151130000Y-115570000D03*
%TD*%
D10*
%TO.C,J1*%
X138430000Y-125730000D03*
%TD*%
D13*
%TO.C,Q5*%
X143510000Y-105410000D03*
D14*
X143510000Y-102870000D03*
X143510000Y-100330000D03*
%TD*%
D15*
%TO.C,D1*%
X144780000Y-125730000D03*
D16*
X142240000Y-125730000D03*
%TD*%
D10*
%TO.C,J4*%
X143510000Y-95250000D03*
%TD*%
D13*
%TO.C,Q1*%
X143510000Y-120650000D03*
D14*
X143510000Y-118110000D03*
X143510000Y-115570000D03*
%TD*%
D17*
%TO.C,REF\u002A\u002A*%
X135890000Y-92710000D03*
%TD*%
D11*
%TO.C,R3*%
X147320000Y-107950000D03*
D12*
X147320000Y-115570000D03*
%TD*%
D11*
%TO.C,R6*%
X139700000Y-95250000D03*
D12*
X139700000Y-102870000D03*
%TD*%
D17*
%TO.C,REF\u002A\u002A*%
X135890000Y-129540000D03*
%TD*%
D11*
%TO.C,R7*%
X139700000Y-118110000D03*
D12*
X139700000Y-110490000D03*
%TD*%
D10*
%TO.C,J3*%
X154940000Y-95250000D03*
%TD*%
D11*
%TO.C,R5*%
X158750000Y-118110000D03*
D12*
X158750000Y-110490000D03*
%TD*%
D13*
%TO.C,Q4*%
X154940000Y-105410000D03*
D14*
X154940000Y-102870000D03*
X154940000Y-100330000D03*
%TD*%
D11*
%TO.C,R1*%
X147320000Y-125730000D03*
D12*
X154940000Y-125730000D03*
%TD*%
D10*
%TO.C,J5*%
X162560000Y-105410000D03*
%TD*%
D13*
%TO.C,Q6*%
X143510000Y-113030000D03*
D14*
X143510000Y-110490000D03*
X143510000Y-107950000D03*
%TD*%
D13*
%TO.C,Q3*%
X154940000Y-113030000D03*
D14*
X154940000Y-110490000D03*
X154940000Y-107950000D03*
%TD*%
D17*
%TO.C,REF\u002A\u002A*%
X162560000Y-129540000D03*
%TD*%
D10*
%TO.C,J6*%
X151130000Y-95250000D03*
%TD*%
D17*
%TO.C,REF\u002A\u002A*%
X162560000Y-92710000D03*
%TD*%
D13*
%TO.C,Q2*%
X154940000Y-120650000D03*
D14*
X154940000Y-118110000D03*
X154940000Y-115570000D03*
%TD*%
M02*
