%TF.GenerationSoftware,KiCad,Pcbnew,7.0.8*%
%TF.CreationDate,2023-11-03T11:40:39-07:00*%
%TF.ProjectId,bus_driver,6275735f-6472-4697-9665-722e6b696361,rev?*%
%TF.SameCoordinates,Original*%
%TF.FileFunction,Copper,L2,Bot*%
%TF.FilePolarity,Positive*%
%FSLAX46Y46*%
G04 Gerber Fmt 4.6, Leading zero omitted, Abs format (unit mm)*
G04 Created by KiCad (PCBNEW 7.0.8) date 2023-11-03 11:40:39*
%MOMM*%
%LPD*%
G01*
G04 APERTURE LIST*
%TA.AperFunction,ComponentPad*%
%ADD10R,1.700000X1.700000*%
%TD*%
%TA.AperFunction,ComponentPad*%
%ADD11C,1.400000*%
%TD*%
%TA.AperFunction,ComponentPad*%
%ADD12O,1.400000X1.400000*%
%TD*%
%TA.AperFunction,ComponentPad*%
%ADD13R,1.500000X1.500000*%
%TD*%
%TA.AperFunction,ComponentPad*%
%ADD14C,1.500000*%
%TD*%
%TA.AperFunction,ComponentPad*%
%ADD15R,1.800000X1.800000*%
%TD*%
%TA.AperFunction,ComponentPad*%
%ADD16C,1.800000*%
%TD*%
%TA.AperFunction,ViaPad*%
%ADD17C,0.800000*%
%TD*%
%TA.AperFunction,Conductor*%
%ADD18C,0.500000*%
%TD*%
G04 APERTURE END LIST*
D10*
%TO.P,J2,1,Pin_1*%
%TO.N,Net-(J2-Pin_1)*%
X162560000Y-110490000D03*
%TD*%
%TO.P,J7,1,Pin_1*%
%TO.N,GND*%
X162560000Y-124460000D03*
%TD*%
D11*
%TO.P,R4,1*%
%TO.N,Net-(J3-Pin_1)*%
X158750000Y-95250000D03*
D12*
%TO.P,R4,2*%
%TO.N,Net-(Q4-B)*%
X158750000Y-102870000D03*
%TD*%
D11*
%TO.P,R2,1*%
%TO.N,+5V*%
X151130000Y-107950000D03*
D12*
%TO.P,R2,2*%
%TO.N,/PULL UP*%
X151130000Y-115570000D03*
%TD*%
D10*
%TO.P,J1,1,Pin_1*%
%TO.N,/BUS*%
X138430000Y-125730000D03*
%TD*%
D13*
%TO.P,Q5,1,E*%
%TO.N,Net-(Q5-E)*%
X143510000Y-105410000D03*
D14*
%TO.P,Q5,2,B*%
%TO.N,Net-(Q5-B)*%
X143510000Y-102870000D03*
%TO.P,Q5,3,C*%
%TO.N,/PULL_UP_BAR*%
X143510000Y-100330000D03*
%TD*%
D15*
%TO.P,D1,1,K*%
%TO.N,Net-(D1-K)*%
X144780000Y-125730000D03*
D16*
%TO.P,D1,2,A*%
%TO.N,/BUS*%
X142240000Y-125730000D03*
%TD*%
D10*
%TO.P,J4,1,Pin_1*%
%TO.N,Net-(J4-Pin_1)*%
X143510000Y-95250000D03*
%TD*%
D13*
%TO.P,Q1,1,E*%
%TO.N,/BUS*%
X143510000Y-120650000D03*
D14*
%TO.P,Q1,2,B*%
%TO.N,/PULL UP*%
X143510000Y-118110000D03*
%TO.P,Q1,3,C*%
%TO.N,+5V*%
X143510000Y-115570000D03*
%TD*%
D11*
%TO.P,R3,1*%
%TO.N,+5V*%
X147320000Y-107950000D03*
D12*
%TO.P,R3,2*%
%TO.N,/PULL_UP_BAR*%
X147320000Y-115570000D03*
%TD*%
D11*
%TO.P,R6,1*%
%TO.N,Net-(J4-Pin_1)*%
X139700000Y-95250000D03*
D12*
%TO.P,R6,2*%
%TO.N,Net-(Q5-B)*%
X139700000Y-102870000D03*
%TD*%
D11*
%TO.P,R7,1*%
%TO.N,Net-(J5-Pin_1)*%
X139700000Y-118110000D03*
D12*
%TO.P,R7,2*%
%TO.N,Net-(Q6-B)*%
X139700000Y-110490000D03*
%TD*%
D10*
%TO.P,J3,1,Pin_1*%
%TO.N,Net-(J3-Pin_1)*%
X154940000Y-95250000D03*
%TD*%
D11*
%TO.P,R5,1*%
%TO.N,Net-(J2-Pin_1)*%
X158750000Y-118110000D03*
D12*
%TO.P,R5,2*%
%TO.N,Net-(Q3-B)*%
X158750000Y-110490000D03*
%TD*%
D13*
%TO.P,Q4,1,E*%
%TO.N,Net-(Q3-C)*%
X154940000Y-105410000D03*
D14*
%TO.P,Q4,2,B*%
%TO.N,Net-(Q4-B)*%
X154940000Y-102870000D03*
%TO.P,Q4,3,C*%
%TO.N,/PULL_UP_BAR*%
X154940000Y-100330000D03*
%TD*%
D11*
%TO.P,R1,1*%
%TO.N,Net-(D1-K)*%
X147320000Y-125730000D03*
D12*
%TO.P,R1,2*%
%TO.N,GND*%
X154940000Y-125730000D03*
%TD*%
D10*
%TO.P,J5,1,Pin_1*%
%TO.N,Net-(J5-Pin_1)*%
X162560000Y-105410000D03*
%TD*%
D13*
%TO.P,Q6,1,E*%
%TO.N,GND*%
X143510000Y-113030000D03*
D14*
%TO.P,Q6,2,B*%
%TO.N,Net-(Q6-B)*%
X143510000Y-110490000D03*
%TO.P,Q6,3,C*%
%TO.N,Net-(Q5-E)*%
X143510000Y-107950000D03*
%TD*%
D13*
%TO.P,Q3,1,E*%
%TO.N,GND*%
X154940000Y-113030000D03*
D14*
%TO.P,Q3,2,B*%
%TO.N,Net-(Q3-B)*%
X154940000Y-110490000D03*
%TO.P,Q3,3,C*%
%TO.N,Net-(Q3-C)*%
X154940000Y-107950000D03*
%TD*%
D10*
%TO.P,J6,1,Pin_1*%
%TO.N,+5V*%
X151130000Y-95250000D03*
%TD*%
D13*
%TO.P,Q2,1,E*%
%TO.N,GND*%
X154940000Y-120650000D03*
D14*
%TO.P,Q2,2,B*%
%TO.N,/PULL_UP_BAR*%
X154940000Y-118110000D03*
%TO.P,Q2,3,C*%
%TO.N,/PULL UP*%
X154940000Y-115570000D03*
%TD*%
D17*
%TO.N,/PULL UP*%
X149860000Y-116205000D03*
X147955000Y-118110000D03*
%TD*%
D18*
%TO.N,/PULL UP*%
X147955000Y-118110000D02*
X149860000Y-116205000D01*
%TO.N,+5V*%
X147320000Y-111760000D02*
X143510000Y-115570000D01*
X147320000Y-107950000D02*
X147320000Y-111760000D01*
X151130000Y-107950000D02*
X147320000Y-107950000D01*
X151130000Y-95250000D02*
X151130000Y-107950000D01*
%TO.N,GND*%
X156845000Y-114935000D02*
X154940000Y-113030000D01*
X156845000Y-118745000D02*
X156845000Y-114935000D01*
X154940000Y-120650000D02*
X154940000Y-122555000D01*
X154940000Y-122555000D02*
X141605000Y-122555000D01*
X162560000Y-124460000D02*
X158750000Y-124460000D01*
X141605000Y-122555000D02*
X141605000Y-114935000D01*
X141605000Y-114935000D02*
X143510000Y-113030000D01*
X158750000Y-124460000D02*
X154940000Y-120650000D01*
X154940000Y-122555000D02*
X154940000Y-125730000D01*
X154940000Y-120650000D02*
X156845000Y-118745000D01*
%TD*%
M02*
