%TF.GenerationSoftware,KiCad,Pcbnew,7.0.8*%
%TF.CreationDate,2023-11-03T11:40:39-07:00*%
%TF.ProjectId,bus_driver,6275735f-6472-4697-9665-722e6b696361,rev?*%
%TF.SameCoordinates,Original*%
%TF.FileFunction,Legend,Top*%
%TF.FilePolarity,Positive*%
%FSLAX46Y46*%
G04 Gerber Fmt 4.6, Leading zero omitted, Abs format (unit mm)*
G04 Created by KiCad (PCBNEW 7.0.8) date 2023-11-03 11:40:39*
%MOMM*%
%LPD*%
G01*
G04 APERTURE LIST*
%ADD10C,0.300000*%
%ADD11C,0.150000*%
%ADD12C,0.120000*%
G04 APERTURE END LIST*
D10*
X144564510Y-129825114D02*
X144778796Y-129896542D01*
X144778796Y-129896542D02*
X144850225Y-129967971D01*
X144850225Y-129967971D02*
X144921653Y-130110828D01*
X144921653Y-130110828D02*
X144921653Y-130325114D01*
X144921653Y-130325114D02*
X144850225Y-130467971D01*
X144850225Y-130467971D02*
X144778796Y-130539400D01*
X144778796Y-130539400D02*
X144635939Y-130610828D01*
X144635939Y-130610828D02*
X144064510Y-130610828D01*
X144064510Y-130610828D02*
X144064510Y-129110828D01*
X144064510Y-129110828D02*
X144564510Y-129110828D01*
X144564510Y-129110828D02*
X144707368Y-129182257D01*
X144707368Y-129182257D02*
X144778796Y-129253685D01*
X144778796Y-129253685D02*
X144850225Y-129396542D01*
X144850225Y-129396542D02*
X144850225Y-129539400D01*
X144850225Y-129539400D02*
X144778796Y-129682257D01*
X144778796Y-129682257D02*
X144707368Y-129753685D01*
X144707368Y-129753685D02*
X144564510Y-129825114D01*
X144564510Y-129825114D02*
X144064510Y-129825114D01*
X146207368Y-129610828D02*
X146207368Y-130610828D01*
X145564510Y-129610828D02*
X145564510Y-130396542D01*
X145564510Y-130396542D02*
X145635939Y-130539400D01*
X145635939Y-130539400D02*
X145778796Y-130610828D01*
X145778796Y-130610828D02*
X145993082Y-130610828D01*
X145993082Y-130610828D02*
X146135939Y-130539400D01*
X146135939Y-130539400D02*
X146207368Y-130467971D01*
X146850225Y-130539400D02*
X146993082Y-130610828D01*
X146993082Y-130610828D02*
X147278796Y-130610828D01*
X147278796Y-130610828D02*
X147421653Y-130539400D01*
X147421653Y-130539400D02*
X147493082Y-130396542D01*
X147493082Y-130396542D02*
X147493082Y-130325114D01*
X147493082Y-130325114D02*
X147421653Y-130182257D01*
X147421653Y-130182257D02*
X147278796Y-130110828D01*
X147278796Y-130110828D02*
X147064511Y-130110828D01*
X147064511Y-130110828D02*
X146921653Y-130039400D01*
X146921653Y-130039400D02*
X146850225Y-129896542D01*
X146850225Y-129896542D02*
X146850225Y-129825114D01*
X146850225Y-129825114D02*
X146921653Y-129682257D01*
X146921653Y-129682257D02*
X147064511Y-129610828D01*
X147064511Y-129610828D02*
X147278796Y-129610828D01*
X147278796Y-129610828D02*
X147421653Y-129682257D01*
X149921654Y-130610828D02*
X149921654Y-129110828D01*
X149921654Y-130539400D02*
X149778796Y-130610828D01*
X149778796Y-130610828D02*
X149493082Y-130610828D01*
X149493082Y-130610828D02*
X149350225Y-130539400D01*
X149350225Y-130539400D02*
X149278796Y-130467971D01*
X149278796Y-130467971D02*
X149207368Y-130325114D01*
X149207368Y-130325114D02*
X149207368Y-129896542D01*
X149207368Y-129896542D02*
X149278796Y-129753685D01*
X149278796Y-129753685D02*
X149350225Y-129682257D01*
X149350225Y-129682257D02*
X149493082Y-129610828D01*
X149493082Y-129610828D02*
X149778796Y-129610828D01*
X149778796Y-129610828D02*
X149921654Y-129682257D01*
X150635939Y-130610828D02*
X150635939Y-129610828D01*
X150635939Y-129896542D02*
X150707368Y-129753685D01*
X150707368Y-129753685D02*
X150778797Y-129682257D01*
X150778797Y-129682257D02*
X150921654Y-129610828D01*
X150921654Y-129610828D02*
X151064511Y-129610828D01*
X151564510Y-130610828D02*
X151564510Y-129610828D01*
X151564510Y-129110828D02*
X151493082Y-129182257D01*
X151493082Y-129182257D02*
X151564510Y-129253685D01*
X151564510Y-129253685D02*
X151635939Y-129182257D01*
X151635939Y-129182257D02*
X151564510Y-129110828D01*
X151564510Y-129110828D02*
X151564510Y-129253685D01*
X152135939Y-129610828D02*
X152493082Y-130610828D01*
X152493082Y-130610828D02*
X152850225Y-129610828D01*
X153993082Y-130539400D02*
X153850225Y-130610828D01*
X153850225Y-130610828D02*
X153564511Y-130610828D01*
X153564511Y-130610828D02*
X153421653Y-130539400D01*
X153421653Y-130539400D02*
X153350225Y-130396542D01*
X153350225Y-130396542D02*
X153350225Y-129825114D01*
X153350225Y-129825114D02*
X153421653Y-129682257D01*
X153421653Y-129682257D02*
X153564511Y-129610828D01*
X153564511Y-129610828D02*
X153850225Y-129610828D01*
X153850225Y-129610828D02*
X153993082Y-129682257D01*
X153993082Y-129682257D02*
X154064511Y-129825114D01*
X154064511Y-129825114D02*
X154064511Y-129967971D01*
X154064511Y-129967971D02*
X153350225Y-130110828D01*
X154707367Y-130610828D02*
X154707367Y-129610828D01*
X154707367Y-129896542D02*
X154778796Y-129753685D01*
X154778796Y-129753685D02*
X154850225Y-129682257D01*
X154850225Y-129682257D02*
X154993082Y-129610828D01*
X154993082Y-129610828D02*
X155135939Y-129610828D01*
D11*
X161321905Y-108119104D02*
X161798095Y-108119104D01*
X161226667Y-108404819D02*
X161560000Y-107404819D01*
X161560000Y-107404819D02*
X161893333Y-108404819D01*
X162798095Y-108309580D02*
X162750476Y-108357200D01*
X162750476Y-108357200D02*
X162607619Y-108404819D01*
X162607619Y-108404819D02*
X162512381Y-108404819D01*
X162512381Y-108404819D02*
X162369524Y-108357200D01*
X162369524Y-108357200D02*
X162274286Y-108261961D01*
X162274286Y-108261961D02*
X162226667Y-108166723D01*
X162226667Y-108166723D02*
X162179048Y-107976247D01*
X162179048Y-107976247D02*
X162179048Y-107833390D01*
X162179048Y-107833390D02*
X162226667Y-107642914D01*
X162226667Y-107642914D02*
X162274286Y-107547676D01*
X162274286Y-107547676D02*
X162369524Y-107452438D01*
X162369524Y-107452438D02*
X162512381Y-107404819D01*
X162512381Y-107404819D02*
X162607619Y-107404819D01*
X162607619Y-107404819D02*
X162750476Y-107452438D01*
X162750476Y-107452438D02*
X162798095Y-107500057D01*
X163798095Y-108309580D02*
X163750476Y-108357200D01*
X163750476Y-108357200D02*
X163607619Y-108404819D01*
X163607619Y-108404819D02*
X163512381Y-108404819D01*
X163512381Y-108404819D02*
X163369524Y-108357200D01*
X163369524Y-108357200D02*
X163274286Y-108261961D01*
X163274286Y-108261961D02*
X163226667Y-108166723D01*
X163226667Y-108166723D02*
X163179048Y-107976247D01*
X163179048Y-107976247D02*
X163179048Y-107833390D01*
X163179048Y-107833390D02*
X163226667Y-107642914D01*
X163226667Y-107642914D02*
X163274286Y-107547676D01*
X163274286Y-107547676D02*
X163369524Y-107452438D01*
X163369524Y-107452438D02*
X163512381Y-107404819D01*
X163512381Y-107404819D02*
X163607619Y-107404819D01*
X163607619Y-107404819D02*
X163750476Y-107452438D01*
X163750476Y-107452438D02*
X163798095Y-107500057D01*
X161798095Y-121422438D02*
X161702857Y-121374819D01*
X161702857Y-121374819D02*
X161560000Y-121374819D01*
X161560000Y-121374819D02*
X161417143Y-121422438D01*
X161417143Y-121422438D02*
X161321905Y-121517676D01*
X161321905Y-121517676D02*
X161274286Y-121612914D01*
X161274286Y-121612914D02*
X161226667Y-121803390D01*
X161226667Y-121803390D02*
X161226667Y-121946247D01*
X161226667Y-121946247D02*
X161274286Y-122136723D01*
X161274286Y-122136723D02*
X161321905Y-122231961D01*
X161321905Y-122231961D02*
X161417143Y-122327200D01*
X161417143Y-122327200D02*
X161560000Y-122374819D01*
X161560000Y-122374819D02*
X161655238Y-122374819D01*
X161655238Y-122374819D02*
X161798095Y-122327200D01*
X161798095Y-122327200D02*
X161845714Y-122279580D01*
X161845714Y-122279580D02*
X161845714Y-121946247D01*
X161845714Y-121946247D02*
X161655238Y-121946247D01*
X162274286Y-122374819D02*
X162274286Y-121374819D01*
X162274286Y-121374819D02*
X162845714Y-122374819D01*
X162845714Y-122374819D02*
X162845714Y-121374819D01*
X163321905Y-122374819D02*
X163321905Y-121374819D01*
X163321905Y-121374819D02*
X163560000Y-121374819D01*
X163560000Y-121374819D02*
X163702857Y-121422438D01*
X163702857Y-121422438D02*
X163798095Y-121517676D01*
X163798095Y-121517676D02*
X163845714Y-121612914D01*
X163845714Y-121612914D02*
X163893333Y-121803390D01*
X163893333Y-121803390D02*
X163893333Y-121946247D01*
X163893333Y-121946247D02*
X163845714Y-122136723D01*
X163845714Y-122136723D02*
X163798095Y-122231961D01*
X163798095Y-122231961D02*
X163702857Y-122327200D01*
X163702857Y-122327200D02*
X163560000Y-122374819D01*
X163560000Y-122374819D02*
X163321905Y-122374819D01*
X160205057Y-100226666D02*
X160157438Y-100179047D01*
X160157438Y-100179047D02*
X160109819Y-100083809D01*
X160109819Y-100083809D02*
X160109819Y-99845714D01*
X160109819Y-99845714D02*
X160157438Y-99750476D01*
X160157438Y-99750476D02*
X160205057Y-99702857D01*
X160205057Y-99702857D02*
X160300295Y-99655238D01*
X160300295Y-99655238D02*
X160395533Y-99655238D01*
X160395533Y-99655238D02*
X160538390Y-99702857D01*
X160538390Y-99702857D02*
X161109819Y-100274285D01*
X161109819Y-100274285D02*
X161109819Y-99655238D01*
X160205057Y-99274285D02*
X160157438Y-99226666D01*
X160157438Y-99226666D02*
X160109819Y-99131428D01*
X160109819Y-99131428D02*
X160109819Y-98893333D01*
X160109819Y-98893333D02*
X160157438Y-98798095D01*
X160157438Y-98798095D02*
X160205057Y-98750476D01*
X160205057Y-98750476D02*
X160300295Y-98702857D01*
X160300295Y-98702857D02*
X160395533Y-98702857D01*
X160395533Y-98702857D02*
X160538390Y-98750476D01*
X160538390Y-98750476D02*
X161109819Y-99321904D01*
X161109819Y-99321904D02*
X161109819Y-98702857D01*
X161109819Y-98274285D02*
X160109819Y-98274285D01*
X160728866Y-98179047D02*
X161109819Y-97893333D01*
X160443152Y-97893333D02*
X160824104Y-98274285D01*
X151584819Y-118229047D02*
X151584819Y-118800475D01*
X151584819Y-118514761D02*
X150584819Y-118514761D01*
X150584819Y-118514761D02*
X150727676Y-118609999D01*
X150727676Y-118609999D02*
X150822914Y-118705237D01*
X150822914Y-118705237D02*
X150870533Y-118800475D01*
X151584819Y-117800475D02*
X150584819Y-117800475D01*
X151203866Y-117705237D02*
X151584819Y-117419523D01*
X150918152Y-117419523D02*
X151299104Y-117800475D01*
X136287143Y-123644819D02*
X136287143Y-122644819D01*
X136287143Y-122644819D02*
X136525238Y-122644819D01*
X136525238Y-122644819D02*
X136668095Y-122692438D01*
X136668095Y-122692438D02*
X136763333Y-122787676D01*
X136763333Y-122787676D02*
X136810952Y-122882914D01*
X136810952Y-122882914D02*
X136858571Y-123073390D01*
X136858571Y-123073390D02*
X136858571Y-123216247D01*
X136858571Y-123216247D02*
X136810952Y-123406723D01*
X136810952Y-123406723D02*
X136763333Y-123501961D01*
X136763333Y-123501961D02*
X136668095Y-123597200D01*
X136668095Y-123597200D02*
X136525238Y-123644819D01*
X136525238Y-123644819D02*
X136287143Y-123644819D01*
X137049048Y-123740057D02*
X137810952Y-123740057D01*
X138382381Y-123121009D02*
X138525238Y-123168628D01*
X138525238Y-123168628D02*
X138572857Y-123216247D01*
X138572857Y-123216247D02*
X138620476Y-123311485D01*
X138620476Y-123311485D02*
X138620476Y-123454342D01*
X138620476Y-123454342D02*
X138572857Y-123549580D01*
X138572857Y-123549580D02*
X138525238Y-123597200D01*
X138525238Y-123597200D02*
X138430000Y-123644819D01*
X138430000Y-123644819D02*
X138049048Y-123644819D01*
X138049048Y-123644819D02*
X138049048Y-122644819D01*
X138049048Y-122644819D02*
X138382381Y-122644819D01*
X138382381Y-122644819D02*
X138477619Y-122692438D01*
X138477619Y-122692438D02*
X138525238Y-122740057D01*
X138525238Y-122740057D02*
X138572857Y-122835295D01*
X138572857Y-122835295D02*
X138572857Y-122930533D01*
X138572857Y-122930533D02*
X138525238Y-123025771D01*
X138525238Y-123025771D02*
X138477619Y-123073390D01*
X138477619Y-123073390D02*
X138382381Y-123121009D01*
X138382381Y-123121009D02*
X138049048Y-123121009D01*
X139049048Y-122644819D02*
X139049048Y-123454342D01*
X139049048Y-123454342D02*
X139096667Y-123549580D01*
X139096667Y-123549580D02*
X139144286Y-123597200D01*
X139144286Y-123597200D02*
X139239524Y-123644819D01*
X139239524Y-123644819D02*
X139430000Y-123644819D01*
X139430000Y-123644819D02*
X139525238Y-123597200D01*
X139525238Y-123597200D02*
X139572857Y-123549580D01*
X139572857Y-123549580D02*
X139620476Y-123454342D01*
X139620476Y-123454342D02*
X139620476Y-122644819D01*
X140049048Y-123597200D02*
X140191905Y-123644819D01*
X140191905Y-123644819D02*
X140430000Y-123644819D01*
X140430000Y-123644819D02*
X140525238Y-123597200D01*
X140525238Y-123597200D02*
X140572857Y-123549580D01*
X140572857Y-123549580D02*
X140620476Y-123454342D01*
X140620476Y-123454342D02*
X140620476Y-123359104D01*
X140620476Y-123359104D02*
X140572857Y-123263866D01*
X140572857Y-123263866D02*
X140525238Y-123216247D01*
X140525238Y-123216247D02*
X140430000Y-123168628D01*
X140430000Y-123168628D02*
X140239524Y-123121009D01*
X140239524Y-123121009D02*
X140144286Y-123073390D01*
X140144286Y-123073390D02*
X140096667Y-123025771D01*
X140096667Y-123025771D02*
X140049048Y-122930533D01*
X140049048Y-122930533D02*
X140049048Y-122835295D01*
X140049048Y-122835295D02*
X140096667Y-122740057D01*
X140096667Y-122740057D02*
X140144286Y-122692438D01*
X140144286Y-122692438D02*
X140239524Y-122644819D01*
X140239524Y-122644819D02*
X140477619Y-122644819D01*
X140477619Y-122644819D02*
X140620476Y-122692438D01*
X142581428Y-122701009D02*
X142724285Y-122748628D01*
X142724285Y-122748628D02*
X142771904Y-122796247D01*
X142771904Y-122796247D02*
X142819523Y-122891485D01*
X142819523Y-122891485D02*
X142819523Y-123034342D01*
X142819523Y-123034342D02*
X142771904Y-123129580D01*
X142771904Y-123129580D02*
X142724285Y-123177200D01*
X142724285Y-123177200D02*
X142629047Y-123224819D01*
X142629047Y-123224819D02*
X142248095Y-123224819D01*
X142248095Y-123224819D02*
X142248095Y-122224819D01*
X142248095Y-122224819D02*
X142581428Y-122224819D01*
X142581428Y-122224819D02*
X142676666Y-122272438D01*
X142676666Y-122272438D02*
X142724285Y-122320057D01*
X142724285Y-122320057D02*
X142771904Y-122415295D01*
X142771904Y-122415295D02*
X142771904Y-122510533D01*
X142771904Y-122510533D02*
X142724285Y-122605771D01*
X142724285Y-122605771D02*
X142676666Y-122653390D01*
X142676666Y-122653390D02*
X142581428Y-122701009D01*
X142581428Y-122701009D02*
X142248095Y-122701009D01*
X143248095Y-122224819D02*
X143248095Y-123034342D01*
X143248095Y-123034342D02*
X143295714Y-123129580D01*
X143295714Y-123129580D02*
X143343333Y-123177200D01*
X143343333Y-123177200D02*
X143438571Y-123224819D01*
X143438571Y-123224819D02*
X143629047Y-123224819D01*
X143629047Y-123224819D02*
X143724285Y-123177200D01*
X143724285Y-123177200D02*
X143771904Y-123129580D01*
X143771904Y-123129580D02*
X143819523Y-123034342D01*
X143819523Y-123034342D02*
X143819523Y-122224819D01*
X144248095Y-123177200D02*
X144390952Y-123224819D01*
X144390952Y-123224819D02*
X144629047Y-123224819D01*
X144629047Y-123224819D02*
X144724285Y-123177200D01*
X144724285Y-123177200D02*
X144771904Y-123129580D01*
X144771904Y-123129580D02*
X144819523Y-123034342D01*
X144819523Y-123034342D02*
X144819523Y-122939104D01*
X144819523Y-122939104D02*
X144771904Y-122843866D01*
X144771904Y-122843866D02*
X144724285Y-122796247D01*
X144724285Y-122796247D02*
X144629047Y-122748628D01*
X144629047Y-122748628D02*
X144438571Y-122701009D01*
X144438571Y-122701009D02*
X144343333Y-122653390D01*
X144343333Y-122653390D02*
X144295714Y-122605771D01*
X144295714Y-122605771D02*
X144248095Y-122510533D01*
X144248095Y-122510533D02*
X144248095Y-122415295D01*
X144248095Y-122415295D02*
X144295714Y-122320057D01*
X144295714Y-122320057D02*
X144343333Y-122272438D01*
X144343333Y-122272438D02*
X144438571Y-122224819D01*
X144438571Y-122224819D02*
X144676666Y-122224819D01*
X144676666Y-122224819D02*
X144819523Y-122272438D01*
X141819524Y-97987200D02*
X141962381Y-98034819D01*
X141962381Y-98034819D02*
X142200476Y-98034819D01*
X142200476Y-98034819D02*
X142295714Y-97987200D01*
X142295714Y-97987200D02*
X142343333Y-97939580D01*
X142343333Y-97939580D02*
X142390952Y-97844342D01*
X142390952Y-97844342D02*
X142390952Y-97749104D01*
X142390952Y-97749104D02*
X142343333Y-97653866D01*
X142343333Y-97653866D02*
X142295714Y-97606247D01*
X142295714Y-97606247D02*
X142200476Y-97558628D01*
X142200476Y-97558628D02*
X142010000Y-97511009D01*
X142010000Y-97511009D02*
X141914762Y-97463390D01*
X141914762Y-97463390D02*
X141867143Y-97415771D01*
X141867143Y-97415771D02*
X141819524Y-97320533D01*
X141819524Y-97320533D02*
X141819524Y-97225295D01*
X141819524Y-97225295D02*
X141867143Y-97130057D01*
X141867143Y-97130057D02*
X141914762Y-97082438D01*
X141914762Y-97082438D02*
X142010000Y-97034819D01*
X142010000Y-97034819D02*
X142248095Y-97034819D01*
X142248095Y-97034819D02*
X142390952Y-97082438D01*
X142676667Y-97034819D02*
X143248095Y-97034819D01*
X142962381Y-98034819D02*
X142962381Y-97034819D01*
X143771905Y-97034819D02*
X143962381Y-97034819D01*
X143962381Y-97034819D02*
X144057619Y-97082438D01*
X144057619Y-97082438D02*
X144152857Y-97177676D01*
X144152857Y-97177676D02*
X144200476Y-97368152D01*
X144200476Y-97368152D02*
X144200476Y-97701485D01*
X144200476Y-97701485D02*
X144152857Y-97891961D01*
X144152857Y-97891961D02*
X144057619Y-97987200D01*
X144057619Y-97987200D02*
X143962381Y-98034819D01*
X143962381Y-98034819D02*
X143771905Y-98034819D01*
X143771905Y-98034819D02*
X143676667Y-97987200D01*
X143676667Y-97987200D02*
X143581429Y-97891961D01*
X143581429Y-97891961D02*
X143533810Y-97701485D01*
X143533810Y-97701485D02*
X143533810Y-97368152D01*
X143533810Y-97368152D02*
X143581429Y-97177676D01*
X143581429Y-97177676D02*
X143676667Y-97082438D01*
X143676667Y-97082438D02*
X143771905Y-97034819D01*
X145200476Y-97939580D02*
X145152857Y-97987200D01*
X145152857Y-97987200D02*
X145010000Y-98034819D01*
X145010000Y-98034819D02*
X144914762Y-98034819D01*
X144914762Y-98034819D02*
X144771905Y-97987200D01*
X144771905Y-97987200D02*
X144676667Y-97891961D01*
X144676667Y-97891961D02*
X144629048Y-97796723D01*
X144629048Y-97796723D02*
X144581429Y-97606247D01*
X144581429Y-97606247D02*
X144581429Y-97463390D01*
X144581429Y-97463390D02*
X144629048Y-97272914D01*
X144629048Y-97272914D02*
X144676667Y-97177676D01*
X144676667Y-97177676D02*
X144771905Y-97082438D01*
X144771905Y-97082438D02*
X144914762Y-97034819D01*
X144914762Y-97034819D02*
X145010000Y-97034819D01*
X145010000Y-97034819D02*
X145152857Y-97082438D01*
X145152857Y-97082438D02*
X145200476Y-97130057D01*
X147774819Y-118705238D02*
X147774819Y-119276666D01*
X147774819Y-118990952D02*
X146774819Y-118990952D01*
X146774819Y-118990952D02*
X146917676Y-119086190D01*
X146917676Y-119086190D02*
X147012914Y-119181428D01*
X147012914Y-119181428D02*
X147060533Y-119276666D01*
X146774819Y-118086190D02*
X146774819Y-117990952D01*
X146774819Y-117990952D02*
X146822438Y-117895714D01*
X146822438Y-117895714D02*
X146870057Y-117848095D01*
X146870057Y-117848095D02*
X146965295Y-117800476D01*
X146965295Y-117800476D02*
X147155771Y-117752857D01*
X147155771Y-117752857D02*
X147393866Y-117752857D01*
X147393866Y-117752857D02*
X147584342Y-117800476D01*
X147584342Y-117800476D02*
X147679580Y-117848095D01*
X147679580Y-117848095D02*
X147727200Y-117895714D01*
X147727200Y-117895714D02*
X147774819Y-117990952D01*
X147774819Y-117990952D02*
X147774819Y-118086190D01*
X147774819Y-118086190D02*
X147727200Y-118181428D01*
X147727200Y-118181428D02*
X147679580Y-118229047D01*
X147679580Y-118229047D02*
X147584342Y-118276666D01*
X147584342Y-118276666D02*
X147393866Y-118324285D01*
X147393866Y-118324285D02*
X147155771Y-118324285D01*
X147155771Y-118324285D02*
X146965295Y-118276666D01*
X146965295Y-118276666D02*
X146870057Y-118229047D01*
X146870057Y-118229047D02*
X146822438Y-118181428D01*
X146822438Y-118181428D02*
X146774819Y-118086190D01*
X147774819Y-117324285D02*
X146774819Y-117324285D01*
X147393866Y-117229047D02*
X147774819Y-116943333D01*
X147108152Y-116943333D02*
X147489104Y-117324285D01*
X137330057Y-100226666D02*
X137282438Y-100179047D01*
X137282438Y-100179047D02*
X137234819Y-100083809D01*
X137234819Y-100083809D02*
X137234819Y-99845714D01*
X137234819Y-99845714D02*
X137282438Y-99750476D01*
X137282438Y-99750476D02*
X137330057Y-99702857D01*
X137330057Y-99702857D02*
X137425295Y-99655238D01*
X137425295Y-99655238D02*
X137520533Y-99655238D01*
X137520533Y-99655238D02*
X137663390Y-99702857D01*
X137663390Y-99702857D02*
X138234819Y-100274285D01*
X138234819Y-100274285D02*
X138234819Y-99655238D01*
X137330057Y-99274285D02*
X137282438Y-99226666D01*
X137282438Y-99226666D02*
X137234819Y-99131428D01*
X137234819Y-99131428D02*
X137234819Y-98893333D01*
X137234819Y-98893333D02*
X137282438Y-98798095D01*
X137282438Y-98798095D02*
X137330057Y-98750476D01*
X137330057Y-98750476D02*
X137425295Y-98702857D01*
X137425295Y-98702857D02*
X137520533Y-98702857D01*
X137520533Y-98702857D02*
X137663390Y-98750476D01*
X137663390Y-98750476D02*
X138234819Y-99321904D01*
X138234819Y-99321904D02*
X138234819Y-98702857D01*
X138234819Y-98274285D02*
X137234819Y-98274285D01*
X137853866Y-98179047D02*
X138234819Y-97893333D01*
X137568152Y-97893333D02*
X137949104Y-98274285D01*
X137345057Y-115466666D02*
X137297438Y-115419047D01*
X137297438Y-115419047D02*
X137249819Y-115323809D01*
X137249819Y-115323809D02*
X137249819Y-115085714D01*
X137249819Y-115085714D02*
X137297438Y-114990476D01*
X137297438Y-114990476D02*
X137345057Y-114942857D01*
X137345057Y-114942857D02*
X137440295Y-114895238D01*
X137440295Y-114895238D02*
X137535533Y-114895238D01*
X137535533Y-114895238D02*
X137678390Y-114942857D01*
X137678390Y-114942857D02*
X138249819Y-115514285D01*
X138249819Y-115514285D02*
X138249819Y-114895238D01*
X137345057Y-114514285D02*
X137297438Y-114466666D01*
X137297438Y-114466666D02*
X137249819Y-114371428D01*
X137249819Y-114371428D02*
X137249819Y-114133333D01*
X137249819Y-114133333D02*
X137297438Y-114038095D01*
X137297438Y-114038095D02*
X137345057Y-113990476D01*
X137345057Y-113990476D02*
X137440295Y-113942857D01*
X137440295Y-113942857D02*
X137535533Y-113942857D01*
X137535533Y-113942857D02*
X137678390Y-113990476D01*
X137678390Y-113990476D02*
X138249819Y-114561904D01*
X138249819Y-114561904D02*
X138249819Y-113942857D01*
X138249819Y-113514285D02*
X137249819Y-113514285D01*
X137868866Y-113419047D02*
X138249819Y-113133333D01*
X137583152Y-113133333D02*
X137964104Y-113514285D01*
X153749524Y-97987200D02*
X153892381Y-98034819D01*
X153892381Y-98034819D02*
X154130476Y-98034819D01*
X154130476Y-98034819D02*
X154225714Y-97987200D01*
X154225714Y-97987200D02*
X154273333Y-97939580D01*
X154273333Y-97939580D02*
X154320952Y-97844342D01*
X154320952Y-97844342D02*
X154320952Y-97749104D01*
X154320952Y-97749104D02*
X154273333Y-97653866D01*
X154273333Y-97653866D02*
X154225714Y-97606247D01*
X154225714Y-97606247D02*
X154130476Y-97558628D01*
X154130476Y-97558628D02*
X153940000Y-97511009D01*
X153940000Y-97511009D02*
X153844762Y-97463390D01*
X153844762Y-97463390D02*
X153797143Y-97415771D01*
X153797143Y-97415771D02*
X153749524Y-97320533D01*
X153749524Y-97320533D02*
X153749524Y-97225295D01*
X153749524Y-97225295D02*
X153797143Y-97130057D01*
X153797143Y-97130057D02*
X153844762Y-97082438D01*
X153844762Y-97082438D02*
X153940000Y-97034819D01*
X153940000Y-97034819D02*
X154178095Y-97034819D01*
X154178095Y-97034819D02*
X154320952Y-97082438D01*
X154606667Y-97034819D02*
X155178095Y-97034819D01*
X154892381Y-98034819D02*
X154892381Y-97034819D01*
X155701905Y-97034819D02*
X155892381Y-97034819D01*
X155892381Y-97034819D02*
X155987619Y-97082438D01*
X155987619Y-97082438D02*
X156082857Y-97177676D01*
X156082857Y-97177676D02*
X156130476Y-97368152D01*
X156130476Y-97368152D02*
X156130476Y-97701485D01*
X156130476Y-97701485D02*
X156082857Y-97891961D01*
X156082857Y-97891961D02*
X155987619Y-97987200D01*
X155987619Y-97987200D02*
X155892381Y-98034819D01*
X155892381Y-98034819D02*
X155701905Y-98034819D01*
X155701905Y-98034819D02*
X155606667Y-97987200D01*
X155606667Y-97987200D02*
X155511429Y-97891961D01*
X155511429Y-97891961D02*
X155463810Y-97701485D01*
X155463810Y-97701485D02*
X155463810Y-97368152D01*
X155463810Y-97368152D02*
X155511429Y-97177676D01*
X155511429Y-97177676D02*
X155606667Y-97082438D01*
X155606667Y-97082438D02*
X155701905Y-97034819D01*
X160220057Y-115466666D02*
X160172438Y-115419047D01*
X160172438Y-115419047D02*
X160124819Y-115323809D01*
X160124819Y-115323809D02*
X160124819Y-115085714D01*
X160124819Y-115085714D02*
X160172438Y-114990476D01*
X160172438Y-114990476D02*
X160220057Y-114942857D01*
X160220057Y-114942857D02*
X160315295Y-114895238D01*
X160315295Y-114895238D02*
X160410533Y-114895238D01*
X160410533Y-114895238D02*
X160553390Y-114942857D01*
X160553390Y-114942857D02*
X161124819Y-115514285D01*
X161124819Y-115514285D02*
X161124819Y-114895238D01*
X160220057Y-114514285D02*
X160172438Y-114466666D01*
X160172438Y-114466666D02*
X160124819Y-114371428D01*
X160124819Y-114371428D02*
X160124819Y-114133333D01*
X160124819Y-114133333D02*
X160172438Y-114038095D01*
X160172438Y-114038095D02*
X160220057Y-113990476D01*
X160220057Y-113990476D02*
X160315295Y-113942857D01*
X160315295Y-113942857D02*
X160410533Y-113942857D01*
X160410533Y-113942857D02*
X160553390Y-113990476D01*
X160553390Y-113990476D02*
X161124819Y-114561904D01*
X161124819Y-114561904D02*
X161124819Y-113942857D01*
X161124819Y-113514285D02*
X160124819Y-113514285D01*
X160743866Y-113419047D02*
X161124819Y-113133333D01*
X160458152Y-113133333D02*
X160839104Y-113514285D01*
X151010952Y-128104819D02*
X150439524Y-128104819D01*
X150725238Y-128104819D02*
X150725238Y-127104819D01*
X150725238Y-127104819D02*
X150630000Y-127247676D01*
X150630000Y-127247676D02*
X150534762Y-127342914D01*
X150534762Y-127342914D02*
X150439524Y-127390533D01*
X151439524Y-128104819D02*
X151439524Y-127104819D01*
X151534762Y-127723866D02*
X151820476Y-128104819D01*
X151820476Y-127438152D02*
X151439524Y-127819104D01*
X161131429Y-103229580D02*
X161179048Y-103277200D01*
X161179048Y-103277200D02*
X161131429Y-103324819D01*
X161131429Y-103324819D02*
X161083810Y-103277200D01*
X161083810Y-103277200D02*
X161131429Y-103229580D01*
X161131429Y-103229580D02*
X161131429Y-103324819D01*
X161131429Y-102943866D02*
X161083810Y-102372438D01*
X161083810Y-102372438D02*
X161131429Y-102324819D01*
X161131429Y-102324819D02*
X161179048Y-102372438D01*
X161179048Y-102372438D02*
X161131429Y-102943866D01*
X161131429Y-102943866D02*
X161131429Y-102324819D01*
X161560000Y-103039104D02*
X162036190Y-103039104D01*
X161464762Y-103324819D02*
X161798095Y-102324819D01*
X161798095Y-102324819D02*
X162131428Y-103324819D01*
X163036190Y-103229580D02*
X162988571Y-103277200D01*
X162988571Y-103277200D02*
X162845714Y-103324819D01*
X162845714Y-103324819D02*
X162750476Y-103324819D01*
X162750476Y-103324819D02*
X162607619Y-103277200D01*
X162607619Y-103277200D02*
X162512381Y-103181961D01*
X162512381Y-103181961D02*
X162464762Y-103086723D01*
X162464762Y-103086723D02*
X162417143Y-102896247D01*
X162417143Y-102896247D02*
X162417143Y-102753390D01*
X162417143Y-102753390D02*
X162464762Y-102562914D01*
X162464762Y-102562914D02*
X162512381Y-102467676D01*
X162512381Y-102467676D02*
X162607619Y-102372438D01*
X162607619Y-102372438D02*
X162750476Y-102324819D01*
X162750476Y-102324819D02*
X162845714Y-102324819D01*
X162845714Y-102324819D02*
X162988571Y-102372438D01*
X162988571Y-102372438D02*
X163036190Y-102420057D01*
X164036190Y-103229580D02*
X163988571Y-103277200D01*
X163988571Y-103277200D02*
X163845714Y-103324819D01*
X163845714Y-103324819D02*
X163750476Y-103324819D01*
X163750476Y-103324819D02*
X163607619Y-103277200D01*
X163607619Y-103277200D02*
X163512381Y-103181961D01*
X163512381Y-103181961D02*
X163464762Y-103086723D01*
X163464762Y-103086723D02*
X163417143Y-102896247D01*
X163417143Y-102896247D02*
X163417143Y-102753390D01*
X163417143Y-102753390D02*
X163464762Y-102562914D01*
X163464762Y-102562914D02*
X163512381Y-102467676D01*
X163512381Y-102467676D02*
X163607619Y-102372438D01*
X163607619Y-102372438D02*
X163750476Y-102324819D01*
X163750476Y-102324819D02*
X163845714Y-102324819D01*
X163845714Y-102324819D02*
X163988571Y-102372438D01*
X163988571Y-102372438D02*
X164036190Y-102420057D01*
X150987142Y-97034819D02*
X150510952Y-97034819D01*
X150510952Y-97034819D02*
X150463333Y-97511009D01*
X150463333Y-97511009D02*
X150510952Y-97463390D01*
X150510952Y-97463390D02*
X150606190Y-97415771D01*
X150606190Y-97415771D02*
X150844285Y-97415771D01*
X150844285Y-97415771D02*
X150939523Y-97463390D01*
X150939523Y-97463390D02*
X150987142Y-97511009D01*
X150987142Y-97511009D02*
X151034761Y-97606247D01*
X151034761Y-97606247D02*
X151034761Y-97844342D01*
X151034761Y-97844342D02*
X150987142Y-97939580D01*
X150987142Y-97939580D02*
X150939523Y-97987200D01*
X150939523Y-97987200D02*
X150844285Y-98034819D01*
X150844285Y-98034819D02*
X150606190Y-98034819D01*
X150606190Y-98034819D02*
X150510952Y-97987200D01*
X150510952Y-97987200D02*
X150463333Y-97939580D01*
X151368095Y-97368152D02*
X151606190Y-98034819D01*
X151606190Y-98034819D02*
X151844285Y-97368152D01*
D12*
%TO.C,J2*%
X161230000Y-109160000D02*
X162560000Y-109160000D01*
X161230000Y-110490000D02*
X161230000Y-109160000D01*
X161230000Y-111760000D02*
X161230000Y-111820000D01*
X161230000Y-111760000D02*
X163890000Y-111760000D01*
X161230000Y-111820000D02*
X163890000Y-111820000D01*
X163890000Y-111760000D02*
X163890000Y-111820000D01*
%TO.C,J7*%
X161230000Y-123130000D02*
X162560000Y-123130000D01*
X161230000Y-124460000D02*
X161230000Y-123130000D01*
X161230000Y-125730000D02*
X161230000Y-125790000D01*
X161230000Y-125730000D02*
X163890000Y-125730000D01*
X161230000Y-125790000D02*
X163890000Y-125790000D01*
X163890000Y-125730000D02*
X163890000Y-125790000D01*
%TO.C,R4*%
X158750000Y-96190000D02*
X158750000Y-97140000D01*
X159670000Y-97140000D02*
X157830000Y-97140000D01*
X157830000Y-97140000D02*
X157830000Y-100980000D01*
X159670000Y-100980000D02*
X159670000Y-97140000D01*
X157830000Y-100980000D02*
X159670000Y-100980000D01*
X158750000Y-101930000D02*
X158750000Y-100980000D01*
%TO.C,R2*%
X151130000Y-108890000D02*
X151130000Y-109840000D01*
X152050000Y-109840000D02*
X150210000Y-109840000D01*
X150210000Y-109840000D02*
X150210000Y-113680000D01*
X152050000Y-113680000D02*
X152050000Y-109840000D01*
X150210000Y-113680000D02*
X152050000Y-113680000D01*
X151130000Y-114630000D02*
X151130000Y-113680000D01*
%TO.C,J1*%
X137100000Y-124400000D02*
X138430000Y-124400000D01*
X137100000Y-125730000D02*
X137100000Y-124400000D01*
X137100000Y-127000000D02*
X137100000Y-127060000D01*
X137100000Y-127000000D02*
X139760000Y-127000000D01*
X137100000Y-127060000D02*
X139760000Y-127060000D01*
X139760000Y-127000000D02*
X139760000Y-127060000D01*
%TO.C,Q5*%
X145360000Y-104670000D02*
X145360000Y-101070000D01*
X140910001Y-102870000D02*
G75*
G03*
X142411193Y-105226399I2599999J0D01*
G01*
X144632795Y-105194183D02*
G75*
G03*
X145359999Y-104669999I-1122795J2324183D01*
G01*
X142411193Y-100513600D02*
G75*
G03*
X140910000Y-102870000I1098807J-2356400D01*
G01*
X145359999Y-101070001D02*
G75*
G03*
X144632795Y-100545817I-1849999J-1799999D01*
G01*
%TO.C,D1*%
X145070000Y-126966000D02*
X145070000Y-126810000D01*
X145070000Y-124650000D02*
X145070000Y-124494000D01*
X141837666Y-126808608D02*
G75*
G03*
X145069999Y-126965515I1672334J1078608D01*
G01*
X142468871Y-126809836D02*
G75*
G03*
X144550960Y-126809999I1041129J1079836D01*
G01*
X144550960Y-124650001D02*
G75*
G03*
X142468871Y-124650164I-1040960J-1079999D01*
G01*
X145069999Y-124494485D02*
G75*
G03*
X141837666Y-124651392I-1559999J-1235515D01*
G01*
%TO.C,J4*%
X142180000Y-93920000D02*
X143510000Y-93920000D01*
X142180000Y-95250000D02*
X142180000Y-93920000D01*
X142180000Y-96520000D02*
X142180000Y-96580000D01*
X142180000Y-96520000D02*
X144840000Y-96520000D01*
X142180000Y-96580000D02*
X144840000Y-96580000D01*
X144840000Y-96520000D02*
X144840000Y-96580000D01*
%TO.C,Q1*%
X145360000Y-119910000D02*
X145360000Y-116310000D01*
X140910001Y-118110000D02*
G75*
G03*
X142411193Y-120466399I2599999J0D01*
G01*
X144632795Y-120434183D02*
G75*
G03*
X145359999Y-119909999I-1122795J2324183D01*
G01*
X142411193Y-115753600D02*
G75*
G03*
X140910000Y-118110000I1098807J-2356400D01*
G01*
X145359999Y-116310001D02*
G75*
G03*
X144632795Y-115785817I-1849999J-1799999D01*
G01*
%TO.C,R3*%
X147320000Y-108890000D02*
X147320000Y-109840000D01*
X148240000Y-109840000D02*
X146400000Y-109840000D01*
X146400000Y-109840000D02*
X146400000Y-113680000D01*
X148240000Y-113680000D02*
X148240000Y-109840000D01*
X146400000Y-113680000D02*
X148240000Y-113680000D01*
X147320000Y-114630000D02*
X147320000Y-113680000D01*
%TO.C,R6*%
X139700000Y-96190000D02*
X139700000Y-97140000D01*
X140620000Y-97140000D02*
X138780000Y-97140000D01*
X138780000Y-97140000D02*
X138780000Y-100980000D01*
X140620000Y-100980000D02*
X140620000Y-97140000D01*
X138780000Y-100980000D02*
X140620000Y-100980000D01*
X139700000Y-101930000D02*
X139700000Y-100980000D01*
%TO.C,R7*%
X139700000Y-117170000D02*
X139700000Y-116220000D01*
X138780000Y-116220000D02*
X140620000Y-116220000D01*
X140620000Y-116220000D02*
X140620000Y-112380000D01*
X138780000Y-112380000D02*
X138780000Y-116220000D01*
X140620000Y-112380000D02*
X138780000Y-112380000D01*
X139700000Y-111430000D02*
X139700000Y-112380000D01*
%TO.C,J3*%
X153610000Y-93920000D02*
X154940000Y-93920000D01*
X153610000Y-95250000D02*
X153610000Y-93920000D01*
X153610000Y-96520000D02*
X153610000Y-96580000D01*
X153610000Y-96520000D02*
X156270000Y-96520000D01*
X153610000Y-96580000D02*
X156270000Y-96580000D01*
X156270000Y-96520000D02*
X156270000Y-96580000D01*
%TO.C,R5*%
X158750000Y-117170000D02*
X158750000Y-116220000D01*
X157830000Y-116220000D02*
X159670000Y-116220000D01*
X159670000Y-116220000D02*
X159670000Y-112380000D01*
X157830000Y-112380000D02*
X157830000Y-116220000D01*
X159670000Y-112380000D02*
X157830000Y-112380000D01*
X158750000Y-111430000D02*
X158750000Y-112380000D01*
%TO.C,Q4*%
X156790000Y-104670000D02*
X156790000Y-101070000D01*
X152340001Y-102870000D02*
G75*
G03*
X153841193Y-105226399I2599999J0D01*
G01*
X156062795Y-105194183D02*
G75*
G03*
X156789999Y-104669999I-1122795J2324183D01*
G01*
X153841193Y-100513600D02*
G75*
G03*
X152340000Y-102870000I1098807J-2356400D01*
G01*
X156789999Y-101070001D02*
G75*
G03*
X156062795Y-100545817I-1849999J-1799999D01*
G01*
%TO.C,R1*%
X148260000Y-125730000D02*
X149210000Y-125730000D01*
X149210000Y-124810000D02*
X149210000Y-126650000D01*
X149210000Y-126650000D02*
X153050000Y-126650000D01*
X153050000Y-124810000D02*
X149210000Y-124810000D01*
X153050000Y-126650000D02*
X153050000Y-124810000D01*
X154000000Y-125730000D02*
X153050000Y-125730000D01*
%TO.C,J5*%
X161230000Y-104080000D02*
X162560000Y-104080000D01*
X161230000Y-105410000D02*
X161230000Y-104080000D01*
X161230000Y-106680000D02*
X161230000Y-106740000D01*
X161230000Y-106680000D02*
X163890000Y-106680000D01*
X161230000Y-106740000D02*
X163890000Y-106740000D01*
X163890000Y-106680000D02*
X163890000Y-106740000D01*
%TO.C,Q6*%
X145360000Y-112290000D02*
X145360000Y-108690000D01*
X140910001Y-110490000D02*
G75*
G03*
X142411193Y-112846399I2599999J0D01*
G01*
X144632795Y-112814183D02*
G75*
G03*
X145359999Y-112289999I-1122795J2324183D01*
G01*
X142411193Y-108133600D02*
G75*
G03*
X140910000Y-110490000I1098807J-2356400D01*
G01*
X145359999Y-108690001D02*
G75*
G03*
X144632795Y-108165817I-1849999J-1799999D01*
G01*
%TO.C,Q3*%
X156790000Y-112290000D02*
X156790000Y-108690000D01*
X152340001Y-110490000D02*
G75*
G03*
X153841193Y-112846399I2599999J0D01*
G01*
X156062795Y-112814183D02*
G75*
G03*
X156789999Y-112289999I-1122795J2324183D01*
G01*
X153841193Y-108133600D02*
G75*
G03*
X152340000Y-110490000I1098807J-2356400D01*
G01*
X156789999Y-108690001D02*
G75*
G03*
X156062795Y-108165817I-1849999J-1799999D01*
G01*
%TO.C,J6*%
X149800000Y-93920000D02*
X151130000Y-93920000D01*
X149800000Y-95250000D02*
X149800000Y-93920000D01*
X149800000Y-96520000D02*
X149800000Y-96580000D01*
X149800000Y-96520000D02*
X152460000Y-96520000D01*
X149800000Y-96580000D02*
X152460000Y-96580000D01*
X152460000Y-96520000D02*
X152460000Y-96580000D01*
%TO.C,Q2*%
X156790000Y-119910000D02*
X156790000Y-116310000D01*
X152340001Y-118110000D02*
G75*
G03*
X153841193Y-120466399I2599999J0D01*
G01*
X156062795Y-120434183D02*
G75*
G03*
X156789999Y-119909999I-1122795J2324183D01*
G01*
X153841193Y-115753600D02*
G75*
G03*
X152340000Y-118110000I1098807J-2356400D01*
G01*
X156789999Y-116310001D02*
G75*
G03*
X156062795Y-115785817I-1849999J-1799999D01*
G01*
%TD*%
M02*
