M48
; DRILL file {KiCad 7.0.8} date Fri 03 Nov 2023 11:40:46 AM PDT
; FORMAT={-:-/ absolute / inch / decimal}
; #@! TF.CreationDate,2023-11-03T11:40:46-07:00
; #@! TF.GenerationSoftware,Kicad,Pcbnew,7.0.8
; #@! TF.FileFunction,Plated,1,2,PTH
FMAT,2
INCH
; #@! TA.AperFunction,Plated,PTH,ViaDrill
T1C0.0157
; #@! TA.AperFunction,Plated,PTH,ComponentDrill
T2C0.0276
; #@! TA.AperFunction,Plated,PTH,ComponentDrill
T3C0.0315
; #@! TA.AperFunction,Plated,PTH,ComponentDrill
T4C0.0354
; #@! TA.AperFunction,Plated,PTH,ComponentDrill
T5C0.0394
%
G90
G05
T1
X5.825Y-4.65
X5.9Y-4.575
T2
X5.5Y-3.75
X5.5Y-4.05
X5.5Y-4.35
X5.5Y-4.65
X5.8Y-4.25
X5.8Y-4.55
X5.8Y-4.95
X5.95Y-4.25
X5.95Y-4.55
X6.1Y-4.95
X6.25Y-3.75
X6.25Y-4.05
X6.25Y-4.35
X6.25Y-4.65
T3
X5.65Y-3.95
X5.65Y-4.05
X5.65Y-4.15
X5.65Y-4.25
X5.65Y-4.35
X5.65Y-4.45
X5.65Y-4.55
X5.65Y-4.65
X5.65Y-4.75
X6.1Y-3.95
X6.1Y-4.05
X6.1Y-4.15
X6.1Y-4.25
X6.1Y-4.35
X6.1Y-4.45
X6.1Y-4.55
X6.1Y-4.65
X6.1Y-4.75
T4
X5.6Y-4.95
X5.7Y-4.95
T5
X5.45Y-4.95
X5.65Y-3.75
X5.95Y-3.75
X6.1Y-3.75
X6.4Y-4.15
X6.4Y-4.35
X6.4Y-4.9
T0
M30
