M48
; DRILL file {KiCad 7.0.8} date Sat 14 Oct 2023 02:00:02 PM PDT
; FORMAT={-:-/ absolute / inch / decimal}
; #@! TF.CreationDate,2023-10-14T14:00:02-07:00
; #@! TF.GenerationSoftware,Kicad,Pcbnew,7.0.8
; #@! TF.FileFunction,Plated,1,2,PTH
FMAT,2
INCH
; #@! TA.AperFunction,Plated,PTH,ComponentDrill
T1C0.0276
; #@! TA.AperFunction,Plated,PTH,ComponentDrill
T2C0.0295
; #@! TA.AperFunction,Plated,PTH,ComponentDrill
T3C0.0354
; #@! TA.AperFunction,Plated,PTH,ComponentDrill
T4C0.0394
%
G90
G05
T1
X1.025Y-2.575
X1.025Y-2.875
X1.225Y-2.575
X1.225Y-2.875
X1.425Y-2.575
X1.425Y-2.875
X1.625Y-2.575
X1.625Y-2.875
T2
X1.3748Y-1.125
X1.3748Y-1.425
X1.3748Y-1.725
X1.375Y-1.275
X1.375Y-1.575
X1.375Y-1.875
X1.375Y-2.025
X1.375Y-2.175
X1.375Y-2.325
X1.6748Y-1.125
X1.6748Y-1.425
X1.6748Y-1.725
X1.675Y-1.275
X1.675Y-1.575
X1.675Y-1.875
X1.675Y-2.025
X1.675Y-2.175
X1.675Y-2.325
X1.7748Y-1.125
X1.775Y-1.275
X1.775Y-1.425
X1.775Y-1.575
X1.775Y-1.725
X1.775Y-1.875
X1.775Y-2.025
X1.775Y-2.175
X1.775Y-2.325
X1.775Y-2.475
X1.775Y-2.625
X1.775Y-2.775
X1.775Y-2.925
X2.0748Y-1.125
X2.075Y-1.275
X2.075Y-1.425
X2.075Y-1.575
X2.075Y-1.725
X2.075Y-1.875
X2.075Y-2.025
X2.075Y-2.175
X2.075Y-2.325
X2.075Y-2.475
X2.075Y-2.625
X2.075Y-2.775
X2.075Y-2.925
T3
X1.025Y-2.975
X1.025Y-3.075
X1.225Y-2.975
X1.225Y-3.075
X1.425Y-2.975
X1.425Y-3.075
X1.625Y-2.975
X1.625Y-3.075
T4
X1.175Y-1.125
X1.175Y-1.325
X1.175Y-1.525
X1.175Y-1.725
X2.225Y-1.125
X2.225Y-1.275
X2.225Y-1.425
X2.225Y-1.575
X2.225Y-1.725
X2.225Y-1.875
X2.225Y-2.025
X2.225Y-2.175
X2.225Y-2.325
X2.225Y-2.475
X2.225Y-2.625
X2.225Y-2.775
X2.225Y-2.925
X2.225Y-3.075
T0
M30
