%TF.GenerationSoftware,KiCad,Pcbnew,7.0.8*%
%TF.CreationDate,2023-11-03T11:37:24-07:00*%
%TF.ProjectId,adder,61646465-722e-46b6-9963-61645f706362,rev?*%
%TF.SameCoordinates,Original*%
%TF.FileFunction,Legend,Top*%
%TF.FilePolarity,Positive*%
%FSLAX46Y46*%
G04 Gerber Fmt 4.6, Leading zero omitted, Abs format (unit mm)*
G04 Created by KiCad (PCBNEW 7.0.8) date 2023-11-03 11:37:24*
%MOMM*%
%LPD*%
G01*
G04 APERTURE LIST*
%ADD10C,0.150000*%
%ADD11C,0.120000*%
G04 APERTURE END LIST*
D10*
X159385000Y-100965000D02*
X173990000Y-100965000D01*
X173990000Y-117475000D01*
X159385000Y-117475000D01*
X159385000Y-100965000D01*
X173990000Y-98425000D02*
X191770000Y-98425000D01*
X191770000Y-117475000D01*
X173990000Y-117475000D01*
X173990000Y-98425000D01*
X159385000Y-83820000D02*
X173990000Y-83820000D01*
X173990000Y-100965000D01*
X159385000Y-100965000D01*
X159385000Y-83820000D01*
X173990000Y-83820000D02*
X207645000Y-83820000D01*
X207645000Y-98425000D01*
X173990000Y-98425000D01*
X173990000Y-83820000D01*
X144145000Y-100965000D02*
X159385000Y-100965000D01*
X159385000Y-117475000D01*
X144145000Y-117475000D01*
X144145000Y-100965000D01*
X191770000Y-98425000D02*
X207645000Y-98425000D01*
X207645000Y-117475000D01*
X191770000Y-117475000D01*
X191770000Y-98425000D01*
X184486779Y-97659819D02*
X184486779Y-96659819D01*
X184486779Y-96659819D02*
X184820112Y-97374104D01*
X184820112Y-97374104D02*
X185153445Y-96659819D01*
X185153445Y-96659819D02*
X185153445Y-97659819D01*
X185629636Y-96659819D02*
X185629636Y-97469342D01*
X185629636Y-97469342D02*
X185677255Y-97564580D01*
X185677255Y-97564580D02*
X185724874Y-97612200D01*
X185724874Y-97612200D02*
X185820112Y-97659819D01*
X185820112Y-97659819D02*
X186010588Y-97659819D01*
X186010588Y-97659819D02*
X186105826Y-97612200D01*
X186105826Y-97612200D02*
X186153445Y-97564580D01*
X186153445Y-97564580D02*
X186201064Y-97469342D01*
X186201064Y-97469342D02*
X186201064Y-96659819D01*
X186582017Y-96659819D02*
X187248683Y-97659819D01*
X187248683Y-96659819D02*
X186582017Y-97659819D01*
X164706541Y-115709819D02*
X165373207Y-116709819D01*
X165373207Y-115709819D02*
X164706541Y-116709819D01*
X165754160Y-116709819D02*
X165754160Y-115709819D01*
X165754160Y-115709819D02*
X166325588Y-116709819D01*
X166325588Y-116709819D02*
X166325588Y-115709819D01*
X166992255Y-115709819D02*
X167182731Y-115709819D01*
X167182731Y-115709819D02*
X167277969Y-115757438D01*
X167277969Y-115757438D02*
X167373207Y-115852676D01*
X167373207Y-115852676D02*
X167420826Y-116043152D01*
X167420826Y-116043152D02*
X167420826Y-116376485D01*
X167420826Y-116376485D02*
X167373207Y-116566961D01*
X167373207Y-116566961D02*
X167277969Y-116662200D01*
X167277969Y-116662200D02*
X167182731Y-116709819D01*
X167182731Y-116709819D02*
X166992255Y-116709819D01*
X166992255Y-116709819D02*
X166897017Y-116662200D01*
X166897017Y-116662200D02*
X166801779Y-116566961D01*
X166801779Y-116566961D02*
X166754160Y-116376485D01*
X166754160Y-116376485D02*
X166754160Y-116043152D01*
X166754160Y-116043152D02*
X166801779Y-115852676D01*
X166801779Y-115852676D02*
X166897017Y-115757438D01*
X166897017Y-115757438D02*
X166992255Y-115709819D01*
X168420826Y-116709819D02*
X168087493Y-116233628D01*
X167849398Y-116709819D02*
X167849398Y-115709819D01*
X167849398Y-115709819D02*
X168230350Y-115709819D01*
X168230350Y-115709819D02*
X168325588Y-115757438D01*
X168325588Y-115757438D02*
X168373207Y-115805057D01*
X168373207Y-115805057D02*
X168420826Y-115900295D01*
X168420826Y-115900295D02*
X168420826Y-116043152D01*
X168420826Y-116043152D02*
X168373207Y-116138390D01*
X168373207Y-116138390D02*
X168325588Y-116186009D01*
X168325588Y-116186009D02*
X168230350Y-116233628D01*
X168230350Y-116233628D02*
X167849398Y-116233628D01*
X197821779Y-116709819D02*
X197821779Y-115709819D01*
X197821779Y-115709819D02*
X198393207Y-116709819D01*
X198393207Y-116709819D02*
X198393207Y-115709819D01*
X199059874Y-115709819D02*
X199250350Y-115709819D01*
X199250350Y-115709819D02*
X199345588Y-115757438D01*
X199345588Y-115757438D02*
X199440826Y-115852676D01*
X199440826Y-115852676D02*
X199488445Y-116043152D01*
X199488445Y-116043152D02*
X199488445Y-116376485D01*
X199488445Y-116376485D02*
X199440826Y-116566961D01*
X199440826Y-116566961D02*
X199345588Y-116662200D01*
X199345588Y-116662200D02*
X199250350Y-116709819D01*
X199250350Y-116709819D02*
X199059874Y-116709819D01*
X199059874Y-116709819D02*
X198964636Y-116662200D01*
X198964636Y-116662200D02*
X198869398Y-116566961D01*
X198869398Y-116566961D02*
X198821779Y-116376485D01*
X198821779Y-116376485D02*
X198821779Y-116043152D01*
X198821779Y-116043152D02*
X198869398Y-115852676D01*
X198869398Y-115852676D02*
X198964636Y-115757438D01*
X198964636Y-115757438D02*
X199059874Y-115709819D01*
X200488445Y-116709819D02*
X200155112Y-116233628D01*
X199917017Y-116709819D02*
X199917017Y-115709819D01*
X199917017Y-115709819D02*
X200297969Y-115709819D01*
X200297969Y-115709819D02*
X200393207Y-115757438D01*
X200393207Y-115757438D02*
X200440826Y-115805057D01*
X200440826Y-115805057D02*
X200488445Y-115900295D01*
X200488445Y-115900295D02*
X200488445Y-116043152D01*
X200488445Y-116043152D02*
X200440826Y-116138390D01*
X200440826Y-116138390D02*
X200393207Y-116186009D01*
X200393207Y-116186009D02*
X200297969Y-116233628D01*
X200297969Y-116233628D02*
X199917017Y-116233628D01*
X178724160Y-99914104D02*
X179200350Y-99914104D01*
X178628922Y-100199819D02*
X178962255Y-99199819D01*
X178962255Y-99199819D02*
X179295588Y-100199819D01*
X179628922Y-100199819D02*
X179628922Y-99199819D01*
X179628922Y-99199819D02*
X180200350Y-100199819D01*
X180200350Y-100199819D02*
X180200350Y-99199819D01*
X180676541Y-100199819D02*
X180676541Y-99199819D01*
X180676541Y-99199819D02*
X180914636Y-99199819D01*
X180914636Y-99199819D02*
X181057493Y-99247438D01*
X181057493Y-99247438D02*
X181152731Y-99342676D01*
X181152731Y-99342676D02*
X181200350Y-99437914D01*
X181200350Y-99437914D02*
X181247969Y-99628390D01*
X181247969Y-99628390D02*
X181247969Y-99771247D01*
X181247969Y-99771247D02*
X181200350Y-99961723D01*
X181200350Y-99961723D02*
X181152731Y-100056961D01*
X181152731Y-100056961D02*
X181057493Y-100152200D01*
X181057493Y-100152200D02*
X180914636Y-100199819D01*
X180914636Y-100199819D02*
X180676541Y-100199819D01*
X182628922Y-99199819D02*
X182819398Y-99199819D01*
X182819398Y-99199819D02*
X182914636Y-99247438D01*
X182914636Y-99247438D02*
X183009874Y-99342676D01*
X183009874Y-99342676D02*
X183057493Y-99533152D01*
X183057493Y-99533152D02*
X183057493Y-99866485D01*
X183057493Y-99866485D02*
X183009874Y-100056961D01*
X183009874Y-100056961D02*
X182914636Y-100152200D01*
X182914636Y-100152200D02*
X182819398Y-100199819D01*
X182819398Y-100199819D02*
X182628922Y-100199819D01*
X182628922Y-100199819D02*
X182533684Y-100152200D01*
X182533684Y-100152200D02*
X182438446Y-100056961D01*
X182438446Y-100056961D02*
X182390827Y-99866485D01*
X182390827Y-99866485D02*
X182390827Y-99533152D01*
X182390827Y-99533152D02*
X182438446Y-99342676D01*
X182438446Y-99342676D02*
X182533684Y-99247438D01*
X182533684Y-99247438D02*
X182628922Y-99199819D01*
X184057493Y-100199819D02*
X183724160Y-99723628D01*
X183486065Y-100199819D02*
X183486065Y-99199819D01*
X183486065Y-99199819D02*
X183867017Y-99199819D01*
X183867017Y-99199819D02*
X183962255Y-99247438D01*
X183962255Y-99247438D02*
X184009874Y-99295057D01*
X184009874Y-99295057D02*
X184057493Y-99390295D01*
X184057493Y-99390295D02*
X184057493Y-99533152D01*
X184057493Y-99533152D02*
X184009874Y-99628390D01*
X184009874Y-99628390D02*
X183962255Y-99676009D01*
X183962255Y-99676009D02*
X183867017Y-99723628D01*
X183867017Y-99723628D02*
X183486065Y-99723628D01*
X185200351Y-99914104D02*
X185676541Y-99914104D01*
X185105113Y-100199819D02*
X185438446Y-99199819D01*
X185438446Y-99199819D02*
X185771779Y-100199819D01*
X186105113Y-100199819D02*
X186105113Y-99199819D01*
X186105113Y-99199819D02*
X186676541Y-100199819D01*
X186676541Y-100199819D02*
X186676541Y-99199819D01*
X187152732Y-100199819D02*
X187152732Y-99199819D01*
X187152732Y-99199819D02*
X187390827Y-99199819D01*
X187390827Y-99199819D02*
X187533684Y-99247438D01*
X187533684Y-99247438D02*
X187628922Y-99342676D01*
X187628922Y-99342676D02*
X187676541Y-99437914D01*
X187676541Y-99437914D02*
X187724160Y-99628390D01*
X187724160Y-99628390D02*
X187724160Y-99771247D01*
X187724160Y-99771247D02*
X187676541Y-99961723D01*
X187676541Y-99961723D02*
X187628922Y-100056961D01*
X187628922Y-100056961D02*
X187533684Y-100152200D01*
X187533684Y-100152200D02*
X187390827Y-100199819D01*
X187390827Y-100199819D02*
X187152732Y-100199819D01*
X149466541Y-115709819D02*
X150133207Y-116709819D01*
X150133207Y-115709819D02*
X149466541Y-116709819D01*
X150514160Y-116709819D02*
X150514160Y-115709819D01*
X150514160Y-115709819D02*
X151085588Y-116709819D01*
X151085588Y-116709819D02*
X151085588Y-115709819D01*
X151752255Y-115709819D02*
X151942731Y-115709819D01*
X151942731Y-115709819D02*
X152037969Y-115757438D01*
X152037969Y-115757438D02*
X152133207Y-115852676D01*
X152133207Y-115852676D02*
X152180826Y-116043152D01*
X152180826Y-116043152D02*
X152180826Y-116376485D01*
X152180826Y-116376485D02*
X152133207Y-116566961D01*
X152133207Y-116566961D02*
X152037969Y-116662200D01*
X152037969Y-116662200D02*
X151942731Y-116709819D01*
X151942731Y-116709819D02*
X151752255Y-116709819D01*
X151752255Y-116709819D02*
X151657017Y-116662200D01*
X151657017Y-116662200D02*
X151561779Y-116566961D01*
X151561779Y-116566961D02*
X151514160Y-116376485D01*
X151514160Y-116376485D02*
X151514160Y-116043152D01*
X151514160Y-116043152D02*
X151561779Y-115852676D01*
X151561779Y-115852676D02*
X151657017Y-115757438D01*
X151657017Y-115757438D02*
X151752255Y-115709819D01*
X153180826Y-116709819D02*
X152847493Y-116233628D01*
X152609398Y-116709819D02*
X152609398Y-115709819D01*
X152609398Y-115709819D02*
X152990350Y-115709819D01*
X152990350Y-115709819D02*
X153085588Y-115757438D01*
X153085588Y-115757438D02*
X153133207Y-115805057D01*
X153133207Y-115805057D02*
X153180826Y-115900295D01*
X153180826Y-115900295D02*
X153180826Y-116043152D01*
X153180826Y-116043152D02*
X153133207Y-116138390D01*
X153133207Y-116138390D02*
X153085588Y-116186009D01*
X153085588Y-116186009D02*
X152990350Y-116233628D01*
X152990350Y-116233628D02*
X152609398Y-116233628D01*
X160356779Y-89404819D02*
X160356779Y-88404819D01*
X160356779Y-88404819D02*
X160737731Y-88404819D01*
X160737731Y-88404819D02*
X160832969Y-88452438D01*
X160832969Y-88452438D02*
X160880588Y-88500057D01*
X160880588Y-88500057D02*
X160928207Y-88595295D01*
X160928207Y-88595295D02*
X160928207Y-88738152D01*
X160928207Y-88738152D02*
X160880588Y-88833390D01*
X160880588Y-88833390D02*
X160832969Y-88881009D01*
X160832969Y-88881009D02*
X160737731Y-88928628D01*
X160737731Y-88928628D02*
X160356779Y-88928628D01*
X161785350Y-89404819D02*
X161785350Y-88881009D01*
X161785350Y-88881009D02*
X161737731Y-88785771D01*
X161737731Y-88785771D02*
X161642493Y-88738152D01*
X161642493Y-88738152D02*
X161452017Y-88738152D01*
X161452017Y-88738152D02*
X161356779Y-88785771D01*
X161785350Y-89357200D02*
X161690112Y-89404819D01*
X161690112Y-89404819D02*
X161452017Y-89404819D01*
X161452017Y-89404819D02*
X161356779Y-89357200D01*
X161356779Y-89357200D02*
X161309160Y-89261961D01*
X161309160Y-89261961D02*
X161309160Y-89166723D01*
X161309160Y-89166723D02*
X161356779Y-89071485D01*
X161356779Y-89071485D02*
X161452017Y-89023866D01*
X161452017Y-89023866D02*
X161690112Y-89023866D01*
X161690112Y-89023866D02*
X161785350Y-88976247D01*
X162213922Y-89357200D02*
X162309160Y-89404819D01*
X162309160Y-89404819D02*
X162499636Y-89404819D01*
X162499636Y-89404819D02*
X162594874Y-89357200D01*
X162594874Y-89357200D02*
X162642493Y-89261961D01*
X162642493Y-89261961D02*
X162642493Y-89214342D01*
X162642493Y-89214342D02*
X162594874Y-89119104D01*
X162594874Y-89119104D02*
X162499636Y-89071485D01*
X162499636Y-89071485D02*
X162356779Y-89071485D01*
X162356779Y-89071485D02*
X162261541Y-89023866D01*
X162261541Y-89023866D02*
X162213922Y-88928628D01*
X162213922Y-88928628D02*
X162213922Y-88881009D01*
X162213922Y-88881009D02*
X162261541Y-88785771D01*
X162261541Y-88785771D02*
X162356779Y-88738152D01*
X162356779Y-88738152D02*
X162499636Y-88738152D01*
X162499636Y-88738152D02*
X162594874Y-88785771D01*
X163023446Y-89357200D02*
X163118684Y-89404819D01*
X163118684Y-89404819D02*
X163309160Y-89404819D01*
X163309160Y-89404819D02*
X163404398Y-89357200D01*
X163404398Y-89357200D02*
X163452017Y-89261961D01*
X163452017Y-89261961D02*
X163452017Y-89214342D01*
X163452017Y-89214342D02*
X163404398Y-89119104D01*
X163404398Y-89119104D02*
X163309160Y-89071485D01*
X163309160Y-89071485D02*
X163166303Y-89071485D01*
X163166303Y-89071485D02*
X163071065Y-89023866D01*
X163071065Y-89023866D02*
X163023446Y-88928628D01*
X163023446Y-88928628D02*
X163023446Y-88881009D01*
X163023446Y-88881009D02*
X163071065Y-88785771D01*
X163071065Y-88785771D02*
X163166303Y-88738152D01*
X163166303Y-88738152D02*
X163309160Y-88738152D01*
X163309160Y-88738152D02*
X163404398Y-88785771D01*
X164499637Y-88738152D02*
X164880589Y-88738152D01*
X164642494Y-88404819D02*
X164642494Y-89261961D01*
X164642494Y-89261961D02*
X164690113Y-89357200D01*
X164690113Y-89357200D02*
X164785351Y-89404819D01*
X164785351Y-89404819D02*
X164880589Y-89404819D01*
X165213923Y-89404819D02*
X165213923Y-88738152D01*
X165213923Y-88928628D02*
X165261542Y-88833390D01*
X165261542Y-88833390D02*
X165309161Y-88785771D01*
X165309161Y-88785771D02*
X165404399Y-88738152D01*
X165404399Y-88738152D02*
X165499637Y-88738152D01*
X166261542Y-89404819D02*
X166261542Y-88881009D01*
X166261542Y-88881009D02*
X166213923Y-88785771D01*
X166213923Y-88785771D02*
X166118685Y-88738152D01*
X166118685Y-88738152D02*
X165928209Y-88738152D01*
X165928209Y-88738152D02*
X165832971Y-88785771D01*
X166261542Y-89357200D02*
X166166304Y-89404819D01*
X166166304Y-89404819D02*
X165928209Y-89404819D01*
X165928209Y-89404819D02*
X165832971Y-89357200D01*
X165832971Y-89357200D02*
X165785352Y-89261961D01*
X165785352Y-89261961D02*
X165785352Y-89166723D01*
X165785352Y-89166723D02*
X165832971Y-89071485D01*
X165832971Y-89071485D02*
X165928209Y-89023866D01*
X165928209Y-89023866D02*
X166166304Y-89023866D01*
X166166304Y-89023866D02*
X166261542Y-88976247D01*
X166737733Y-88738152D02*
X166737733Y-89404819D01*
X166737733Y-88833390D02*
X166785352Y-88785771D01*
X166785352Y-88785771D02*
X166880590Y-88738152D01*
X166880590Y-88738152D02*
X167023447Y-88738152D01*
X167023447Y-88738152D02*
X167118685Y-88785771D01*
X167118685Y-88785771D02*
X167166304Y-88881009D01*
X167166304Y-88881009D02*
X167166304Y-89404819D01*
X167594876Y-89357200D02*
X167690114Y-89404819D01*
X167690114Y-89404819D02*
X167880590Y-89404819D01*
X167880590Y-89404819D02*
X167975828Y-89357200D01*
X167975828Y-89357200D02*
X168023447Y-89261961D01*
X168023447Y-89261961D02*
X168023447Y-89214342D01*
X168023447Y-89214342D02*
X167975828Y-89119104D01*
X167975828Y-89119104D02*
X167880590Y-89071485D01*
X167880590Y-89071485D02*
X167737733Y-89071485D01*
X167737733Y-89071485D02*
X167642495Y-89023866D01*
X167642495Y-89023866D02*
X167594876Y-88928628D01*
X167594876Y-88928628D02*
X167594876Y-88881009D01*
X167594876Y-88881009D02*
X167642495Y-88785771D01*
X167642495Y-88785771D02*
X167737733Y-88738152D01*
X167737733Y-88738152D02*
X167880590Y-88738152D01*
X167880590Y-88738152D02*
X167975828Y-88785771D01*
X168452019Y-89404819D02*
X168452019Y-88738152D01*
X168452019Y-88404819D02*
X168404400Y-88452438D01*
X168404400Y-88452438D02*
X168452019Y-88500057D01*
X168452019Y-88500057D02*
X168499638Y-88452438D01*
X168499638Y-88452438D02*
X168452019Y-88404819D01*
X168452019Y-88404819D02*
X168452019Y-88500057D01*
X168880590Y-89357200D02*
X168975828Y-89404819D01*
X168975828Y-89404819D02*
X169166304Y-89404819D01*
X169166304Y-89404819D02*
X169261542Y-89357200D01*
X169261542Y-89357200D02*
X169309161Y-89261961D01*
X169309161Y-89261961D02*
X169309161Y-89214342D01*
X169309161Y-89214342D02*
X169261542Y-89119104D01*
X169261542Y-89119104D02*
X169166304Y-89071485D01*
X169166304Y-89071485D02*
X169023447Y-89071485D01*
X169023447Y-89071485D02*
X168928209Y-89023866D01*
X168928209Y-89023866D02*
X168880590Y-88928628D01*
X168880590Y-88928628D02*
X168880590Y-88881009D01*
X168880590Y-88881009D02*
X168928209Y-88785771D01*
X168928209Y-88785771D02*
X169023447Y-88738152D01*
X169023447Y-88738152D02*
X169166304Y-88738152D01*
X169166304Y-88738152D02*
X169261542Y-88785771D01*
X169594876Y-88738152D02*
X169975828Y-88738152D01*
X169737733Y-88404819D02*
X169737733Y-89261961D01*
X169737733Y-89261961D02*
X169785352Y-89357200D01*
X169785352Y-89357200D02*
X169880590Y-89404819D01*
X169880590Y-89404819D02*
X169975828Y-89404819D01*
X170452019Y-89404819D02*
X170356781Y-89357200D01*
X170356781Y-89357200D02*
X170309162Y-89309580D01*
X170309162Y-89309580D02*
X170261543Y-89214342D01*
X170261543Y-89214342D02*
X170261543Y-88928628D01*
X170261543Y-88928628D02*
X170309162Y-88833390D01*
X170309162Y-88833390D02*
X170356781Y-88785771D01*
X170356781Y-88785771D02*
X170452019Y-88738152D01*
X170452019Y-88738152D02*
X170594876Y-88738152D01*
X170594876Y-88738152D02*
X170690114Y-88785771D01*
X170690114Y-88785771D02*
X170737733Y-88833390D01*
X170737733Y-88833390D02*
X170785352Y-88928628D01*
X170785352Y-88928628D02*
X170785352Y-89214342D01*
X170785352Y-89214342D02*
X170737733Y-89309580D01*
X170737733Y-89309580D02*
X170690114Y-89357200D01*
X170690114Y-89357200D02*
X170594876Y-89404819D01*
X170594876Y-89404819D02*
X170452019Y-89404819D01*
X171213924Y-89404819D02*
X171213924Y-88738152D01*
X171213924Y-88928628D02*
X171261543Y-88833390D01*
X171261543Y-88833390D02*
X171309162Y-88785771D01*
X171309162Y-88785771D02*
X171404400Y-88738152D01*
X171404400Y-88738152D02*
X171499638Y-88738152D01*
X178831905Y-123149104D02*
X179308095Y-123149104D01*
X178736667Y-123434819D02*
X179070000Y-122434819D01*
X179070000Y-122434819D02*
X179403333Y-123434819D01*
X207479819Y-91495476D02*
X207479819Y-92066904D01*
X207479819Y-91781190D02*
X206479819Y-91781190D01*
X206479819Y-91781190D02*
X206622676Y-91876428D01*
X206622676Y-91876428D02*
X206717914Y-91971666D01*
X206717914Y-91971666D02*
X206765533Y-92066904D01*
X206479819Y-90876428D02*
X206479819Y-90781190D01*
X206479819Y-90781190D02*
X206527438Y-90685952D01*
X206527438Y-90685952D02*
X206575057Y-90638333D01*
X206575057Y-90638333D02*
X206670295Y-90590714D01*
X206670295Y-90590714D02*
X206860771Y-90543095D01*
X206860771Y-90543095D02*
X207098866Y-90543095D01*
X207098866Y-90543095D02*
X207289342Y-90590714D01*
X207289342Y-90590714D02*
X207384580Y-90638333D01*
X207384580Y-90638333D02*
X207432200Y-90685952D01*
X207432200Y-90685952D02*
X207479819Y-90781190D01*
X207479819Y-90781190D02*
X207479819Y-90876428D01*
X207479819Y-90876428D02*
X207432200Y-90971666D01*
X207432200Y-90971666D02*
X207384580Y-91019285D01*
X207384580Y-91019285D02*
X207289342Y-91066904D01*
X207289342Y-91066904D02*
X207098866Y-91114523D01*
X207098866Y-91114523D02*
X206860771Y-91114523D01*
X206860771Y-91114523D02*
X206670295Y-91066904D01*
X206670295Y-91066904D02*
X206575057Y-91019285D01*
X206575057Y-91019285D02*
X206527438Y-90971666D01*
X206527438Y-90971666D02*
X206479819Y-90876428D01*
X207479819Y-90114523D02*
X206479819Y-90114523D01*
X207479819Y-89543095D02*
X206908390Y-89971666D01*
X206479819Y-89543095D02*
X207051247Y-90114523D01*
X190319819Y-108640476D02*
X190319819Y-109211904D01*
X190319819Y-108926190D02*
X189319819Y-108926190D01*
X189319819Y-108926190D02*
X189462676Y-109021428D01*
X189462676Y-109021428D02*
X189557914Y-109116666D01*
X189557914Y-109116666D02*
X189605533Y-109211904D01*
X189319819Y-108021428D02*
X189319819Y-107926190D01*
X189319819Y-107926190D02*
X189367438Y-107830952D01*
X189367438Y-107830952D02*
X189415057Y-107783333D01*
X189415057Y-107783333D02*
X189510295Y-107735714D01*
X189510295Y-107735714D02*
X189700771Y-107688095D01*
X189700771Y-107688095D02*
X189938866Y-107688095D01*
X189938866Y-107688095D02*
X190129342Y-107735714D01*
X190129342Y-107735714D02*
X190224580Y-107783333D01*
X190224580Y-107783333D02*
X190272200Y-107830952D01*
X190272200Y-107830952D02*
X190319819Y-107926190D01*
X190319819Y-107926190D02*
X190319819Y-108021428D01*
X190319819Y-108021428D02*
X190272200Y-108116666D01*
X190272200Y-108116666D02*
X190224580Y-108164285D01*
X190224580Y-108164285D02*
X190129342Y-108211904D01*
X190129342Y-108211904D02*
X189938866Y-108259523D01*
X189938866Y-108259523D02*
X189700771Y-108259523D01*
X189700771Y-108259523D02*
X189510295Y-108211904D01*
X189510295Y-108211904D02*
X189415057Y-108164285D01*
X189415057Y-108164285D02*
X189367438Y-108116666D01*
X189367438Y-108116666D02*
X189319819Y-108021428D01*
X190319819Y-107259523D02*
X189319819Y-107259523D01*
X190319819Y-106688095D02*
X189748390Y-107116666D01*
X189319819Y-106688095D02*
X189891247Y-107259523D01*
X185874819Y-90225476D02*
X185874819Y-90796904D01*
X185874819Y-90511190D02*
X184874819Y-90511190D01*
X184874819Y-90511190D02*
X185017676Y-90606428D01*
X185017676Y-90606428D02*
X185112914Y-90701666D01*
X185112914Y-90701666D02*
X185160533Y-90796904D01*
X184874819Y-89606428D02*
X184874819Y-89511190D01*
X184874819Y-89511190D02*
X184922438Y-89415952D01*
X184922438Y-89415952D02*
X184970057Y-89368333D01*
X184970057Y-89368333D02*
X185065295Y-89320714D01*
X185065295Y-89320714D02*
X185255771Y-89273095D01*
X185255771Y-89273095D02*
X185493866Y-89273095D01*
X185493866Y-89273095D02*
X185684342Y-89320714D01*
X185684342Y-89320714D02*
X185779580Y-89368333D01*
X185779580Y-89368333D02*
X185827200Y-89415952D01*
X185827200Y-89415952D02*
X185874819Y-89511190D01*
X185874819Y-89511190D02*
X185874819Y-89606428D01*
X185874819Y-89606428D02*
X185827200Y-89701666D01*
X185827200Y-89701666D02*
X185779580Y-89749285D01*
X185779580Y-89749285D02*
X185684342Y-89796904D01*
X185684342Y-89796904D02*
X185493866Y-89844523D01*
X185493866Y-89844523D02*
X185255771Y-89844523D01*
X185255771Y-89844523D02*
X185065295Y-89796904D01*
X185065295Y-89796904D02*
X184970057Y-89749285D01*
X184970057Y-89749285D02*
X184922438Y-89701666D01*
X184922438Y-89701666D02*
X184874819Y-89606428D01*
X185874819Y-88844523D02*
X184874819Y-88844523D01*
X185874819Y-88273095D02*
X185303390Y-88701666D01*
X184874819Y-88273095D02*
X185446247Y-88844523D01*
X161109819Y-115625476D02*
X161109819Y-116196904D01*
X161109819Y-115911190D02*
X160109819Y-115911190D01*
X160109819Y-115911190D02*
X160252676Y-116006428D01*
X160252676Y-116006428D02*
X160347914Y-116101666D01*
X160347914Y-116101666D02*
X160395533Y-116196904D01*
X160109819Y-115006428D02*
X160109819Y-114911190D01*
X160109819Y-114911190D02*
X160157438Y-114815952D01*
X160157438Y-114815952D02*
X160205057Y-114768333D01*
X160205057Y-114768333D02*
X160300295Y-114720714D01*
X160300295Y-114720714D02*
X160490771Y-114673095D01*
X160490771Y-114673095D02*
X160728866Y-114673095D01*
X160728866Y-114673095D02*
X160919342Y-114720714D01*
X160919342Y-114720714D02*
X161014580Y-114768333D01*
X161014580Y-114768333D02*
X161062200Y-114815952D01*
X161062200Y-114815952D02*
X161109819Y-114911190D01*
X161109819Y-114911190D02*
X161109819Y-115006428D01*
X161109819Y-115006428D02*
X161062200Y-115101666D01*
X161062200Y-115101666D02*
X161014580Y-115149285D01*
X161014580Y-115149285D02*
X160919342Y-115196904D01*
X160919342Y-115196904D02*
X160728866Y-115244523D01*
X160728866Y-115244523D02*
X160490771Y-115244523D01*
X160490771Y-115244523D02*
X160300295Y-115196904D01*
X160300295Y-115196904D02*
X160205057Y-115149285D01*
X160205057Y-115149285D02*
X160157438Y-115101666D01*
X160157438Y-115101666D02*
X160109819Y-115006428D01*
X161109819Y-114244523D02*
X160109819Y-114244523D01*
X161109819Y-113673095D02*
X160538390Y-114101666D01*
X160109819Y-113673095D02*
X160681247Y-114244523D01*
X171254819Y-92765476D02*
X171254819Y-93336904D01*
X171254819Y-93051190D02*
X170254819Y-93051190D01*
X170254819Y-93051190D02*
X170397676Y-93146428D01*
X170397676Y-93146428D02*
X170492914Y-93241666D01*
X170492914Y-93241666D02*
X170540533Y-93336904D01*
X170254819Y-92146428D02*
X170254819Y-92051190D01*
X170254819Y-92051190D02*
X170302438Y-91955952D01*
X170302438Y-91955952D02*
X170350057Y-91908333D01*
X170350057Y-91908333D02*
X170445295Y-91860714D01*
X170445295Y-91860714D02*
X170635771Y-91813095D01*
X170635771Y-91813095D02*
X170873866Y-91813095D01*
X170873866Y-91813095D02*
X171064342Y-91860714D01*
X171064342Y-91860714D02*
X171159580Y-91908333D01*
X171159580Y-91908333D02*
X171207200Y-91955952D01*
X171207200Y-91955952D02*
X171254819Y-92051190D01*
X171254819Y-92051190D02*
X171254819Y-92146428D01*
X171254819Y-92146428D02*
X171207200Y-92241666D01*
X171207200Y-92241666D02*
X171159580Y-92289285D01*
X171159580Y-92289285D02*
X171064342Y-92336904D01*
X171064342Y-92336904D02*
X170873866Y-92384523D01*
X170873866Y-92384523D02*
X170635771Y-92384523D01*
X170635771Y-92384523D02*
X170445295Y-92336904D01*
X170445295Y-92336904D02*
X170350057Y-92289285D01*
X170350057Y-92289285D02*
X170302438Y-92241666D01*
X170302438Y-92241666D02*
X170254819Y-92146428D01*
X171254819Y-91384523D02*
X170254819Y-91384523D01*
X171254819Y-90813095D02*
X170683390Y-91241666D01*
X170254819Y-90813095D02*
X170826247Y-91384523D01*
X161099523Y-86874819D02*
X160623333Y-86874819D01*
X160623333Y-86874819D02*
X160575714Y-87351009D01*
X160575714Y-87351009D02*
X160623333Y-87303390D01*
X160623333Y-87303390D02*
X160718571Y-87255771D01*
X160718571Y-87255771D02*
X160956666Y-87255771D01*
X160956666Y-87255771D02*
X161051904Y-87303390D01*
X161051904Y-87303390D02*
X161099523Y-87351009D01*
X161099523Y-87351009D02*
X161147142Y-87446247D01*
X161147142Y-87446247D02*
X161147142Y-87684342D01*
X161147142Y-87684342D02*
X161099523Y-87779580D01*
X161099523Y-87779580D02*
X161051904Y-87827200D01*
X161051904Y-87827200D02*
X160956666Y-87874819D01*
X160956666Y-87874819D02*
X160718571Y-87874819D01*
X160718571Y-87874819D02*
X160623333Y-87827200D01*
X160623333Y-87827200D02*
X160575714Y-87779580D01*
X161432857Y-86874819D02*
X161766190Y-87874819D01*
X161766190Y-87874819D02*
X162099523Y-86874819D01*
X132326428Y-98149580D02*
X132278809Y-98197200D01*
X132278809Y-98197200D02*
X132135952Y-98244819D01*
X132135952Y-98244819D02*
X132040714Y-98244819D01*
X132040714Y-98244819D02*
X131897857Y-98197200D01*
X131897857Y-98197200D02*
X131802619Y-98101961D01*
X131802619Y-98101961D02*
X131755000Y-98006723D01*
X131755000Y-98006723D02*
X131707381Y-97816247D01*
X131707381Y-97816247D02*
X131707381Y-97673390D01*
X131707381Y-97673390D02*
X131755000Y-97482914D01*
X131755000Y-97482914D02*
X131802619Y-97387676D01*
X131802619Y-97387676D02*
X131897857Y-97292438D01*
X131897857Y-97292438D02*
X132040714Y-97244819D01*
X132040714Y-97244819D02*
X132135952Y-97244819D01*
X132135952Y-97244819D02*
X132278809Y-97292438D01*
X132278809Y-97292438D02*
X132326428Y-97340057D01*
X132945476Y-97244819D02*
X133135952Y-97244819D01*
X133135952Y-97244819D02*
X133231190Y-97292438D01*
X133231190Y-97292438D02*
X133326428Y-97387676D01*
X133326428Y-97387676D02*
X133374047Y-97578152D01*
X133374047Y-97578152D02*
X133374047Y-97911485D01*
X133374047Y-97911485D02*
X133326428Y-98101961D01*
X133326428Y-98101961D02*
X133231190Y-98197200D01*
X133231190Y-98197200D02*
X133135952Y-98244819D01*
X133135952Y-98244819D02*
X132945476Y-98244819D01*
X132945476Y-98244819D02*
X132850238Y-98197200D01*
X132850238Y-98197200D02*
X132755000Y-98101961D01*
X132755000Y-98101961D02*
X132707381Y-97911485D01*
X132707381Y-97911485D02*
X132707381Y-97578152D01*
X132707381Y-97578152D02*
X132755000Y-97387676D01*
X132755000Y-97387676D02*
X132850238Y-97292438D01*
X132850238Y-97292438D02*
X132945476Y-97244819D01*
X133802619Y-97244819D02*
X133802619Y-98054342D01*
X133802619Y-98054342D02*
X133850238Y-98149580D01*
X133850238Y-98149580D02*
X133897857Y-98197200D01*
X133897857Y-98197200D02*
X133993095Y-98244819D01*
X133993095Y-98244819D02*
X134183571Y-98244819D01*
X134183571Y-98244819D02*
X134278809Y-98197200D01*
X134278809Y-98197200D02*
X134326428Y-98149580D01*
X134326428Y-98149580D02*
X134374047Y-98054342D01*
X134374047Y-98054342D02*
X134374047Y-97244819D01*
X134707381Y-97244819D02*
X135278809Y-97244819D01*
X134993095Y-98244819D02*
X134993095Y-97244819D01*
X135374048Y-98340057D02*
X136135952Y-98340057D01*
X136707381Y-97721009D02*
X136850238Y-97768628D01*
X136850238Y-97768628D02*
X136897857Y-97816247D01*
X136897857Y-97816247D02*
X136945476Y-97911485D01*
X136945476Y-97911485D02*
X136945476Y-98054342D01*
X136945476Y-98054342D02*
X136897857Y-98149580D01*
X136897857Y-98149580D02*
X136850238Y-98197200D01*
X136850238Y-98197200D02*
X136755000Y-98244819D01*
X136755000Y-98244819D02*
X136374048Y-98244819D01*
X136374048Y-98244819D02*
X136374048Y-97244819D01*
X136374048Y-97244819D02*
X136707381Y-97244819D01*
X136707381Y-97244819D02*
X136802619Y-97292438D01*
X136802619Y-97292438D02*
X136850238Y-97340057D01*
X136850238Y-97340057D02*
X136897857Y-97435295D01*
X136897857Y-97435295D02*
X136897857Y-97530533D01*
X136897857Y-97530533D02*
X136850238Y-97625771D01*
X136850238Y-97625771D02*
X136802619Y-97673390D01*
X136802619Y-97673390D02*
X136707381Y-97721009D01*
X136707381Y-97721009D02*
X136374048Y-97721009D01*
X137326429Y-97959104D02*
X137802619Y-97959104D01*
X137231191Y-98244819D02*
X137564524Y-97244819D01*
X137564524Y-97244819D02*
X137897857Y-98244819D01*
X138802619Y-98244819D02*
X138469286Y-97768628D01*
X138231191Y-98244819D02*
X138231191Y-97244819D01*
X138231191Y-97244819D02*
X138612143Y-97244819D01*
X138612143Y-97244819D02*
X138707381Y-97292438D01*
X138707381Y-97292438D02*
X138755000Y-97340057D01*
X138755000Y-97340057D02*
X138802619Y-97435295D01*
X138802619Y-97435295D02*
X138802619Y-97578152D01*
X138802619Y-97578152D02*
X138755000Y-97673390D01*
X138755000Y-97673390D02*
X138707381Y-97721009D01*
X138707381Y-97721009D02*
X138612143Y-97768628D01*
X138612143Y-97768628D02*
X138231191Y-97768628D01*
X176349819Y-111180476D02*
X176349819Y-111751904D01*
X176349819Y-111466190D02*
X175349819Y-111466190D01*
X175349819Y-111466190D02*
X175492676Y-111561428D01*
X175492676Y-111561428D02*
X175587914Y-111656666D01*
X175587914Y-111656666D02*
X175635533Y-111751904D01*
X175349819Y-110561428D02*
X175349819Y-110466190D01*
X175349819Y-110466190D02*
X175397438Y-110370952D01*
X175397438Y-110370952D02*
X175445057Y-110323333D01*
X175445057Y-110323333D02*
X175540295Y-110275714D01*
X175540295Y-110275714D02*
X175730771Y-110228095D01*
X175730771Y-110228095D02*
X175968866Y-110228095D01*
X175968866Y-110228095D02*
X176159342Y-110275714D01*
X176159342Y-110275714D02*
X176254580Y-110323333D01*
X176254580Y-110323333D02*
X176302200Y-110370952D01*
X176302200Y-110370952D02*
X176349819Y-110466190D01*
X176349819Y-110466190D02*
X176349819Y-110561428D01*
X176349819Y-110561428D02*
X176302200Y-110656666D01*
X176302200Y-110656666D02*
X176254580Y-110704285D01*
X176254580Y-110704285D02*
X176159342Y-110751904D01*
X176159342Y-110751904D02*
X175968866Y-110799523D01*
X175968866Y-110799523D02*
X175730771Y-110799523D01*
X175730771Y-110799523D02*
X175540295Y-110751904D01*
X175540295Y-110751904D02*
X175445057Y-110704285D01*
X175445057Y-110704285D02*
X175397438Y-110656666D01*
X175397438Y-110656666D02*
X175349819Y-110561428D01*
X176349819Y-109799523D02*
X175349819Y-109799523D01*
X176349819Y-109228095D02*
X175778390Y-109656666D01*
X175349819Y-109228095D02*
X175921247Y-109799523D01*
X196034819Y-111180476D02*
X196034819Y-111751904D01*
X196034819Y-111466190D02*
X195034819Y-111466190D01*
X195034819Y-111466190D02*
X195177676Y-111561428D01*
X195177676Y-111561428D02*
X195272914Y-111656666D01*
X195272914Y-111656666D02*
X195320533Y-111751904D01*
X195034819Y-110561428D02*
X195034819Y-110466190D01*
X195034819Y-110466190D02*
X195082438Y-110370952D01*
X195082438Y-110370952D02*
X195130057Y-110323333D01*
X195130057Y-110323333D02*
X195225295Y-110275714D01*
X195225295Y-110275714D02*
X195415771Y-110228095D01*
X195415771Y-110228095D02*
X195653866Y-110228095D01*
X195653866Y-110228095D02*
X195844342Y-110275714D01*
X195844342Y-110275714D02*
X195939580Y-110323333D01*
X195939580Y-110323333D02*
X195987200Y-110370952D01*
X195987200Y-110370952D02*
X196034819Y-110466190D01*
X196034819Y-110466190D02*
X196034819Y-110561428D01*
X196034819Y-110561428D02*
X195987200Y-110656666D01*
X195987200Y-110656666D02*
X195939580Y-110704285D01*
X195939580Y-110704285D02*
X195844342Y-110751904D01*
X195844342Y-110751904D02*
X195653866Y-110799523D01*
X195653866Y-110799523D02*
X195415771Y-110799523D01*
X195415771Y-110799523D02*
X195225295Y-110751904D01*
X195225295Y-110751904D02*
X195130057Y-110704285D01*
X195130057Y-110704285D02*
X195082438Y-110656666D01*
X195082438Y-110656666D02*
X195034819Y-110561428D01*
X196034819Y-109799523D02*
X195034819Y-109799523D01*
X196034819Y-109228095D02*
X195463390Y-109656666D01*
X195034819Y-109228095D02*
X195606247Y-109799523D01*
X161091666Y-123339580D02*
X161044047Y-123387200D01*
X161044047Y-123387200D02*
X160901190Y-123434819D01*
X160901190Y-123434819D02*
X160805952Y-123434819D01*
X160805952Y-123434819D02*
X160663095Y-123387200D01*
X160663095Y-123387200D02*
X160567857Y-123291961D01*
X160567857Y-123291961D02*
X160520238Y-123196723D01*
X160520238Y-123196723D02*
X160472619Y-123006247D01*
X160472619Y-123006247D02*
X160472619Y-122863390D01*
X160472619Y-122863390D02*
X160520238Y-122672914D01*
X160520238Y-122672914D02*
X160567857Y-122577676D01*
X160567857Y-122577676D02*
X160663095Y-122482438D01*
X160663095Y-122482438D02*
X160805952Y-122434819D01*
X160805952Y-122434819D02*
X160901190Y-122434819D01*
X160901190Y-122434819D02*
X161044047Y-122482438D01*
X161044047Y-122482438D02*
X161091666Y-122530057D01*
X161282143Y-123530057D02*
X162044047Y-123530057D01*
X162282143Y-123434819D02*
X162282143Y-122434819D01*
X162758333Y-123434819D02*
X162758333Y-122434819D01*
X162758333Y-122434819D02*
X163329761Y-123434819D01*
X163329761Y-123434819D02*
X163329761Y-122434819D01*
X160440714Y-93164819D02*
X159869286Y-93164819D01*
X160155000Y-93164819D02*
X160155000Y-92164819D01*
X160155000Y-92164819D02*
X160059762Y-92307676D01*
X160059762Y-92307676D02*
X159964524Y-92402914D01*
X159964524Y-92402914D02*
X159869286Y-92450533D01*
X160869286Y-93164819D02*
X160869286Y-92164819D01*
X161440714Y-93164819D02*
X161012143Y-92593390D01*
X161440714Y-92164819D02*
X160869286Y-92736247D01*
X178269819Y-102290476D02*
X178269819Y-102861904D01*
X178269819Y-102576190D02*
X177269819Y-102576190D01*
X177269819Y-102576190D02*
X177412676Y-102671428D01*
X177412676Y-102671428D02*
X177507914Y-102766666D01*
X177507914Y-102766666D02*
X177555533Y-102861904D01*
X177269819Y-101671428D02*
X177269819Y-101576190D01*
X177269819Y-101576190D02*
X177317438Y-101480952D01*
X177317438Y-101480952D02*
X177365057Y-101433333D01*
X177365057Y-101433333D02*
X177460295Y-101385714D01*
X177460295Y-101385714D02*
X177650771Y-101338095D01*
X177650771Y-101338095D02*
X177888866Y-101338095D01*
X177888866Y-101338095D02*
X178079342Y-101385714D01*
X178079342Y-101385714D02*
X178174580Y-101433333D01*
X178174580Y-101433333D02*
X178222200Y-101480952D01*
X178222200Y-101480952D02*
X178269819Y-101576190D01*
X178269819Y-101576190D02*
X178269819Y-101671428D01*
X178269819Y-101671428D02*
X178222200Y-101766666D01*
X178222200Y-101766666D02*
X178174580Y-101814285D01*
X178174580Y-101814285D02*
X178079342Y-101861904D01*
X178079342Y-101861904D02*
X177888866Y-101909523D01*
X177888866Y-101909523D02*
X177650771Y-101909523D01*
X177650771Y-101909523D02*
X177460295Y-101861904D01*
X177460295Y-101861904D02*
X177365057Y-101814285D01*
X177365057Y-101814285D02*
X177317438Y-101766666D01*
X177317438Y-101766666D02*
X177269819Y-101671428D01*
X178269819Y-100909523D02*
X177269819Y-100909523D01*
X178269819Y-100338095D02*
X177698390Y-100766666D01*
X177269819Y-100338095D02*
X177841247Y-100909523D01*
X152204819Y-87844285D02*
X152204819Y-88415713D01*
X152204819Y-88129999D02*
X151204819Y-88129999D01*
X151204819Y-88129999D02*
X151347676Y-88225237D01*
X151347676Y-88225237D02*
X151442914Y-88320475D01*
X151442914Y-88320475D02*
X151490533Y-88415713D01*
X152204819Y-87415713D02*
X151204819Y-87415713D01*
X152204819Y-86844285D02*
X151633390Y-87272856D01*
X151204819Y-86844285D02*
X151776247Y-87415713D01*
X192224819Y-120705476D02*
X192224819Y-121276904D01*
X192224819Y-120991190D02*
X191224819Y-120991190D01*
X191224819Y-120991190D02*
X191367676Y-121086428D01*
X191367676Y-121086428D02*
X191462914Y-121181666D01*
X191462914Y-121181666D02*
X191510533Y-121276904D01*
X191224819Y-120086428D02*
X191224819Y-119991190D01*
X191224819Y-119991190D02*
X191272438Y-119895952D01*
X191272438Y-119895952D02*
X191320057Y-119848333D01*
X191320057Y-119848333D02*
X191415295Y-119800714D01*
X191415295Y-119800714D02*
X191605771Y-119753095D01*
X191605771Y-119753095D02*
X191843866Y-119753095D01*
X191843866Y-119753095D02*
X192034342Y-119800714D01*
X192034342Y-119800714D02*
X192129580Y-119848333D01*
X192129580Y-119848333D02*
X192177200Y-119895952D01*
X192177200Y-119895952D02*
X192224819Y-119991190D01*
X192224819Y-119991190D02*
X192224819Y-120086428D01*
X192224819Y-120086428D02*
X192177200Y-120181666D01*
X192177200Y-120181666D02*
X192129580Y-120229285D01*
X192129580Y-120229285D02*
X192034342Y-120276904D01*
X192034342Y-120276904D02*
X191843866Y-120324523D01*
X191843866Y-120324523D02*
X191605771Y-120324523D01*
X191605771Y-120324523D02*
X191415295Y-120276904D01*
X191415295Y-120276904D02*
X191320057Y-120229285D01*
X191320057Y-120229285D02*
X191272438Y-120181666D01*
X191272438Y-120181666D02*
X191224819Y-120086428D01*
X192224819Y-119324523D02*
X191224819Y-119324523D01*
X192224819Y-118753095D02*
X191653390Y-119181666D01*
X191224819Y-118753095D02*
X191796247Y-119324523D01*
X168164048Y-87827200D02*
X168306905Y-87874819D01*
X168306905Y-87874819D02*
X168545000Y-87874819D01*
X168545000Y-87874819D02*
X168640238Y-87827200D01*
X168640238Y-87827200D02*
X168687857Y-87779580D01*
X168687857Y-87779580D02*
X168735476Y-87684342D01*
X168735476Y-87684342D02*
X168735476Y-87589104D01*
X168735476Y-87589104D02*
X168687857Y-87493866D01*
X168687857Y-87493866D02*
X168640238Y-87446247D01*
X168640238Y-87446247D02*
X168545000Y-87398628D01*
X168545000Y-87398628D02*
X168354524Y-87351009D01*
X168354524Y-87351009D02*
X168259286Y-87303390D01*
X168259286Y-87303390D02*
X168211667Y-87255771D01*
X168211667Y-87255771D02*
X168164048Y-87160533D01*
X168164048Y-87160533D02*
X168164048Y-87065295D01*
X168164048Y-87065295D02*
X168211667Y-86970057D01*
X168211667Y-86970057D02*
X168259286Y-86922438D01*
X168259286Y-86922438D02*
X168354524Y-86874819D01*
X168354524Y-86874819D02*
X168592619Y-86874819D01*
X168592619Y-86874819D02*
X168735476Y-86922438D01*
X169164048Y-86874819D02*
X169164048Y-87684342D01*
X169164048Y-87684342D02*
X169211667Y-87779580D01*
X169211667Y-87779580D02*
X169259286Y-87827200D01*
X169259286Y-87827200D02*
X169354524Y-87874819D01*
X169354524Y-87874819D02*
X169545000Y-87874819D01*
X169545000Y-87874819D02*
X169640238Y-87827200D01*
X169640238Y-87827200D02*
X169687857Y-87779580D01*
X169687857Y-87779580D02*
X169735476Y-87684342D01*
X169735476Y-87684342D02*
X169735476Y-86874819D01*
X170211667Y-87874819D02*
X170211667Y-86874819D01*
X170211667Y-86874819D02*
X170545000Y-87589104D01*
X170545000Y-87589104D02*
X170878333Y-86874819D01*
X170878333Y-86874819D02*
X170878333Y-87874819D01*
X148394819Y-96099285D02*
X148394819Y-96670713D01*
X148394819Y-96384999D02*
X147394819Y-96384999D01*
X147394819Y-96384999D02*
X147537676Y-96480237D01*
X147537676Y-96480237D02*
X147632914Y-96575475D01*
X147632914Y-96575475D02*
X147680533Y-96670713D01*
X148394819Y-95670713D02*
X147394819Y-95670713D01*
X148394819Y-95099285D02*
X147823390Y-95527856D01*
X147394819Y-95099285D02*
X147966247Y-95670713D01*
X213558571Y-85179819D02*
X213749047Y-85179819D01*
X213749047Y-85179819D02*
X213844285Y-85227438D01*
X213844285Y-85227438D02*
X213939523Y-85322676D01*
X213939523Y-85322676D02*
X213987142Y-85513152D01*
X213987142Y-85513152D02*
X213987142Y-85846485D01*
X213987142Y-85846485D02*
X213939523Y-86036961D01*
X213939523Y-86036961D02*
X213844285Y-86132200D01*
X213844285Y-86132200D02*
X213749047Y-86179819D01*
X213749047Y-86179819D02*
X213558571Y-86179819D01*
X213558571Y-86179819D02*
X213463333Y-86132200D01*
X213463333Y-86132200D02*
X213368095Y-86036961D01*
X213368095Y-86036961D02*
X213320476Y-85846485D01*
X213320476Y-85846485D02*
X213320476Y-85513152D01*
X213320476Y-85513152D02*
X213368095Y-85322676D01*
X213368095Y-85322676D02*
X213463333Y-85227438D01*
X213463333Y-85227438D02*
X213558571Y-85179819D01*
X214415714Y-86179819D02*
X214415714Y-85179819D01*
X214415714Y-85179819D02*
X214987142Y-86179819D01*
X214987142Y-86179819D02*
X214987142Y-85179819D01*
X215463333Y-85656009D02*
X215796666Y-85656009D01*
X215939523Y-86179819D02*
X215463333Y-86179819D01*
X215463333Y-86179819D02*
X215463333Y-85179819D01*
X215463333Y-85179819D02*
X215939523Y-85179819D01*
X185317142Y-92434580D02*
X185269523Y-92482200D01*
X185269523Y-92482200D02*
X185126666Y-92529819D01*
X185126666Y-92529819D02*
X185031428Y-92529819D01*
X185031428Y-92529819D02*
X184888571Y-92482200D01*
X184888571Y-92482200D02*
X184793333Y-92386961D01*
X184793333Y-92386961D02*
X184745714Y-92291723D01*
X184745714Y-92291723D02*
X184698095Y-92101247D01*
X184698095Y-92101247D02*
X184698095Y-91958390D01*
X184698095Y-91958390D02*
X184745714Y-91767914D01*
X184745714Y-91767914D02*
X184793333Y-91672676D01*
X184793333Y-91672676D02*
X184888571Y-91577438D01*
X184888571Y-91577438D02*
X185031428Y-91529819D01*
X185031428Y-91529819D02*
X185126666Y-91529819D01*
X185126666Y-91529819D02*
X185269523Y-91577438D01*
X185269523Y-91577438D02*
X185317142Y-91625057D01*
X185507619Y-92625057D02*
X186269523Y-92625057D01*
X186507619Y-92529819D02*
X186507619Y-91529819D01*
X186983809Y-92529819D02*
X186983809Y-91529819D01*
X186983809Y-91529819D02*
X187555237Y-92529819D01*
X187555237Y-92529819D02*
X187555237Y-91529819D01*
X187793333Y-92625057D02*
X188555237Y-92625057D01*
X189126666Y-92006009D02*
X189269523Y-92053628D01*
X189269523Y-92053628D02*
X189317142Y-92101247D01*
X189317142Y-92101247D02*
X189364761Y-92196485D01*
X189364761Y-92196485D02*
X189364761Y-92339342D01*
X189364761Y-92339342D02*
X189317142Y-92434580D01*
X189317142Y-92434580D02*
X189269523Y-92482200D01*
X189269523Y-92482200D02*
X189174285Y-92529819D01*
X189174285Y-92529819D02*
X188793333Y-92529819D01*
X188793333Y-92529819D02*
X188793333Y-91529819D01*
X188793333Y-91529819D02*
X189126666Y-91529819D01*
X189126666Y-91529819D02*
X189221904Y-91577438D01*
X189221904Y-91577438D02*
X189269523Y-91625057D01*
X189269523Y-91625057D02*
X189317142Y-91720295D01*
X189317142Y-91720295D02*
X189317142Y-91815533D01*
X189317142Y-91815533D02*
X189269523Y-91910771D01*
X189269523Y-91910771D02*
X189221904Y-91958390D01*
X189221904Y-91958390D02*
X189126666Y-92006009D01*
X189126666Y-92006009D02*
X188793333Y-92006009D01*
X189745714Y-92244104D02*
X190221904Y-92244104D01*
X189650476Y-92529819D02*
X189983809Y-91529819D01*
X189983809Y-91529819D02*
X190317142Y-92529819D01*
X191221904Y-92529819D02*
X190888571Y-92053628D01*
X190650476Y-92529819D02*
X190650476Y-91529819D01*
X190650476Y-91529819D02*
X191031428Y-91529819D01*
X191031428Y-91529819D02*
X191126666Y-91577438D01*
X191126666Y-91577438D02*
X191174285Y-91625057D01*
X191174285Y-91625057D02*
X191221904Y-91720295D01*
X191221904Y-91720295D02*
X191221904Y-91863152D01*
X191221904Y-91863152D02*
X191174285Y-91958390D01*
X191174285Y-91958390D02*
X191126666Y-92006009D01*
X191126666Y-92006009D02*
X191031428Y-92053628D01*
X191031428Y-92053628D02*
X190650476Y-92053628D01*
X172791428Y-122911009D02*
X172934285Y-122958628D01*
X172934285Y-122958628D02*
X172981904Y-123006247D01*
X172981904Y-123006247D02*
X173029523Y-123101485D01*
X173029523Y-123101485D02*
X173029523Y-123244342D01*
X173029523Y-123244342D02*
X172981904Y-123339580D01*
X172981904Y-123339580D02*
X172934285Y-123387200D01*
X172934285Y-123387200D02*
X172839047Y-123434819D01*
X172839047Y-123434819D02*
X172458095Y-123434819D01*
X172458095Y-123434819D02*
X172458095Y-122434819D01*
X172458095Y-122434819D02*
X172791428Y-122434819D01*
X172791428Y-122434819D02*
X172886666Y-122482438D01*
X172886666Y-122482438D02*
X172934285Y-122530057D01*
X172934285Y-122530057D02*
X172981904Y-122625295D01*
X172981904Y-122625295D02*
X172981904Y-122720533D01*
X172981904Y-122720533D02*
X172934285Y-122815771D01*
X172934285Y-122815771D02*
X172886666Y-122863390D01*
X172886666Y-122863390D02*
X172791428Y-122911009D01*
X172791428Y-122911009D02*
X172458095Y-122911009D01*
X171254819Y-110545476D02*
X171254819Y-111116904D01*
X171254819Y-110831190D02*
X170254819Y-110831190D01*
X170254819Y-110831190D02*
X170397676Y-110926428D01*
X170397676Y-110926428D02*
X170492914Y-111021666D01*
X170492914Y-111021666D02*
X170540533Y-111116904D01*
X170254819Y-109926428D02*
X170254819Y-109831190D01*
X170254819Y-109831190D02*
X170302438Y-109735952D01*
X170302438Y-109735952D02*
X170350057Y-109688333D01*
X170350057Y-109688333D02*
X170445295Y-109640714D01*
X170445295Y-109640714D02*
X170635771Y-109593095D01*
X170635771Y-109593095D02*
X170873866Y-109593095D01*
X170873866Y-109593095D02*
X171064342Y-109640714D01*
X171064342Y-109640714D02*
X171159580Y-109688333D01*
X171159580Y-109688333D02*
X171207200Y-109735952D01*
X171207200Y-109735952D02*
X171254819Y-109831190D01*
X171254819Y-109831190D02*
X171254819Y-109926428D01*
X171254819Y-109926428D02*
X171207200Y-110021666D01*
X171207200Y-110021666D02*
X171159580Y-110069285D01*
X171159580Y-110069285D02*
X171064342Y-110116904D01*
X171064342Y-110116904D02*
X170873866Y-110164523D01*
X170873866Y-110164523D02*
X170635771Y-110164523D01*
X170635771Y-110164523D02*
X170445295Y-110116904D01*
X170445295Y-110116904D02*
X170350057Y-110069285D01*
X170350057Y-110069285D02*
X170302438Y-110021666D01*
X170302438Y-110021666D02*
X170254819Y-109926428D01*
X171254819Y-109164523D02*
X170254819Y-109164523D01*
X171254819Y-108593095D02*
X170683390Y-109021666D01*
X170254819Y-108593095D02*
X170826247Y-109164523D01*
X132588095Y-117402438D02*
X132492857Y-117354819D01*
X132492857Y-117354819D02*
X132350000Y-117354819D01*
X132350000Y-117354819D02*
X132207143Y-117402438D01*
X132207143Y-117402438D02*
X132111905Y-117497676D01*
X132111905Y-117497676D02*
X132064286Y-117592914D01*
X132064286Y-117592914D02*
X132016667Y-117783390D01*
X132016667Y-117783390D02*
X132016667Y-117926247D01*
X132016667Y-117926247D02*
X132064286Y-118116723D01*
X132064286Y-118116723D02*
X132111905Y-118211961D01*
X132111905Y-118211961D02*
X132207143Y-118307200D01*
X132207143Y-118307200D02*
X132350000Y-118354819D01*
X132350000Y-118354819D02*
X132445238Y-118354819D01*
X132445238Y-118354819D02*
X132588095Y-118307200D01*
X132588095Y-118307200D02*
X132635714Y-118259580D01*
X132635714Y-118259580D02*
X132635714Y-117926247D01*
X132635714Y-117926247D02*
X132445238Y-117926247D01*
X133064286Y-118354819D02*
X133064286Y-117354819D01*
X133064286Y-117354819D02*
X133635714Y-118354819D01*
X133635714Y-118354819D02*
X133635714Y-117354819D01*
X134111905Y-118354819D02*
X134111905Y-117354819D01*
X134111905Y-117354819D02*
X134350000Y-117354819D01*
X134350000Y-117354819D02*
X134492857Y-117402438D01*
X134492857Y-117402438D02*
X134588095Y-117497676D01*
X134588095Y-117497676D02*
X134635714Y-117592914D01*
X134635714Y-117592914D02*
X134683333Y-117783390D01*
X134683333Y-117783390D02*
X134683333Y-117926247D01*
X134683333Y-117926247D02*
X134635714Y-118116723D01*
X134635714Y-118116723D02*
X134588095Y-118211961D01*
X134588095Y-118211961D02*
X134492857Y-118307200D01*
X134492857Y-118307200D02*
X134350000Y-118354819D01*
X134350000Y-118354819D02*
X134111905Y-118354819D01*
X176410952Y-85544819D02*
X175839524Y-85544819D01*
X176125238Y-85544819D02*
X176125238Y-84544819D01*
X176125238Y-84544819D02*
X176030000Y-84687676D01*
X176030000Y-84687676D02*
X175934762Y-84782914D01*
X175934762Y-84782914D02*
X175839524Y-84830533D01*
X176839524Y-85544819D02*
X176839524Y-84544819D01*
X176934762Y-85163866D02*
X177220476Y-85544819D01*
X177220476Y-84878152D02*
X176839524Y-85259104D01*
X156989580Y-99977619D02*
X157037200Y-100025238D01*
X157037200Y-100025238D02*
X157084819Y-100168095D01*
X157084819Y-100168095D02*
X157084819Y-100263333D01*
X157084819Y-100263333D02*
X157037200Y-100406190D01*
X157037200Y-100406190D02*
X156941961Y-100501428D01*
X156941961Y-100501428D02*
X156846723Y-100549047D01*
X156846723Y-100549047D02*
X156656247Y-100596666D01*
X156656247Y-100596666D02*
X156513390Y-100596666D01*
X156513390Y-100596666D02*
X156322914Y-100549047D01*
X156322914Y-100549047D02*
X156227676Y-100501428D01*
X156227676Y-100501428D02*
X156132438Y-100406190D01*
X156132438Y-100406190D02*
X156084819Y-100263333D01*
X156084819Y-100263333D02*
X156084819Y-100168095D01*
X156084819Y-100168095D02*
X156132438Y-100025238D01*
X156132438Y-100025238D02*
X156180057Y-99977619D01*
X156799104Y-99596666D02*
X156799104Y-99120476D01*
X157084819Y-99691904D02*
X156084819Y-99358571D01*
X156084819Y-99358571D02*
X157084819Y-99025238D01*
X157084819Y-98120476D02*
X156608628Y-98453809D01*
X157084819Y-98691904D02*
X156084819Y-98691904D01*
X156084819Y-98691904D02*
X156084819Y-98310952D01*
X156084819Y-98310952D02*
X156132438Y-98215714D01*
X156132438Y-98215714D02*
X156180057Y-98168095D01*
X156180057Y-98168095D02*
X156275295Y-98120476D01*
X156275295Y-98120476D02*
X156418152Y-98120476D01*
X156418152Y-98120476D02*
X156513390Y-98168095D01*
X156513390Y-98168095D02*
X156561009Y-98215714D01*
X156561009Y-98215714D02*
X156608628Y-98310952D01*
X156608628Y-98310952D02*
X156608628Y-98691904D01*
X157084819Y-97120476D02*
X156608628Y-97453809D01*
X157084819Y-97691904D02*
X156084819Y-97691904D01*
X156084819Y-97691904D02*
X156084819Y-97310952D01*
X156084819Y-97310952D02*
X156132438Y-97215714D01*
X156132438Y-97215714D02*
X156180057Y-97168095D01*
X156180057Y-97168095D02*
X156275295Y-97120476D01*
X156275295Y-97120476D02*
X156418152Y-97120476D01*
X156418152Y-97120476D02*
X156513390Y-97168095D01*
X156513390Y-97168095D02*
X156561009Y-97215714D01*
X156561009Y-97215714D02*
X156608628Y-97310952D01*
X156608628Y-97310952D02*
X156608628Y-97691904D01*
X156608628Y-96501428D02*
X157084819Y-96501428D01*
X156084819Y-96834761D02*
X156608628Y-96501428D01*
X156608628Y-96501428D02*
X156084819Y-96168095D01*
X142694819Y-104830476D02*
X142694819Y-105401904D01*
X142694819Y-105116190D02*
X141694819Y-105116190D01*
X141694819Y-105116190D02*
X141837676Y-105211428D01*
X141837676Y-105211428D02*
X141932914Y-105306666D01*
X141932914Y-105306666D02*
X141980533Y-105401904D01*
X141694819Y-104211428D02*
X141694819Y-104116190D01*
X141694819Y-104116190D02*
X141742438Y-104020952D01*
X141742438Y-104020952D02*
X141790057Y-103973333D01*
X141790057Y-103973333D02*
X141885295Y-103925714D01*
X141885295Y-103925714D02*
X142075771Y-103878095D01*
X142075771Y-103878095D02*
X142313866Y-103878095D01*
X142313866Y-103878095D02*
X142504342Y-103925714D01*
X142504342Y-103925714D02*
X142599580Y-103973333D01*
X142599580Y-103973333D02*
X142647200Y-104020952D01*
X142647200Y-104020952D02*
X142694819Y-104116190D01*
X142694819Y-104116190D02*
X142694819Y-104211428D01*
X142694819Y-104211428D02*
X142647200Y-104306666D01*
X142647200Y-104306666D02*
X142599580Y-104354285D01*
X142599580Y-104354285D02*
X142504342Y-104401904D01*
X142504342Y-104401904D02*
X142313866Y-104449523D01*
X142313866Y-104449523D02*
X142075771Y-104449523D01*
X142075771Y-104449523D02*
X141885295Y-104401904D01*
X141885295Y-104401904D02*
X141790057Y-104354285D01*
X141790057Y-104354285D02*
X141742438Y-104306666D01*
X141742438Y-104306666D02*
X141694819Y-104211428D01*
X142694819Y-103449523D02*
X141694819Y-103449523D01*
X142694819Y-102878095D02*
X142123390Y-103306666D01*
X141694819Y-102878095D02*
X142266247Y-103449523D01*
X207041905Y-80814104D02*
X207518095Y-80814104D01*
X206946667Y-81099819D02*
X207280000Y-80099819D01*
X207280000Y-80099819D02*
X207613333Y-81099819D01*
X207946667Y-81099819D02*
X207946667Y-80099819D01*
X207946667Y-80099819D02*
X208184762Y-80099819D01*
X208184762Y-80099819D02*
X208327619Y-80147438D01*
X208327619Y-80147438D02*
X208422857Y-80242676D01*
X208422857Y-80242676D02*
X208470476Y-80337914D01*
X208470476Y-80337914D02*
X208518095Y-80528390D01*
X208518095Y-80528390D02*
X208518095Y-80671247D01*
X208518095Y-80671247D02*
X208470476Y-80861723D01*
X208470476Y-80861723D02*
X208422857Y-80956961D01*
X208422857Y-80956961D02*
X208327619Y-81052200D01*
X208327619Y-81052200D02*
X208184762Y-81099819D01*
X208184762Y-81099819D02*
X207946667Y-81099819D01*
X208946667Y-81099819D02*
X208946667Y-80099819D01*
X208946667Y-80099819D02*
X209184762Y-80099819D01*
X209184762Y-80099819D02*
X209327619Y-80147438D01*
X209327619Y-80147438D02*
X209422857Y-80242676D01*
X209422857Y-80242676D02*
X209470476Y-80337914D01*
X209470476Y-80337914D02*
X209518095Y-80528390D01*
X209518095Y-80528390D02*
X209518095Y-80671247D01*
X209518095Y-80671247D02*
X209470476Y-80861723D01*
X209470476Y-80861723D02*
X209422857Y-80956961D01*
X209422857Y-80956961D02*
X209327619Y-81052200D01*
X209327619Y-81052200D02*
X209184762Y-81099819D01*
X209184762Y-81099819D02*
X208946667Y-81099819D01*
X213249048Y-90259819D02*
X213820476Y-90259819D01*
X213534762Y-91259819D02*
X213534762Y-90259819D01*
X214058572Y-90259819D02*
X214296667Y-91259819D01*
X214296667Y-91259819D02*
X214487143Y-90545533D01*
X214487143Y-90545533D02*
X214677619Y-91259819D01*
X214677619Y-91259819D02*
X214915715Y-90259819D01*
X215487143Y-90259819D02*
X215677619Y-90259819D01*
X215677619Y-90259819D02*
X215772857Y-90307438D01*
X215772857Y-90307438D02*
X215868095Y-90402676D01*
X215868095Y-90402676D02*
X215915714Y-90593152D01*
X215915714Y-90593152D02*
X215915714Y-90926485D01*
X215915714Y-90926485D02*
X215868095Y-91116961D01*
X215868095Y-91116961D02*
X215772857Y-91212200D01*
X215772857Y-91212200D02*
X215677619Y-91259819D01*
X215677619Y-91259819D02*
X215487143Y-91259819D01*
X215487143Y-91259819D02*
X215391905Y-91212200D01*
X215391905Y-91212200D02*
X215296667Y-91116961D01*
X215296667Y-91116961D02*
X215249048Y-90926485D01*
X215249048Y-90926485D02*
X215249048Y-90593152D01*
X215249048Y-90593152D02*
X215296667Y-90402676D01*
X215296667Y-90402676D02*
X215391905Y-90307438D01*
X215391905Y-90307438D02*
X215487143Y-90259819D01*
X136329819Y-104259047D02*
X136329819Y-104830475D01*
X136329819Y-104544761D02*
X135329819Y-104544761D01*
X135329819Y-104544761D02*
X135472676Y-104639999D01*
X135472676Y-104639999D02*
X135567914Y-104735237D01*
X135567914Y-104735237D02*
X135615533Y-104830475D01*
X136329819Y-103830475D02*
X135329819Y-103830475D01*
X135948866Y-103735237D02*
X136329819Y-103449523D01*
X135663152Y-103449523D02*
X136044104Y-103830475D01*
X143367381Y-123149104D02*
X143843571Y-123149104D01*
X143272143Y-123434819D02*
X143605476Y-122434819D01*
X143605476Y-122434819D02*
X143938809Y-123434819D01*
X144034048Y-123530057D02*
X144795952Y-123530057D01*
X145367381Y-122911009D02*
X145510238Y-122958628D01*
X145510238Y-122958628D02*
X145557857Y-123006247D01*
X145557857Y-123006247D02*
X145605476Y-123101485D01*
X145605476Y-123101485D02*
X145605476Y-123244342D01*
X145605476Y-123244342D02*
X145557857Y-123339580D01*
X145557857Y-123339580D02*
X145510238Y-123387200D01*
X145510238Y-123387200D02*
X145415000Y-123434819D01*
X145415000Y-123434819D02*
X145034048Y-123434819D01*
X145034048Y-123434819D02*
X145034048Y-122434819D01*
X145034048Y-122434819D02*
X145367381Y-122434819D01*
X145367381Y-122434819D02*
X145462619Y-122482438D01*
X145462619Y-122482438D02*
X145510238Y-122530057D01*
X145510238Y-122530057D02*
X145557857Y-122625295D01*
X145557857Y-122625295D02*
X145557857Y-122720533D01*
X145557857Y-122720533D02*
X145510238Y-122815771D01*
X145510238Y-122815771D02*
X145462619Y-122863390D01*
X145462619Y-122863390D02*
X145367381Y-122911009D01*
X145367381Y-122911009D02*
X145034048Y-122911009D01*
X145986429Y-123149104D02*
X146462619Y-123149104D01*
X145891191Y-123434819D02*
X146224524Y-122434819D01*
X146224524Y-122434819D02*
X146557857Y-123434819D01*
X147462619Y-123434819D02*
X147129286Y-122958628D01*
X146891191Y-123434819D02*
X146891191Y-122434819D01*
X146891191Y-122434819D02*
X147272143Y-122434819D01*
X147272143Y-122434819D02*
X147367381Y-122482438D01*
X147367381Y-122482438D02*
X147415000Y-122530057D01*
X147415000Y-122530057D02*
X147462619Y-122625295D01*
X147462619Y-122625295D02*
X147462619Y-122768152D01*
X147462619Y-122768152D02*
X147415000Y-122863390D01*
X147415000Y-122863390D02*
X147367381Y-122911009D01*
X147367381Y-122911009D02*
X147272143Y-122958628D01*
X147272143Y-122958628D02*
X146891191Y-122958628D01*
X158569819Y-115625476D02*
X158569819Y-116196904D01*
X158569819Y-115911190D02*
X157569819Y-115911190D01*
X157569819Y-115911190D02*
X157712676Y-116006428D01*
X157712676Y-116006428D02*
X157807914Y-116101666D01*
X157807914Y-116101666D02*
X157855533Y-116196904D01*
X157569819Y-115006428D02*
X157569819Y-114911190D01*
X157569819Y-114911190D02*
X157617438Y-114815952D01*
X157617438Y-114815952D02*
X157665057Y-114768333D01*
X157665057Y-114768333D02*
X157760295Y-114720714D01*
X157760295Y-114720714D02*
X157950771Y-114673095D01*
X157950771Y-114673095D02*
X158188866Y-114673095D01*
X158188866Y-114673095D02*
X158379342Y-114720714D01*
X158379342Y-114720714D02*
X158474580Y-114768333D01*
X158474580Y-114768333D02*
X158522200Y-114815952D01*
X158522200Y-114815952D02*
X158569819Y-114911190D01*
X158569819Y-114911190D02*
X158569819Y-115006428D01*
X158569819Y-115006428D02*
X158522200Y-115101666D01*
X158522200Y-115101666D02*
X158474580Y-115149285D01*
X158474580Y-115149285D02*
X158379342Y-115196904D01*
X158379342Y-115196904D02*
X158188866Y-115244523D01*
X158188866Y-115244523D02*
X157950771Y-115244523D01*
X157950771Y-115244523D02*
X157760295Y-115196904D01*
X157760295Y-115196904D02*
X157665057Y-115149285D01*
X157665057Y-115149285D02*
X157617438Y-115101666D01*
X157617438Y-115101666D02*
X157569819Y-115006428D01*
X158569819Y-114244523D02*
X157569819Y-114244523D01*
X158569819Y-113673095D02*
X157998390Y-114101666D01*
X157569819Y-113673095D02*
X158141247Y-114244523D01*
X193494819Y-110609047D02*
X193494819Y-111180475D01*
X193494819Y-110894761D02*
X192494819Y-110894761D01*
X192494819Y-110894761D02*
X192637676Y-110989999D01*
X192637676Y-110989999D02*
X192732914Y-111085237D01*
X192732914Y-111085237D02*
X192780533Y-111180475D01*
X193494819Y-110180475D02*
X192494819Y-110180475D01*
X193113866Y-110085237D02*
X193494819Y-109799523D01*
X192828152Y-109799523D02*
X193209104Y-110180475D01*
X147774819Y-111180476D02*
X147774819Y-111751904D01*
X147774819Y-111466190D02*
X146774819Y-111466190D01*
X146774819Y-111466190D02*
X146917676Y-111561428D01*
X146917676Y-111561428D02*
X147012914Y-111656666D01*
X147012914Y-111656666D02*
X147060533Y-111751904D01*
X146774819Y-110561428D02*
X146774819Y-110466190D01*
X146774819Y-110466190D02*
X146822438Y-110370952D01*
X146822438Y-110370952D02*
X146870057Y-110323333D01*
X146870057Y-110323333D02*
X146965295Y-110275714D01*
X146965295Y-110275714D02*
X147155771Y-110228095D01*
X147155771Y-110228095D02*
X147393866Y-110228095D01*
X147393866Y-110228095D02*
X147584342Y-110275714D01*
X147584342Y-110275714D02*
X147679580Y-110323333D01*
X147679580Y-110323333D02*
X147727200Y-110370952D01*
X147727200Y-110370952D02*
X147774819Y-110466190D01*
X147774819Y-110466190D02*
X147774819Y-110561428D01*
X147774819Y-110561428D02*
X147727200Y-110656666D01*
X147727200Y-110656666D02*
X147679580Y-110704285D01*
X147679580Y-110704285D02*
X147584342Y-110751904D01*
X147584342Y-110751904D02*
X147393866Y-110799523D01*
X147393866Y-110799523D02*
X147155771Y-110799523D01*
X147155771Y-110799523D02*
X146965295Y-110751904D01*
X146965295Y-110751904D02*
X146870057Y-110704285D01*
X146870057Y-110704285D02*
X146822438Y-110656666D01*
X146822438Y-110656666D02*
X146774819Y-110561428D01*
X147774819Y-109799523D02*
X146774819Y-109799523D01*
X147774819Y-109228095D02*
X147203390Y-109656666D01*
X146774819Y-109228095D02*
X147346247Y-109799523D01*
X132230952Y-105769580D02*
X132183333Y-105817200D01*
X132183333Y-105817200D02*
X132040476Y-105864819D01*
X132040476Y-105864819D02*
X131945238Y-105864819D01*
X131945238Y-105864819D02*
X131802381Y-105817200D01*
X131802381Y-105817200D02*
X131707143Y-105721961D01*
X131707143Y-105721961D02*
X131659524Y-105626723D01*
X131659524Y-105626723D02*
X131611905Y-105436247D01*
X131611905Y-105436247D02*
X131611905Y-105293390D01*
X131611905Y-105293390D02*
X131659524Y-105102914D01*
X131659524Y-105102914D02*
X131707143Y-105007676D01*
X131707143Y-105007676D02*
X131802381Y-104912438D01*
X131802381Y-104912438D02*
X131945238Y-104864819D01*
X131945238Y-104864819D02*
X132040476Y-104864819D01*
X132040476Y-104864819D02*
X132183333Y-104912438D01*
X132183333Y-104912438D02*
X132230952Y-104960057D01*
X132850000Y-104864819D02*
X133040476Y-104864819D01*
X133040476Y-104864819D02*
X133135714Y-104912438D01*
X133135714Y-104912438D02*
X133230952Y-105007676D01*
X133230952Y-105007676D02*
X133278571Y-105198152D01*
X133278571Y-105198152D02*
X133278571Y-105531485D01*
X133278571Y-105531485D02*
X133230952Y-105721961D01*
X133230952Y-105721961D02*
X133135714Y-105817200D01*
X133135714Y-105817200D02*
X133040476Y-105864819D01*
X133040476Y-105864819D02*
X132850000Y-105864819D01*
X132850000Y-105864819D02*
X132754762Y-105817200D01*
X132754762Y-105817200D02*
X132659524Y-105721961D01*
X132659524Y-105721961D02*
X132611905Y-105531485D01*
X132611905Y-105531485D02*
X132611905Y-105198152D01*
X132611905Y-105198152D02*
X132659524Y-105007676D01*
X132659524Y-105007676D02*
X132754762Y-104912438D01*
X132754762Y-104912438D02*
X132850000Y-104864819D01*
X133707143Y-104864819D02*
X133707143Y-105674342D01*
X133707143Y-105674342D02*
X133754762Y-105769580D01*
X133754762Y-105769580D02*
X133802381Y-105817200D01*
X133802381Y-105817200D02*
X133897619Y-105864819D01*
X133897619Y-105864819D02*
X134088095Y-105864819D01*
X134088095Y-105864819D02*
X134183333Y-105817200D01*
X134183333Y-105817200D02*
X134230952Y-105769580D01*
X134230952Y-105769580D02*
X134278571Y-105674342D01*
X134278571Y-105674342D02*
X134278571Y-104864819D01*
X134611905Y-104864819D02*
X135183333Y-104864819D01*
X134897619Y-105864819D02*
X134897619Y-104864819D01*
X198493095Y-108404819D02*
X198493095Y-107404819D01*
X199064523Y-108404819D02*
X198635952Y-107833390D01*
X199064523Y-107404819D02*
X198493095Y-107976247D01*
X199844819Y-90225476D02*
X199844819Y-90796904D01*
X199844819Y-90511190D02*
X198844819Y-90511190D01*
X198844819Y-90511190D02*
X198987676Y-90606428D01*
X198987676Y-90606428D02*
X199082914Y-90701666D01*
X199082914Y-90701666D02*
X199130533Y-90796904D01*
X198844819Y-89606428D02*
X198844819Y-89511190D01*
X198844819Y-89511190D02*
X198892438Y-89415952D01*
X198892438Y-89415952D02*
X198940057Y-89368333D01*
X198940057Y-89368333D02*
X199035295Y-89320714D01*
X199035295Y-89320714D02*
X199225771Y-89273095D01*
X199225771Y-89273095D02*
X199463866Y-89273095D01*
X199463866Y-89273095D02*
X199654342Y-89320714D01*
X199654342Y-89320714D02*
X199749580Y-89368333D01*
X199749580Y-89368333D02*
X199797200Y-89415952D01*
X199797200Y-89415952D02*
X199844819Y-89511190D01*
X199844819Y-89511190D02*
X199844819Y-89606428D01*
X199844819Y-89606428D02*
X199797200Y-89701666D01*
X199797200Y-89701666D02*
X199749580Y-89749285D01*
X199749580Y-89749285D02*
X199654342Y-89796904D01*
X199654342Y-89796904D02*
X199463866Y-89844523D01*
X199463866Y-89844523D02*
X199225771Y-89844523D01*
X199225771Y-89844523D02*
X199035295Y-89796904D01*
X199035295Y-89796904D02*
X198940057Y-89749285D01*
X198940057Y-89749285D02*
X198892438Y-89701666D01*
X198892438Y-89701666D02*
X198844819Y-89606428D01*
X199844819Y-88844523D02*
X198844819Y-88844523D01*
X199844819Y-88273095D02*
X199273390Y-88701666D01*
X198844819Y-88273095D02*
X199416247Y-88844523D01*
D11*
%TO.C,Q19*%
X204415000Y-113560000D02*
X204415000Y-109960000D01*
X199965001Y-111760000D02*
G75*
G03*
X201466193Y-114116399I2599999J0D01*
G01*
X203687795Y-114084183D02*
G75*
G03*
X204414999Y-113559999I-1122795J2324183D01*
G01*
X201466193Y-109403600D02*
G75*
G03*
X199965000Y-111760000I1098807J-2356400D01*
G01*
X204414999Y-109960001D02*
G75*
G03*
X203687795Y-109435817I-1849999J-1799999D01*
G01*
%TO.C,Q10*%
X182190000Y-114830000D02*
X182190000Y-111230000D01*
X177740001Y-113030000D02*
G75*
G03*
X179241193Y-115386399I2599999J0D01*
G01*
X181462795Y-115354183D02*
G75*
G03*
X182189999Y-114829999I-1122795J2324183D01*
G01*
X179241193Y-110673600D02*
G75*
G03*
X177740000Y-113030000I1098807J-2356400D01*
G01*
X182189999Y-111230001D02*
G75*
G03*
X181462795Y-110705817I-1849999J-1799999D01*
G01*
%TO.C,J4*%
X177740000Y-119320000D02*
X179070000Y-119320000D01*
X177740000Y-120650000D02*
X177740000Y-119320000D01*
X177740000Y-121920000D02*
X177740000Y-121980000D01*
X177740000Y-121920000D02*
X180400000Y-121920000D01*
X177740000Y-121980000D02*
X180400000Y-121980000D01*
X180400000Y-121920000D02*
X180400000Y-121980000D01*
%TO.C,R27*%
X205105000Y-93675000D02*
X205105000Y-92725000D01*
X204185000Y-92725000D02*
X206025000Y-92725000D01*
X206025000Y-92725000D02*
X206025000Y-88885000D01*
X204185000Y-88885000D02*
X204185000Y-92725000D01*
X206025000Y-88885000D02*
X204185000Y-88885000D01*
X205105000Y-87935000D02*
X205105000Y-88885000D01*
%TO.C,R25*%
X189865000Y-104470000D02*
X189865000Y-103520000D01*
X188945000Y-103520000D02*
X190785000Y-103520000D01*
X190785000Y-103520000D02*
X190785000Y-99680000D01*
X188945000Y-99680000D02*
X188945000Y-103520000D01*
X190785000Y-99680000D02*
X188945000Y-99680000D01*
X189865000Y-98730000D02*
X189865000Y-99680000D01*
%TO.C,R24*%
X183515000Y-93040000D02*
X183515000Y-92090000D01*
X182595000Y-92090000D02*
X184435000Y-92090000D01*
X184435000Y-92090000D02*
X184435000Y-88250000D01*
X182595000Y-88250000D02*
X182595000Y-92090000D01*
X184435000Y-88250000D02*
X182595000Y-88250000D01*
X183515000Y-87300000D02*
X183515000Y-88250000D01*
%TO.C,Q17*%
X203780000Y-96415000D02*
X203780000Y-92815000D01*
X199330001Y-94615000D02*
G75*
G03*
X200831193Y-96971399I2599999J0D01*
G01*
X203052795Y-96939183D02*
G75*
G03*
X203779999Y-96414999I-1122795J2324183D01*
G01*
X200831193Y-92258600D02*
G75*
G03*
X199330000Y-94615000I1098807J-2356400D01*
G01*
X203779999Y-92815001D02*
G75*
G03*
X203052795Y-92290817I-1849999J-1799999D01*
G01*
%TO.C,R18*%
X160655000Y-105715000D02*
X160655000Y-106665000D01*
X161575000Y-106665000D02*
X159735000Y-106665000D01*
X159735000Y-106665000D02*
X159735000Y-110505000D01*
X161575000Y-110505000D02*
X161575000Y-106665000D01*
X159735000Y-110505000D02*
X161575000Y-110505000D01*
X160655000Y-111455000D02*
X160655000Y-110505000D01*
%TO.C,R23*%
X172720000Y-93015000D02*
X172720000Y-93965000D01*
X173640000Y-93965000D02*
X171800000Y-93965000D01*
X171800000Y-93965000D02*
X171800000Y-97805000D01*
X173640000Y-97805000D02*
X173640000Y-93965000D01*
X171800000Y-97805000D02*
X173640000Y-97805000D01*
X172720000Y-98755000D02*
X172720000Y-97805000D01*
%TO.C,J8*%
X159960000Y-83760000D02*
X161290000Y-83760000D01*
X159960000Y-85090000D02*
X159960000Y-83760000D01*
X159960000Y-86360000D02*
X159960000Y-86420000D01*
X159960000Y-86360000D02*
X162620000Y-86360000D01*
X159960000Y-86420000D02*
X162620000Y-86420000D01*
X162620000Y-86360000D02*
X162620000Y-86420000D01*
%TO.C,Q11*%
X166315000Y-106575000D02*
X166315000Y-102975000D01*
X161865001Y-104775000D02*
G75*
G03*
X163366193Y-107131399I2599999J0D01*
G01*
X165587795Y-107099183D02*
G75*
G03*
X166314999Y-106574999I-1122795J2324183D01*
G01*
X163366193Y-102418600D02*
G75*
G03*
X161865000Y-104775000I1098807J-2356400D01*
G01*
X166314999Y-102975001D02*
G75*
G03*
X165587795Y-102450817I-1849999J-1799999D01*
G01*
%TO.C,Q18*%
X196160000Y-96415000D02*
X196160000Y-92815000D01*
X191710001Y-94615000D02*
G75*
G03*
X193211193Y-96971399I2599999J0D01*
G01*
X195432795Y-96939183D02*
G75*
G03*
X196159999Y-96414999I-1122795J2324183D01*
G01*
X193211193Y-92258600D02*
G75*
G03*
X191710000Y-94615000I1098807J-2356400D01*
G01*
X196159999Y-92815001D02*
G75*
G03*
X195432795Y-92290817I-1849999J-1799999D01*
G01*
%TO.C,Q16*%
X188540000Y-114830000D02*
X188540000Y-111230000D01*
X184090001Y-113030000D02*
G75*
G03*
X185591193Y-115386399I2599999J0D01*
G01*
X187812795Y-115354183D02*
G75*
G03*
X188539999Y-114829999I-1122795J2324183D01*
G01*
X185591193Y-110673600D02*
G75*
G03*
X184090000Y-113030000I1098807J-2356400D01*
G01*
X188539999Y-111230001D02*
G75*
G03*
X187812795Y-110705817I-1849999J-1799999D01*
G01*
%TO.C,J13*%
X132655000Y-99000000D02*
X133985000Y-99000000D01*
X132655000Y-100330000D02*
X132655000Y-99000000D01*
X132655000Y-101600000D02*
X132655000Y-101660000D01*
X132655000Y-101600000D02*
X135315000Y-101600000D01*
X132655000Y-101660000D02*
X135315000Y-101660000D01*
X135315000Y-101600000D02*
X135315000Y-101660000D01*
%TO.C,R17*%
X175895000Y-113970000D02*
X175895000Y-114920000D01*
X176815000Y-114920000D02*
X174975000Y-114920000D01*
X174975000Y-114920000D02*
X174975000Y-118760000D01*
X176815000Y-118760000D02*
X176815000Y-114920000D01*
X174975000Y-118760000D02*
X176815000Y-118760000D01*
X175895000Y-119710000D02*
X175895000Y-118760000D01*
%TO.C,R28*%
X195580000Y-107010000D02*
X195580000Y-106060000D01*
X194660000Y-106060000D02*
X196500000Y-106060000D01*
X196500000Y-106060000D02*
X196500000Y-102220000D01*
X194660000Y-102220000D02*
X194660000Y-106060000D01*
X196500000Y-102220000D02*
X194660000Y-102220000D01*
X195580000Y-101270000D02*
X195580000Y-102220000D01*
%TO.C,J6*%
X160595000Y-119320000D02*
X161925000Y-119320000D01*
X160595000Y-120650000D02*
X160595000Y-119320000D01*
X160595000Y-121920000D02*
X160595000Y-121980000D01*
X160595000Y-121920000D02*
X163255000Y-121920000D01*
X160595000Y-121980000D02*
X163255000Y-121980000D01*
X163255000Y-121920000D02*
X163255000Y-121980000D01*
%TO.C,R20*%
X157785000Y-94615000D02*
X158735000Y-94615000D01*
X158735000Y-93695000D02*
X158735000Y-95535000D01*
X158735000Y-95535000D02*
X162575000Y-95535000D01*
X162575000Y-93695000D02*
X158735000Y-93695000D01*
X162575000Y-95535000D02*
X162575000Y-93695000D01*
X163525000Y-94615000D02*
X162575000Y-94615000D01*
%TO.C,R16*%
X175895000Y-104470000D02*
X175895000Y-103520000D01*
X174975000Y-103520000D02*
X176815000Y-103520000D01*
X176815000Y-103520000D02*
X176815000Y-99680000D01*
X174975000Y-99680000D02*
X174975000Y-103520000D01*
X176815000Y-99680000D02*
X174975000Y-99680000D01*
X175895000Y-98730000D02*
X175895000Y-99680000D01*
%TO.C,R19*%
X153670000Y-84760000D02*
X153670000Y-85710000D01*
X154590000Y-85710000D02*
X152750000Y-85710000D01*
X152750000Y-85710000D02*
X152750000Y-89550000D01*
X154590000Y-89550000D02*
X154590000Y-85710000D01*
X152750000Y-89550000D02*
X154590000Y-89550000D01*
X153670000Y-90500000D02*
X153670000Y-89550000D01*
%TO.C,R26*%
X189865000Y-113970000D02*
X189865000Y-114920000D01*
X190785000Y-114920000D02*
X188945000Y-114920000D01*
X188945000Y-114920000D02*
X188945000Y-118760000D01*
X190785000Y-118760000D02*
X190785000Y-114920000D01*
X188945000Y-118760000D02*
X190785000Y-118760000D01*
X189865000Y-119710000D02*
X189865000Y-118760000D01*
%TO.C,Q12*%
X171395000Y-98955000D02*
X171395000Y-95355000D01*
X166945001Y-97155000D02*
G75*
G03*
X168446193Y-99511399I2599999J0D01*
G01*
X170667795Y-99479183D02*
G75*
G03*
X171394999Y-98954999I-1122795J2324183D01*
G01*
X168446193Y-94798600D02*
G75*
G03*
X166945000Y-97155000I1098807J-2356400D01*
G01*
X171394999Y-95355001D02*
G75*
G03*
X170667795Y-94830817I-1849999J-1799999D01*
G01*
%TO.C,D2*%
X163229000Y-99985000D02*
X163385000Y-99985000D01*
X165545000Y-99985000D02*
X165701000Y-99985000D01*
X163386392Y-96752666D02*
G75*
G03*
X163229485Y-99984999I1078608J-1672334D01*
G01*
X163385164Y-97383871D02*
G75*
G03*
X163385001Y-99465960I1079836J-1041129D01*
G01*
X165544999Y-99465960D02*
G75*
G03*
X165544836Y-97383871I-1079999J1040960D01*
G01*
X165700515Y-99984999D02*
G75*
G03*
X165543608Y-96752666I-1235515J1559999D01*
G01*
%TO.C,J9*%
X168215000Y-83760000D02*
X169545000Y-83760000D01*
X168215000Y-85090000D02*
X168215000Y-83760000D01*
X168215000Y-86360000D02*
X168215000Y-86420000D01*
X168215000Y-86360000D02*
X170875000Y-86360000D01*
X168215000Y-86420000D02*
X170875000Y-86420000D01*
X170875000Y-86360000D02*
X170875000Y-86420000D01*
%TO.C,R12*%
X149860000Y-93015000D02*
X149860000Y-93965000D01*
X150780000Y-93965000D02*
X148940000Y-93965000D01*
X148940000Y-93965000D02*
X148940000Y-97805000D01*
X150780000Y-97805000D02*
X150780000Y-93965000D01*
X148940000Y-97805000D02*
X150780000Y-97805000D01*
X149860000Y-98755000D02*
X149860000Y-97805000D01*
%TO.C,Q13*%
X171395000Y-106575000D02*
X171395000Y-102975000D01*
X166945001Y-104775000D02*
G75*
G03*
X168446193Y-107131399I2599999J0D01*
G01*
X170667795Y-107099183D02*
G75*
G03*
X171394999Y-106574999I-1122795J2324183D01*
G01*
X168446193Y-102418600D02*
G75*
G03*
X166945000Y-104775000I1098807J-2356400D01*
G01*
X171394999Y-102975001D02*
G75*
G03*
X170667795Y-102450817I-1849999J-1799999D01*
G01*
%TO.C,Q14*%
X182190000Y-95780000D02*
X182190000Y-92180000D01*
X177740001Y-93980000D02*
G75*
G03*
X179241193Y-96336399I2599999J0D01*
G01*
X181462795Y-96304183D02*
G75*
G03*
X182189999Y-95779999I-1122795J2324183D01*
G01*
X179241193Y-91623600D02*
G75*
G03*
X177740000Y-93980000I1098807J-2356400D01*
G01*
X182189999Y-92180001D02*
G75*
G03*
X181462795Y-91655817I-1849999J-1799999D01*
G01*
%TO.C,D4*%
X199745000Y-102870000D02*
X200925000Y-102870000D01*
X200925000Y-101950000D02*
X200925000Y-103790000D01*
X200925000Y-103790000D02*
X204205000Y-103790000D01*
X201381000Y-101950000D02*
X201381000Y-103790000D01*
X201501000Y-101950000D02*
X201501000Y-103790000D01*
X201621000Y-101950000D02*
X201621000Y-103790000D01*
X204205000Y-101950000D02*
X200925000Y-101950000D01*
X204205000Y-103790000D02*
X204205000Y-101950000D01*
X205385000Y-102870000D02*
X204205000Y-102870000D01*
%TO.C,J11*%
X210125000Y-84395000D02*
X211455000Y-84395000D01*
X210125000Y-85725000D02*
X210125000Y-84395000D01*
X210125000Y-86995000D02*
X210125000Y-87055000D01*
X210125000Y-86995000D02*
X212785000Y-86995000D01*
X210125000Y-87055000D02*
X212785000Y-87055000D01*
X212785000Y-86995000D02*
X212785000Y-87055000D01*
%TO.C,J5*%
X185995000Y-93285000D02*
X187325000Y-93285000D01*
X185995000Y-94615000D02*
X185995000Y-93285000D01*
X185995000Y-95885000D02*
X185995000Y-95945000D01*
X185995000Y-95885000D02*
X188655000Y-95885000D01*
X185995000Y-95945000D02*
X188655000Y-95945000D01*
X188655000Y-95885000D02*
X188655000Y-95945000D01*
%TO.C,J3*%
X171390000Y-119320000D02*
X172720000Y-119320000D01*
X171390000Y-120650000D02*
X171390000Y-119320000D01*
X171390000Y-121920000D02*
X171390000Y-121980000D01*
X171390000Y-121920000D02*
X174050000Y-121920000D01*
X171390000Y-121980000D02*
X174050000Y-121980000D01*
X174050000Y-121920000D02*
X174050000Y-121980000D01*
%TO.C,R22*%
X172720000Y-105715000D02*
X172720000Y-106665000D01*
X173640000Y-106665000D02*
X171800000Y-106665000D01*
X171800000Y-106665000D02*
X171800000Y-110505000D01*
X173640000Y-110505000D02*
X173640000Y-106665000D01*
X171800000Y-110505000D02*
X173640000Y-110505000D01*
X172720000Y-111455000D02*
X172720000Y-110505000D01*
%TO.C,J7*%
X132020000Y-114240000D02*
X133350000Y-114240000D01*
X132020000Y-115570000D02*
X132020000Y-114240000D01*
X132020000Y-116840000D02*
X132020000Y-116900000D01*
X132020000Y-116840000D02*
X134680000Y-116840000D01*
X132020000Y-116900000D02*
X134680000Y-116900000D01*
X134680000Y-116840000D02*
X134680000Y-116900000D01*
%TO.C,R21*%
X173660000Y-86995000D02*
X174610000Y-86995000D01*
X174610000Y-86075000D02*
X174610000Y-87915000D01*
X174610000Y-87915000D02*
X178450000Y-87915000D01*
X178450000Y-86075000D02*
X174610000Y-86075000D01*
X178450000Y-87915000D02*
X178450000Y-86075000D01*
X179400000Y-86995000D02*
X178450000Y-86995000D01*
%TO.C,D1*%
X152434000Y-99990000D02*
X152590000Y-99990000D01*
X154750000Y-99990000D02*
X154906000Y-99990000D01*
X152591392Y-96757666D02*
G75*
G03*
X152434485Y-99989999I1078608J-1672334D01*
G01*
X152590164Y-97388871D02*
G75*
G03*
X152590001Y-99470960I1079836J-1041129D01*
G01*
X154749999Y-99470960D02*
G75*
G03*
X154749836Y-97388871I-1079999J1040960D01*
G01*
X154905515Y-99989999D02*
G75*
G03*
X154748608Y-96757666I-1235515J1559999D01*
G01*
%TO.C,Q20*%
X140915000Y-114830000D02*
X140915000Y-111230000D01*
X136465001Y-113030000D02*
G75*
G03*
X137966193Y-115386399I2599999J0D01*
G01*
X140187795Y-115354183D02*
G75*
G03*
X140914999Y-114829999I-1122795J2324183D01*
G01*
X137966193Y-110673600D02*
G75*
G03*
X136465000Y-113030000I1098807J-2356400D01*
G01*
X140914999Y-111230001D02*
G75*
G03*
X140187795Y-110705817I-1849999J-1799999D01*
G01*
%TO.C,R31*%
X140335000Y-107010000D02*
X140335000Y-106060000D01*
X139415000Y-106060000D02*
X141255000Y-106060000D01*
X141255000Y-106060000D02*
X141255000Y-102220000D01*
X139415000Y-102220000D02*
X139415000Y-106060000D01*
X141255000Y-102220000D02*
X139415000Y-102220000D01*
X140335000Y-101270000D02*
X140335000Y-102220000D01*
%TO.C,J10*%
X210125000Y-79315000D02*
X211455000Y-79315000D01*
X210125000Y-80645000D02*
X210125000Y-79315000D01*
X210125000Y-81915000D02*
X210125000Y-81975000D01*
X210125000Y-81915000D02*
X212785000Y-81915000D01*
X210125000Y-81975000D02*
X212785000Y-81975000D01*
X212785000Y-81915000D02*
X212785000Y-81975000D01*
%TO.C,J12*%
X210125000Y-89475000D02*
X211455000Y-89475000D01*
X210125000Y-90805000D02*
X210125000Y-89475000D01*
X210125000Y-92075000D02*
X210125000Y-92135000D01*
X210125000Y-92075000D02*
X212785000Y-92075000D01*
X210125000Y-92135000D02*
X212785000Y-92135000D01*
X212785000Y-92075000D02*
X212785000Y-92135000D01*
%TO.C,R32*%
X137795000Y-101270000D02*
X137795000Y-102220000D01*
X138715000Y-102220000D02*
X136875000Y-102220000D01*
X136875000Y-102220000D02*
X136875000Y-106060000D01*
X138715000Y-106060000D02*
X138715000Y-102220000D01*
X136875000Y-106060000D02*
X138715000Y-106060000D01*
X137795000Y-107010000D02*
X137795000Y-106060000D01*
%TO.C,J2*%
X144085000Y-119320000D02*
X145415000Y-119320000D01*
X144085000Y-120650000D02*
X144085000Y-119320000D01*
X144085000Y-121920000D02*
X144085000Y-121980000D01*
X144085000Y-121920000D02*
X146745000Y-121920000D01*
X144085000Y-121980000D02*
X146745000Y-121980000D01*
X146745000Y-121920000D02*
X146745000Y-121980000D01*
%TO.C,Q15*%
X188540000Y-107210000D02*
X188540000Y-103610000D01*
X184090001Y-105410000D02*
G75*
G03*
X185591193Y-107766399I2599999J0D01*
G01*
X187812795Y-107734183D02*
G75*
G03*
X188539999Y-107209999I-1122795J2324183D01*
G01*
X185591193Y-103053600D02*
G75*
G03*
X184090000Y-105410000I1098807J-2356400D01*
G01*
X188539999Y-103610001D02*
G75*
G03*
X187812795Y-103085817I-1849999J-1799999D01*
G01*
%TO.C,R15*%
X158115000Y-105715000D02*
X158115000Y-106665000D01*
X159035000Y-106665000D02*
X157195000Y-106665000D01*
X157195000Y-106665000D02*
X157195000Y-110505000D01*
X159035000Y-110505000D02*
X159035000Y-106665000D01*
X157195000Y-110505000D02*
X159035000Y-110505000D01*
X158115000Y-111455000D02*
X158115000Y-110505000D01*
%TO.C,R30*%
X193040000Y-101270000D02*
X193040000Y-102220000D01*
X193960000Y-102220000D02*
X192120000Y-102220000D01*
X192120000Y-102220000D02*
X192120000Y-106060000D01*
X193960000Y-106060000D02*
X193960000Y-102220000D01*
X192120000Y-106060000D02*
X193960000Y-106060000D01*
X193040000Y-107010000D02*
X193040000Y-106060000D01*
%TO.C,Q8*%
X156790000Y-106575000D02*
X156790000Y-102975000D01*
X152340001Y-104775000D02*
G75*
G03*
X153841193Y-107131399I2599999J0D01*
G01*
X156062795Y-107099183D02*
G75*
G03*
X156789999Y-106574999I-1122795J2324183D01*
G01*
X153841193Y-102418600D02*
G75*
G03*
X152340000Y-104775000I1098807J-2356400D01*
G01*
X156789999Y-102975001D02*
G75*
G03*
X156062795Y-102450817I-1849999J-1799999D01*
G01*
%TO.C,R11*%
X145415000Y-105715000D02*
X145415000Y-106665000D01*
X146335000Y-106665000D02*
X144495000Y-106665000D01*
X144495000Y-106665000D02*
X144495000Y-110505000D01*
X146335000Y-110505000D02*
X146335000Y-106665000D01*
X144495000Y-110505000D02*
X146335000Y-110505000D01*
X145415000Y-111455000D02*
X145415000Y-110505000D01*
%TO.C,J14*%
X132020000Y-106620000D02*
X133350000Y-106620000D01*
X132020000Y-107950000D02*
X132020000Y-106620000D01*
X132020000Y-109220000D02*
X132020000Y-109280000D01*
X132020000Y-109220000D02*
X134680000Y-109220000D01*
X132020000Y-109280000D02*
X134680000Y-109280000D01*
X134680000Y-109220000D02*
X134680000Y-109280000D01*
%TO.C,Q9*%
X182190000Y-107210000D02*
X182190000Y-103610000D01*
X177740001Y-105410000D02*
G75*
G03*
X179241193Y-107766399I2599999J0D01*
G01*
X181462795Y-107734183D02*
G75*
G03*
X182189999Y-107209999I-1122795J2324183D01*
G01*
X179241193Y-103053600D02*
G75*
G03*
X177740000Y-105410000I1098807J-2356400D01*
G01*
X182189999Y-103610001D02*
G75*
G03*
X181462795Y-103085817I-1849999J-1799999D01*
G01*
%TO.C,D3*%
X199745000Y-100330000D02*
X200925000Y-100330000D01*
X200925000Y-99410000D02*
X200925000Y-101250000D01*
X200925000Y-101250000D02*
X204205000Y-101250000D01*
X201381000Y-99410000D02*
X201381000Y-101250000D01*
X201501000Y-99410000D02*
X201501000Y-101250000D01*
X201621000Y-99410000D02*
X201621000Y-101250000D01*
X204205000Y-99410000D02*
X200925000Y-99410000D01*
X204205000Y-101250000D02*
X204205000Y-99410000D01*
X205385000Y-100330000D02*
X204205000Y-100330000D01*
%TO.C,R29*%
X197485000Y-93675000D02*
X197485000Y-92725000D01*
X196565000Y-92725000D02*
X198405000Y-92725000D01*
X198405000Y-92725000D02*
X198405000Y-88885000D01*
X196565000Y-88885000D02*
X196565000Y-92725000D01*
X198405000Y-88885000D02*
X196565000Y-88885000D01*
X197485000Y-87935000D02*
X197485000Y-88885000D01*
%TO.C,D5*%
X199740000Y-106045000D02*
X200920000Y-106045000D01*
X200920000Y-105125000D02*
X200920000Y-106965000D01*
X200920000Y-106965000D02*
X204200000Y-106965000D01*
X201376000Y-105125000D02*
X201376000Y-106965000D01*
X201496000Y-105125000D02*
X201496000Y-106965000D01*
X201616000Y-105125000D02*
X201616000Y-106965000D01*
X204200000Y-105125000D02*
X200920000Y-105125000D01*
X204200000Y-106965000D02*
X204200000Y-105125000D01*
X205380000Y-106045000D02*
X204200000Y-106045000D01*
%TO.C,Q6*%
X151710000Y-106575000D02*
X151710000Y-102975000D01*
X147260001Y-104775000D02*
G75*
G03*
X148761193Y-107131399I2599999J0D01*
G01*
X150982795Y-107099183D02*
G75*
G03*
X151709999Y-106574999I-1122795J2324183D01*
G01*
X148761193Y-102418600D02*
G75*
G03*
X147260000Y-104775000I1098807J-2356400D01*
G01*
X151709999Y-102975001D02*
G75*
G03*
X150982795Y-102450817I-1849999J-1799999D01*
G01*
%TD*%
M02*
