%TF.GenerationSoftware,KiCad,Pcbnew,7.0.8*%
%TF.CreationDate,2023-11-03T11:37:25-07:00*%
%TF.ProjectId,adder,61646465-722e-46b6-9963-61645f706362,rev?*%
%TF.SameCoordinates,Original*%
%TF.FileFunction,Legend,Bot*%
%TF.FilePolarity,Positive*%
%FSLAX46Y46*%
G04 Gerber Fmt 4.6, Leading zero omitted, Abs format (unit mm)*
G04 Created by KiCad (PCBNEW 7.0.8) date 2023-11-03 11:37:25*
%MOMM*%
%LPD*%
G01*
G04 APERTURE LIST*
%ADD10C,0.300000*%
G04 APERTURE END LIST*
D10*
X207090489Y-82350828D02*
X207090489Y-80850828D01*
X207090489Y-80850828D02*
X206733346Y-80850828D01*
X206733346Y-80850828D02*
X206519060Y-80922257D01*
X206519060Y-80922257D02*
X206376203Y-81065114D01*
X206376203Y-81065114D02*
X206304774Y-81207971D01*
X206304774Y-81207971D02*
X206233346Y-81493685D01*
X206233346Y-81493685D02*
X206233346Y-81707971D01*
X206233346Y-81707971D02*
X206304774Y-81993685D01*
X206304774Y-81993685D02*
X206376203Y-82136542D01*
X206376203Y-82136542D02*
X206519060Y-82279400D01*
X206519060Y-82279400D02*
X206733346Y-82350828D01*
X206733346Y-82350828D02*
X207090489Y-82350828D01*
X205376203Y-82350828D02*
X205519060Y-82279400D01*
X205519060Y-82279400D02*
X205590489Y-82207971D01*
X205590489Y-82207971D02*
X205661917Y-82065114D01*
X205661917Y-82065114D02*
X205661917Y-81636542D01*
X205661917Y-81636542D02*
X205590489Y-81493685D01*
X205590489Y-81493685D02*
X205519060Y-81422257D01*
X205519060Y-81422257D02*
X205376203Y-81350828D01*
X205376203Y-81350828D02*
X205161917Y-81350828D01*
X205161917Y-81350828D02*
X205019060Y-81422257D01*
X205019060Y-81422257D02*
X204947632Y-81493685D01*
X204947632Y-81493685D02*
X204876203Y-81636542D01*
X204876203Y-81636542D02*
X204876203Y-82065114D01*
X204876203Y-82065114D02*
X204947632Y-82207971D01*
X204947632Y-82207971D02*
X205019060Y-82279400D01*
X205019060Y-82279400D02*
X205161917Y-82350828D01*
X205161917Y-82350828D02*
X205376203Y-82350828D01*
X203090489Y-81350828D02*
X203090489Y-82350828D01*
X203090489Y-81493685D02*
X203019060Y-81422257D01*
X203019060Y-81422257D02*
X202876203Y-81350828D01*
X202876203Y-81350828D02*
X202661917Y-81350828D01*
X202661917Y-81350828D02*
X202519060Y-81422257D01*
X202519060Y-81422257D02*
X202447632Y-81565114D01*
X202447632Y-81565114D02*
X202447632Y-82350828D01*
X201519060Y-82350828D02*
X201661917Y-82279400D01*
X201661917Y-82279400D02*
X201733346Y-82207971D01*
X201733346Y-82207971D02*
X201804774Y-82065114D01*
X201804774Y-82065114D02*
X201804774Y-81636542D01*
X201804774Y-81636542D02*
X201733346Y-81493685D01*
X201733346Y-81493685D02*
X201661917Y-81422257D01*
X201661917Y-81422257D02*
X201519060Y-81350828D01*
X201519060Y-81350828D02*
X201304774Y-81350828D01*
X201304774Y-81350828D02*
X201161917Y-81422257D01*
X201161917Y-81422257D02*
X201090489Y-81493685D01*
X201090489Y-81493685D02*
X201019060Y-81636542D01*
X201019060Y-81636542D02*
X201019060Y-82065114D01*
X201019060Y-82065114D02*
X201090489Y-82207971D01*
X201090489Y-82207971D02*
X201161917Y-82279400D01*
X201161917Y-82279400D02*
X201304774Y-82350828D01*
X201304774Y-82350828D02*
X201519060Y-82350828D01*
X200590488Y-81350828D02*
X200019060Y-81350828D01*
X200376203Y-80850828D02*
X200376203Y-82136542D01*
X200376203Y-82136542D02*
X200304774Y-82279400D01*
X200304774Y-82279400D02*
X200161917Y-82350828D01*
X200161917Y-82350828D02*
X200019060Y-82350828D01*
X198590488Y-81350828D02*
X198019060Y-81350828D01*
X198376203Y-80850828D02*
X198376203Y-82136542D01*
X198376203Y-82136542D02*
X198304774Y-82279400D01*
X198304774Y-82279400D02*
X198161917Y-82350828D01*
X198161917Y-82350828D02*
X198019060Y-82350828D01*
X196876203Y-81350828D02*
X196876203Y-82350828D01*
X197519060Y-81350828D02*
X197519060Y-82136542D01*
X197519060Y-82136542D02*
X197447631Y-82279400D01*
X197447631Y-82279400D02*
X197304774Y-82350828D01*
X197304774Y-82350828D02*
X197090488Y-82350828D01*
X197090488Y-82350828D02*
X196947631Y-82279400D01*
X196947631Y-82279400D02*
X196876203Y-82207971D01*
X196161917Y-82350828D02*
X196161917Y-81350828D01*
X196161917Y-81493685D02*
X196090488Y-81422257D01*
X196090488Y-81422257D02*
X195947631Y-81350828D01*
X195947631Y-81350828D02*
X195733345Y-81350828D01*
X195733345Y-81350828D02*
X195590488Y-81422257D01*
X195590488Y-81422257D02*
X195519060Y-81565114D01*
X195519060Y-81565114D02*
X195519060Y-82350828D01*
X195519060Y-81565114D02*
X195447631Y-81422257D01*
X195447631Y-81422257D02*
X195304774Y-81350828D01*
X195304774Y-81350828D02*
X195090488Y-81350828D01*
X195090488Y-81350828D02*
X194947631Y-81422257D01*
X194947631Y-81422257D02*
X194876202Y-81565114D01*
X194876202Y-81565114D02*
X194876202Y-82350828D01*
X194161917Y-82350828D02*
X194161917Y-80850828D01*
X194161917Y-81422257D02*
X194019060Y-81350828D01*
X194019060Y-81350828D02*
X193733345Y-81350828D01*
X193733345Y-81350828D02*
X193590488Y-81422257D01*
X193590488Y-81422257D02*
X193519060Y-81493685D01*
X193519060Y-81493685D02*
X193447631Y-81636542D01*
X193447631Y-81636542D02*
X193447631Y-82065114D01*
X193447631Y-82065114D02*
X193519060Y-82207971D01*
X193519060Y-82207971D02*
X193590488Y-82279400D01*
X193590488Y-82279400D02*
X193733345Y-82350828D01*
X193733345Y-82350828D02*
X194019060Y-82350828D01*
X194019060Y-82350828D02*
X194161917Y-82279400D01*
X192590488Y-82350828D02*
X192733345Y-82279400D01*
X192733345Y-82279400D02*
X192804774Y-82136542D01*
X192804774Y-82136542D02*
X192804774Y-80850828D01*
X191447631Y-82279400D02*
X191590488Y-82350828D01*
X191590488Y-82350828D02*
X191876203Y-82350828D01*
X191876203Y-82350828D02*
X192019060Y-82279400D01*
X192019060Y-82279400D02*
X192090488Y-82136542D01*
X192090488Y-82136542D02*
X192090488Y-81565114D01*
X192090488Y-81565114D02*
X192019060Y-81422257D01*
X192019060Y-81422257D02*
X191876203Y-81350828D01*
X191876203Y-81350828D02*
X191590488Y-81350828D01*
X191590488Y-81350828D02*
X191447631Y-81422257D01*
X191447631Y-81422257D02*
X191376203Y-81565114D01*
X191376203Y-81565114D02*
X191376203Y-81707971D01*
X191376203Y-81707971D02*
X192090488Y-81850828D01*
X188947632Y-82350828D02*
X188947632Y-80850828D01*
X188947632Y-82279400D02*
X189090489Y-82350828D01*
X189090489Y-82350828D02*
X189376203Y-82350828D01*
X189376203Y-82350828D02*
X189519060Y-82279400D01*
X189519060Y-82279400D02*
X189590489Y-82207971D01*
X189590489Y-82207971D02*
X189661917Y-82065114D01*
X189661917Y-82065114D02*
X189661917Y-81636542D01*
X189661917Y-81636542D02*
X189590489Y-81493685D01*
X189590489Y-81493685D02*
X189519060Y-81422257D01*
X189519060Y-81422257D02*
X189376203Y-81350828D01*
X189376203Y-81350828D02*
X189090489Y-81350828D01*
X189090489Y-81350828D02*
X188947632Y-81422257D01*
X188233346Y-82350828D02*
X188233346Y-81350828D01*
X188233346Y-81636542D02*
X188161917Y-81493685D01*
X188161917Y-81493685D02*
X188090489Y-81422257D01*
X188090489Y-81422257D02*
X187947631Y-81350828D01*
X187947631Y-81350828D02*
X187804774Y-81350828D01*
X187447632Y-81350828D02*
X187090489Y-82350828D01*
X186733346Y-81350828D02*
X187090489Y-82350828D01*
X187090489Y-82350828D02*
X187233346Y-82707971D01*
X187233346Y-82707971D02*
X187304775Y-82779400D01*
X187304775Y-82779400D02*
X187447632Y-82850828D01*
X186161918Y-82207971D02*
X186090489Y-82279400D01*
X186090489Y-82279400D02*
X186161918Y-82350828D01*
X186161918Y-82350828D02*
X186233346Y-82279400D01*
X186233346Y-82279400D02*
X186161918Y-82207971D01*
X186161918Y-82207971D02*
X186161918Y-82350828D01*
M02*
