M48
; DRILL file {KiCad 7.0.8} date Fri 03 Nov 2023 11:37:27 AM PDT
; FORMAT={-:-/ absolute / inch / decimal}
; #@! TF.CreationDate,2023-11-03T11:37:27-07:00
; #@! TF.GenerationSoftware,Kicad,Pcbnew,7.0.8
; #@! TF.FileFunction,Plated,1,2,PTH
FMAT,2
INCH
; #@! TA.AperFunction,Plated,PTH,ViaDrill
T1C0.0157
; #@! TA.AperFunction,Plated,PTH,ComponentDrill
T2C0.0276
; #@! TA.AperFunction,Plated,PTH,ComponentDrill
T3C0.0295
; #@! TA.AperFunction,Plated,PTH,ComponentDrill
T4C0.0315
; #@! TA.AperFunction,Plated,PTH,ComponentDrill
T5C0.0354
; #@! TA.AperFunction,Plated,PTH,ComponentDrill
T6C0.0394
%
G90
G05
T1
X5.9625Y-4.3125
X6.0111Y-4.3611
X6.525Y-4.375
X6.55Y-4.65
X6.575Y-4.325
X6.8Y-4.35
X7.1Y-3.325
T2
X5.425Y-3.95
X5.425Y-4.25
X5.525Y-3.95
X5.525Y-4.25
X5.725Y-4.125
X5.725Y-4.425
X5.9Y-3.625
X5.9Y-3.925
X6.05Y-3.3
X6.05Y-3.6
X6.175Y-3.725
X6.225Y-4.125
X6.225Y-4.425
X6.325Y-4.125
X6.325Y-4.425
X6.475Y-3.725
X6.8Y-3.425
X6.8Y-3.625
X6.8Y-3.925
X6.8Y-4.125
X6.8Y-4.425
X6.925Y-3.85
X6.925Y-4.15
X6.925Y-4.45
X6.925Y-4.75
X7.1Y-3.425
X7.225Y-3.4
X7.225Y-3.7
X7.475Y-3.85
X7.475Y-4.15
X7.475Y-4.45
X7.475Y-4.75
X7.6Y-3.95
X7.6Y-4.25
X7.7Y-3.95
X7.7Y-4.25
X7.775Y-3.425
X7.775Y-3.725
X8.075Y-3.425
X8.075Y-3.725
T3
X7.8248Y-4.175
X7.825Y-3.95
X7.825Y-4.05
X8.1248Y-4.175
X8.125Y-3.95
X8.125Y-4.05
T4
X5.475Y-4.35
X5.475Y-4.45
X5.475Y-4.55
X5.9Y-4.025
X5.9Y-4.125
X5.9Y-4.225
X6.1Y-4.025
X6.1Y-4.125
X6.1Y-4.225
X6.475Y-4.025
X6.475Y-4.125
X6.475Y-4.225
X6.675Y-3.725
X6.675Y-3.825
X6.675Y-3.925
X6.675Y-4.025
X6.675Y-4.125
X6.675Y-4.225
X7.1Y-3.6
X7.1Y-3.7
X7.1Y-3.8
X7.1Y-4.05
X7.1Y-4.15
X7.1Y-4.25
X7.1Y-4.35
X7.1Y-4.45
X7.1Y-4.55
X7.35Y-4.05
X7.35Y-4.15
X7.35Y-4.25
X7.35Y-4.35
X7.35Y-4.45
X7.35Y-4.55
X7.65Y-3.625
X7.65Y-3.725
X7.65Y-3.825
X7.95Y-3.625
X7.95Y-3.725
X7.95Y-3.825
X7.975Y-4.3
X7.975Y-4.4
X7.975Y-4.5
T5
X6.05Y-3.8252
X6.05Y-3.9252
X6.475Y-3.825
X6.475Y-3.925
T6
X5.25Y-4.25
X5.25Y-4.55
X5.275Y-3.95
X5.725Y-4.75
X6.35Y-3.35
X6.375Y-4.75
X6.675Y-3.35
X6.8Y-4.75
X7.05Y-4.75
X7.375Y-3.725
X8.325Y-3.175
X8.325Y-3.375
X8.325Y-3.575
T0
M30
