%TF.GenerationSoftware,KiCad,Pcbnew,7.0.8*%
%TF.CreationDate,2023-11-03T11:37:25-07:00*%
%TF.ProjectId,adder,61646465-722e-46b6-9963-61645f706362,rev?*%
%TF.SameCoordinates,Original*%
%TF.FileFunction,Soldermask,Top*%
%TF.FilePolarity,Negative*%
%FSLAX46Y46*%
G04 Gerber Fmt 4.6, Leading zero omitted, Abs format (unit mm)*
G04 Created by KiCad (PCBNEW 7.0.8) date 2023-11-03 11:37:25*
%MOMM*%
%LPD*%
G01*
G04 APERTURE LIST*
%ADD10R,1.500000X1.500000*%
%ADD11C,1.500000*%
%ADD12R,1.700000X1.700000*%
%ADD13C,1.400000*%
%ADD14O,1.400000X1.400000*%
%ADD15C,2.100000*%
%ADD16R,1.800000X1.800000*%
%ADD17C,1.800000*%
%ADD18O,1.500000X1.500000*%
G04 APERTURE END LIST*
D10*
%TO.C,Q19*%
X202565000Y-114300000D03*
D11*
X202565000Y-111760000D03*
X202565000Y-109220000D03*
%TD*%
D10*
%TO.C,Q10*%
X180340000Y-115570000D03*
D11*
X180340000Y-113030000D03*
X180340000Y-110490000D03*
%TD*%
D12*
%TO.C,J4*%
X179070000Y-120650000D03*
%TD*%
D13*
%TO.C,R27*%
X205105000Y-94615000D03*
D14*
X205105000Y-86995000D03*
%TD*%
D13*
%TO.C,R25*%
X189865000Y-105410000D03*
D14*
X189865000Y-97790000D03*
%TD*%
D13*
%TO.C,R24*%
X183515000Y-93980000D03*
D14*
X183515000Y-86360000D03*
%TD*%
D10*
%TO.C,Q17*%
X201930000Y-97155000D03*
D11*
X201930000Y-94615000D03*
X201930000Y-92075000D03*
%TD*%
D13*
%TO.C,R18*%
X160655000Y-104775000D03*
D14*
X160655000Y-112395000D03*
%TD*%
D13*
%TO.C,R23*%
X172720000Y-92075000D03*
D14*
X172720000Y-99695000D03*
%TD*%
D12*
%TO.C,J8*%
X161290000Y-85090000D03*
%TD*%
D10*
%TO.C,Q11*%
X164465000Y-107315000D03*
D11*
X164465000Y-104775000D03*
X164465000Y-102235000D03*
%TD*%
D10*
%TO.C,Q18*%
X194310000Y-97155000D03*
D11*
X194310000Y-94615000D03*
X194310000Y-92075000D03*
%TD*%
D10*
%TO.C,Q16*%
X186690000Y-115570000D03*
D11*
X186690000Y-113030000D03*
X186690000Y-110490000D03*
%TD*%
D12*
%TO.C,J13*%
X133985000Y-100330000D03*
%TD*%
D13*
%TO.C,R17*%
X175895000Y-113030000D03*
D14*
X175895000Y-120650000D03*
%TD*%
D13*
%TO.C,R28*%
X195580000Y-107950000D03*
D14*
X195580000Y-100330000D03*
%TD*%
D15*
%TO.C,REF\u002A\u002A*%
X133350000Y-80010000D03*
%TD*%
D12*
%TO.C,J6*%
X161925000Y-120650000D03*
%TD*%
D13*
%TO.C,R20*%
X156845000Y-94615000D03*
D14*
X164465000Y-94615000D03*
%TD*%
D15*
%TO.C,REF\u002A\u002A*%
X215900000Y-121920000D03*
%TD*%
D13*
%TO.C,R16*%
X175895000Y-105410000D03*
D14*
X175895000Y-97790000D03*
%TD*%
D13*
%TO.C,R19*%
X153670000Y-83820000D03*
D14*
X153670000Y-91440000D03*
%TD*%
D13*
%TO.C,R26*%
X189865000Y-113030000D03*
D14*
X189865000Y-120650000D03*
%TD*%
D10*
%TO.C,Q12*%
X169545000Y-99695000D03*
D11*
X169545000Y-97155000D03*
X169545000Y-94615000D03*
%TD*%
D16*
%TO.C,D2*%
X164465000Y-99695000D03*
D17*
X164465000Y-97155000D03*
%TD*%
D12*
%TO.C,J9*%
X169545000Y-85090000D03*
%TD*%
D13*
%TO.C,R12*%
X149860000Y-92075000D03*
D14*
X149860000Y-99695000D03*
%TD*%
D15*
%TO.C,REF\u002A\u002A*%
X133350000Y-121920000D03*
%TD*%
D10*
%TO.C,Q13*%
X169545000Y-107315000D03*
D11*
X169545000Y-104775000D03*
X169545000Y-102235000D03*
%TD*%
D10*
%TO.C,Q14*%
X180340000Y-96520000D03*
D11*
X180340000Y-93980000D03*
X180340000Y-91440000D03*
%TD*%
D10*
%TO.C,D4*%
X198755000Y-102870000D03*
D18*
X206375000Y-102870000D03*
%TD*%
D12*
%TO.C,J11*%
X211455000Y-85725000D03*
%TD*%
%TO.C,J5*%
X187325000Y-94615000D03*
%TD*%
%TO.C,J3*%
X172720000Y-120650000D03*
%TD*%
D13*
%TO.C,R22*%
X172720000Y-104775000D03*
D14*
X172720000Y-112395000D03*
%TD*%
D12*
%TO.C,J7*%
X133350000Y-115570000D03*
%TD*%
D13*
%TO.C,R21*%
X172720000Y-86995000D03*
D14*
X180340000Y-86995000D03*
%TD*%
D16*
%TO.C,D1*%
X153670000Y-99700000D03*
D17*
X153670000Y-97160000D03*
%TD*%
D10*
%TO.C,Q20*%
X139065000Y-115570000D03*
D11*
X139065000Y-113030000D03*
X139065000Y-110490000D03*
%TD*%
D13*
%TO.C,R31*%
X140335000Y-107950000D03*
D14*
X140335000Y-100330000D03*
%TD*%
D12*
%TO.C,J10*%
X211455000Y-80645000D03*
%TD*%
%TO.C,J12*%
X211455000Y-90805000D03*
%TD*%
D13*
%TO.C,R32*%
X137795000Y-100330000D03*
D14*
X137795000Y-107950000D03*
%TD*%
D12*
%TO.C,J2*%
X145415000Y-120650000D03*
%TD*%
D15*
%TO.C,REF\u002A\u002A*%
X215900000Y-80010000D03*
%TD*%
D10*
%TO.C,Q15*%
X186690000Y-107950000D03*
D11*
X186690000Y-105410000D03*
X186690000Y-102870000D03*
%TD*%
D13*
%TO.C,R15*%
X158115000Y-104775000D03*
D14*
X158115000Y-112395000D03*
%TD*%
D13*
%TO.C,R30*%
X193040000Y-100330000D03*
D14*
X193040000Y-107950000D03*
%TD*%
D10*
%TO.C,Q8*%
X154940000Y-107315000D03*
D11*
X154940000Y-104775000D03*
X154940000Y-102235000D03*
%TD*%
D13*
%TO.C,R11*%
X145415000Y-104775000D03*
D14*
X145415000Y-112395000D03*
%TD*%
D12*
%TO.C,J14*%
X133350000Y-107950000D03*
%TD*%
D10*
%TO.C,Q9*%
X180340000Y-107950000D03*
D11*
X180340000Y-105410000D03*
X180340000Y-102870000D03*
%TD*%
D10*
%TO.C,D3*%
X198755000Y-100330000D03*
D18*
X206375000Y-100330000D03*
%TD*%
D13*
%TO.C,R29*%
X197485000Y-94615000D03*
D14*
X197485000Y-86995000D03*
%TD*%
D10*
%TO.C,D5*%
X198750000Y-106045000D03*
D18*
X206370000Y-106045000D03*
%TD*%
D10*
%TO.C,Q6*%
X149860000Y-107315000D03*
D11*
X149860000Y-104775000D03*
X149860000Y-102235000D03*
%TD*%
M02*
