M48
; DRILL file {KiCad 7.0.8} date Mon 09 Oct 2023 04:54:41 PM PDT
; FORMAT={-:-/ absolute / inch / decimal}
; #@! TF.CreationDate,2023-10-09T16:54:41-07:00
; #@! TF.GenerationSoftware,Kicad,Pcbnew,7.0.8
; #@! TF.FileFunction,Plated,1,2,PTH
FMAT,2
INCH
; #@! TA.AperFunction,Plated,PTH,ComponentDrill
T1C0.0315
; #@! TA.AperFunction,Plated,PTH,ComponentDrill
T2C0.0354
%
G90
G05
T1
X2.4Y-3.7
X2.4Y-4.1
X2.4Y-4.55
X2.6Y-3.5
X2.6Y-3.9
X2.6Y-4.0
X2.6Y-4.1
X2.6Y-4.2
X2.8Y-4.0
X2.8Y-4.1
X2.8Y-4.2
X2.8Y-4.55
T2
X2.25Y-4.7
X2.25Y-4.8
X2.25Y-4.9
X2.25Y-5.0
X2.35Y-4.7
X2.35Y-4.8
X2.35Y-4.9
X2.35Y-5.0
X2.4Y-3.4
X2.5Y-5.0
X2.7Y-3.4
X2.7Y-3.6
X2.7Y-3.7
X2.7Y-3.8
X2.7Y-4.7
X2.7Y-4.8
X2.7Y-4.9
X2.7Y-5.0
X2.8Y-4.35
X2.8Y-4.45
X2.8Y-4.7
X2.8Y-4.8
X2.8Y-4.9
X2.8Y-5.0
T0
M30
