%TF.GenerationSoftware,KiCad,Pcbnew,7.0.8*%
%TF.CreationDate,2023-10-09T16:54:36-07:00*%
%TF.ProjectId,decoder_head,6465636f-6465-4725-9f68-6561642e6b69,rev?*%
%TF.SameCoordinates,Original*%
%TF.FileFunction,Legend,Bot*%
%TF.FilePolarity,Positive*%
%FSLAX46Y46*%
G04 Gerber Fmt 4.6, Leading zero omitted, Abs format (unit mm)*
G04 Created by KiCad (PCBNEW 7.0.8) date 2023-10-09 16:54:36*
%MOMM*%
%LPD*%
G01*
G04 APERTURE LIST*
%ADD10C,0.150000*%
G04 APERTURE END LIST*
D10*
X59206190Y-127700678D02*
X59327142Y-127640202D01*
X59327142Y-127640202D02*
X59448095Y-127519250D01*
X59448095Y-127519250D02*
X59629523Y-127337821D01*
X59629523Y-127337821D02*
X59750476Y-127277345D01*
X59750476Y-127277345D02*
X59871428Y-127277345D01*
X59810952Y-127579726D02*
X59931904Y-127519250D01*
X59931904Y-127519250D02*
X60052857Y-127398297D01*
X60052857Y-127398297D02*
X60113333Y-127156392D01*
X60113333Y-127156392D02*
X60113333Y-126733059D01*
X60113333Y-126733059D02*
X60052857Y-126491154D01*
X60052857Y-126491154D02*
X59931904Y-126370202D01*
X59931904Y-126370202D02*
X59810952Y-126309726D01*
X59810952Y-126309726D02*
X59569047Y-126309726D01*
X59569047Y-126309726D02*
X59448095Y-126370202D01*
X59448095Y-126370202D02*
X59327142Y-126491154D01*
X59327142Y-126491154D02*
X59266666Y-126733059D01*
X59266666Y-126733059D02*
X59266666Y-127156392D01*
X59266666Y-127156392D02*
X59327142Y-127398297D01*
X59327142Y-127398297D02*
X59448095Y-127519250D01*
X59448095Y-127519250D02*
X59569047Y-127579726D01*
X59569047Y-127579726D02*
X59810952Y-127579726D01*
M02*
