%TF.GenerationSoftware,KiCad,Pcbnew,7.0.8*%
%TF.CreationDate,2023-10-09T16:50:42-07:00*%
%TF.ProjectId,decoder_part,6465636f-6465-4725-9f70-6172742e6b69,rev?*%
%TF.SameCoordinates,Original*%
%TF.FileFunction,Legend,Top*%
%TF.FilePolarity,Positive*%
%FSLAX46Y46*%
G04 Gerber Fmt 4.6, Leading zero omitted, Abs format (unit mm)*
G04 Created by KiCad (PCBNEW 7.0.8) date 2023-10-09 16:50:42*
%MOMM*%
%LPD*%
G01*
G04 APERTURE LIST*
%ADD10C,0.150000*%
%ADD11C,0.120000*%
G04 APERTURE END LIST*
D10*
X96900952Y-61510057D02*
X96805714Y-61462438D01*
X96805714Y-61462438D02*
X96710476Y-61367200D01*
X96710476Y-61367200D02*
X96567619Y-61224342D01*
X96567619Y-61224342D02*
X96472381Y-61176723D01*
X96472381Y-61176723D02*
X96377143Y-61176723D01*
X96424762Y-61414819D02*
X96329524Y-61367200D01*
X96329524Y-61367200D02*
X96234286Y-61271961D01*
X96234286Y-61271961D02*
X96186667Y-61081485D01*
X96186667Y-61081485D02*
X96186667Y-60748152D01*
X96186667Y-60748152D02*
X96234286Y-60557676D01*
X96234286Y-60557676D02*
X96329524Y-60462438D01*
X96329524Y-60462438D02*
X96424762Y-60414819D01*
X96424762Y-60414819D02*
X96615238Y-60414819D01*
X96615238Y-60414819D02*
X96710476Y-60462438D01*
X96710476Y-60462438D02*
X96805714Y-60557676D01*
X96805714Y-60557676D02*
X96853333Y-60748152D01*
X96853333Y-60748152D02*
X96853333Y-61081485D01*
X96853333Y-61081485D02*
X96805714Y-61271961D01*
X96805714Y-61271961D02*
X96710476Y-61367200D01*
X96710476Y-61367200D02*
X96615238Y-61414819D01*
X96615238Y-61414819D02*
X96424762Y-61414819D01*
X46466191Y-48714819D02*
X46466191Y-47714819D01*
X46942381Y-48714819D02*
X46942381Y-47714819D01*
X46942381Y-47714819D02*
X47513809Y-48714819D01*
X47513809Y-48714819D02*
X47513809Y-47714819D01*
X78525714Y-61584819D02*
X77954286Y-61584819D01*
X78240000Y-61584819D02*
X78240000Y-60584819D01*
X78240000Y-60584819D02*
X78144762Y-60727676D01*
X78144762Y-60727676D02*
X78049524Y-60822914D01*
X78049524Y-60822914D02*
X77954286Y-60870533D01*
X78954286Y-61584819D02*
X78954286Y-60584819D01*
X79525714Y-61584819D02*
X79097143Y-61013390D01*
X79525714Y-60584819D02*
X78954286Y-61156247D01*
X72844819Y-60999523D02*
X71844819Y-60999523D01*
X71844819Y-60999523D02*
X72844819Y-60428095D01*
X72844819Y-60428095D02*
X71844819Y-60428095D01*
X71844819Y-59761428D02*
X71844819Y-59570952D01*
X71844819Y-59570952D02*
X71892438Y-59475714D01*
X71892438Y-59475714D02*
X71987676Y-59380476D01*
X71987676Y-59380476D02*
X72178152Y-59332857D01*
X72178152Y-59332857D02*
X72511485Y-59332857D01*
X72511485Y-59332857D02*
X72701961Y-59380476D01*
X72701961Y-59380476D02*
X72797200Y-59475714D01*
X72797200Y-59475714D02*
X72844819Y-59570952D01*
X72844819Y-59570952D02*
X72844819Y-59761428D01*
X72844819Y-59761428D02*
X72797200Y-59856666D01*
X72797200Y-59856666D02*
X72701961Y-59951904D01*
X72701961Y-59951904D02*
X72511485Y-59999523D01*
X72511485Y-59999523D02*
X72178152Y-59999523D01*
X72178152Y-59999523D02*
X71987676Y-59951904D01*
X71987676Y-59951904D02*
X71892438Y-59856666D01*
X71892438Y-59856666D02*
X71844819Y-59761428D01*
X72844819Y-58332857D02*
X72368628Y-58666190D01*
X72844819Y-58904285D02*
X71844819Y-58904285D01*
X71844819Y-58904285D02*
X71844819Y-58523333D01*
X71844819Y-58523333D02*
X71892438Y-58428095D01*
X71892438Y-58428095D02*
X71940057Y-58380476D01*
X71940057Y-58380476D02*
X72035295Y-58332857D01*
X72035295Y-58332857D02*
X72178152Y-58332857D01*
X72178152Y-58332857D02*
X72273390Y-58380476D01*
X72273390Y-58380476D02*
X72321009Y-58428095D01*
X72321009Y-58428095D02*
X72368628Y-58523333D01*
X72368628Y-58523333D02*
X72368628Y-58904285D01*
X75509523Y-53964819D02*
X74938095Y-53964819D01*
X75223809Y-53964819D02*
X75223809Y-52964819D01*
X75223809Y-52964819D02*
X75128571Y-53107676D01*
X75128571Y-53107676D02*
X75033333Y-53202914D01*
X75033333Y-53202914D02*
X74938095Y-53250533D01*
X76128571Y-52964819D02*
X76223809Y-52964819D01*
X76223809Y-52964819D02*
X76319047Y-53012438D01*
X76319047Y-53012438D02*
X76366666Y-53060057D01*
X76366666Y-53060057D02*
X76414285Y-53155295D01*
X76414285Y-53155295D02*
X76461904Y-53345771D01*
X76461904Y-53345771D02*
X76461904Y-53583866D01*
X76461904Y-53583866D02*
X76414285Y-53774342D01*
X76414285Y-53774342D02*
X76366666Y-53869580D01*
X76366666Y-53869580D02*
X76319047Y-53917200D01*
X76319047Y-53917200D02*
X76223809Y-53964819D01*
X76223809Y-53964819D02*
X76128571Y-53964819D01*
X76128571Y-53964819D02*
X76033333Y-53917200D01*
X76033333Y-53917200D02*
X75985714Y-53869580D01*
X75985714Y-53869580D02*
X75938095Y-53774342D01*
X75938095Y-53774342D02*
X75890476Y-53583866D01*
X75890476Y-53583866D02*
X75890476Y-53345771D01*
X75890476Y-53345771D02*
X75938095Y-53155295D01*
X75938095Y-53155295D02*
X75985714Y-53060057D01*
X75985714Y-53060057D02*
X76033333Y-53012438D01*
X76033333Y-53012438D02*
X76128571Y-52964819D01*
X76890476Y-53964819D02*
X76890476Y-52964819D01*
X77461904Y-53964819D02*
X77033333Y-53393390D01*
X77461904Y-52964819D02*
X76890476Y-53536247D01*
X62854819Y-56570476D02*
X62854819Y-57141904D01*
X62854819Y-56856190D02*
X61854819Y-56856190D01*
X61854819Y-56856190D02*
X61997676Y-56951428D01*
X61997676Y-56951428D02*
X62092914Y-57046666D01*
X62092914Y-57046666D02*
X62140533Y-57141904D01*
X61854819Y-55951428D02*
X61854819Y-55856190D01*
X61854819Y-55856190D02*
X61902438Y-55760952D01*
X61902438Y-55760952D02*
X61950057Y-55713333D01*
X61950057Y-55713333D02*
X62045295Y-55665714D01*
X62045295Y-55665714D02*
X62235771Y-55618095D01*
X62235771Y-55618095D02*
X62473866Y-55618095D01*
X62473866Y-55618095D02*
X62664342Y-55665714D01*
X62664342Y-55665714D02*
X62759580Y-55713333D01*
X62759580Y-55713333D02*
X62807200Y-55760952D01*
X62807200Y-55760952D02*
X62854819Y-55856190D01*
X62854819Y-55856190D02*
X62854819Y-55951428D01*
X62854819Y-55951428D02*
X62807200Y-56046666D01*
X62807200Y-56046666D02*
X62759580Y-56094285D01*
X62759580Y-56094285D02*
X62664342Y-56141904D01*
X62664342Y-56141904D02*
X62473866Y-56189523D01*
X62473866Y-56189523D02*
X62235771Y-56189523D01*
X62235771Y-56189523D02*
X62045295Y-56141904D01*
X62045295Y-56141904D02*
X61950057Y-56094285D01*
X61950057Y-56094285D02*
X61902438Y-56046666D01*
X61902438Y-56046666D02*
X61854819Y-55951428D01*
X62854819Y-55189523D02*
X61854819Y-55189523D01*
X62854819Y-54618095D02*
X62283390Y-55046666D01*
X61854819Y-54618095D02*
X62426247Y-55189523D01*
X70905714Y-48884819D02*
X70334286Y-48884819D01*
X70620000Y-48884819D02*
X70620000Y-47884819D01*
X70620000Y-47884819D02*
X70524762Y-48027676D01*
X70524762Y-48027676D02*
X70429524Y-48122914D01*
X70429524Y-48122914D02*
X70334286Y-48170533D01*
X71334286Y-48884819D02*
X71334286Y-47884819D01*
X71905714Y-48884819D02*
X71477143Y-48313390D01*
X71905714Y-47884819D02*
X71334286Y-48456247D01*
X86291009Y-53760476D02*
X86338628Y-53617619D01*
X86338628Y-53617619D02*
X86386247Y-53570000D01*
X86386247Y-53570000D02*
X86481485Y-53522381D01*
X86481485Y-53522381D02*
X86624342Y-53522381D01*
X86624342Y-53522381D02*
X86719580Y-53570000D01*
X86719580Y-53570000D02*
X86767200Y-53617619D01*
X86767200Y-53617619D02*
X86814819Y-53712857D01*
X86814819Y-53712857D02*
X86814819Y-54093809D01*
X86814819Y-54093809D02*
X85814819Y-54093809D01*
X85814819Y-54093809D02*
X85814819Y-53760476D01*
X85814819Y-53760476D02*
X85862438Y-53665238D01*
X85862438Y-53665238D02*
X85910057Y-53617619D01*
X85910057Y-53617619D02*
X86005295Y-53570000D01*
X86005295Y-53570000D02*
X86100533Y-53570000D01*
X86100533Y-53570000D02*
X86195771Y-53617619D01*
X86195771Y-53617619D02*
X86243390Y-53665238D01*
X86243390Y-53665238D02*
X86291009Y-53760476D01*
X86291009Y-53760476D02*
X86291009Y-54093809D01*
X86148152Y-52665238D02*
X86814819Y-52665238D01*
X86148152Y-53093809D02*
X86671961Y-53093809D01*
X86671961Y-53093809D02*
X86767200Y-53046190D01*
X86767200Y-53046190D02*
X86814819Y-52950952D01*
X86814819Y-52950952D02*
X86814819Y-52808095D01*
X86814819Y-52808095D02*
X86767200Y-52712857D01*
X86767200Y-52712857D02*
X86719580Y-52665238D01*
X86148152Y-52331904D02*
X86148152Y-51950952D01*
X86814819Y-52189047D02*
X85957676Y-52189047D01*
X85957676Y-52189047D02*
X85862438Y-52141428D01*
X85862438Y-52141428D02*
X85814819Y-52046190D01*
X85814819Y-52046190D02*
X85814819Y-51950952D01*
X86148152Y-51760475D02*
X86148152Y-51379523D01*
X86814819Y-51617618D02*
X85957676Y-51617618D01*
X85957676Y-51617618D02*
X85862438Y-51569999D01*
X85862438Y-51569999D02*
X85814819Y-51474761D01*
X85814819Y-51474761D02*
X85814819Y-51379523D01*
X86767200Y-50665237D02*
X86814819Y-50760475D01*
X86814819Y-50760475D02*
X86814819Y-50950951D01*
X86814819Y-50950951D02*
X86767200Y-51046189D01*
X86767200Y-51046189D02*
X86671961Y-51093808D01*
X86671961Y-51093808D02*
X86291009Y-51093808D01*
X86291009Y-51093808D02*
X86195771Y-51046189D01*
X86195771Y-51046189D02*
X86148152Y-50950951D01*
X86148152Y-50950951D02*
X86148152Y-50760475D01*
X86148152Y-50760475D02*
X86195771Y-50665237D01*
X86195771Y-50665237D02*
X86291009Y-50617618D01*
X86291009Y-50617618D02*
X86386247Y-50617618D01*
X86386247Y-50617618D02*
X86481485Y-51093808D01*
X86814819Y-50189046D02*
X86148152Y-50189046D01*
X86338628Y-50189046D02*
X86243390Y-50141427D01*
X86243390Y-50141427D02*
X86195771Y-50093808D01*
X86195771Y-50093808D02*
X86148152Y-49998570D01*
X86148152Y-49998570D02*
X86148152Y-49903332D01*
D11*
%TO.C,1K*%
X82780000Y-63500000D02*
X82010000Y-63500000D01*
X82010000Y-64870000D02*
X82010000Y-62130000D01*
X82010000Y-62130000D02*
X75470000Y-62130000D01*
X75470000Y-64870000D02*
X82010000Y-64870000D01*
X75470000Y-62130000D02*
X75470000Y-64870000D01*
X74700000Y-63500000D02*
X75470000Y-63500000D01*
%TO.C,5V*%
X76170000Y-42080000D02*
X76170000Y-43780000D01*
X76170000Y-43780000D02*
X76170000Y-44280000D01*
X76170000Y-44280000D02*
X78770000Y-44280000D01*
X78770000Y-42080000D02*
X76170000Y-42080000D01*
X78770000Y-44280000D02*
X78770000Y-42080000D01*
%TO.C,IN*%
X45690000Y-54780000D02*
X45690000Y-56480000D01*
X45690000Y-56480000D02*
X45690000Y-56980000D01*
X45690000Y-56980000D02*
X48290000Y-56980000D01*
X48290000Y-54780000D02*
X45690000Y-54780000D01*
X48290000Y-56980000D02*
X48290000Y-54780000D01*
%TO.C,NOR*%
X71550000Y-62900000D02*
X71550000Y-59050000D01*
X67250001Y-60960000D02*
G75*
G03*
X68751193Y-63316399I2599999J0D01*
G01*
X70972045Y-63282631D02*
G75*
G03*
X71550000Y-62900000I-1122045J2322631D01*
G01*
X68751193Y-58603600D02*
G75*
G03*
X67250000Y-60960000I1098807J-2356400D01*
G01*
X71549999Y-59050001D02*
G75*
G03*
X70962264Y-58657618I-1699999J-1909999D01*
G01*
%TO.C,10K*%
X70890000Y-55880000D02*
X71660000Y-55880000D01*
X71660000Y-54510000D02*
X71660000Y-57250000D01*
X71660000Y-57250000D02*
X78200000Y-57250000D01*
X78200000Y-54510000D02*
X71660000Y-54510000D01*
X78200000Y-57250000D02*
X78200000Y-54510000D01*
X78970000Y-55880000D02*
X78200000Y-55880000D01*
X64770000Y-59920000D02*
X64770000Y-59150000D01*
X63400000Y-59150000D02*
X66140000Y-59150000D01*
X66140000Y-59150000D02*
X66140000Y-52610000D01*
X63400000Y-52610000D02*
X63400000Y-59150000D01*
X66140000Y-52610000D02*
X63400000Y-52610000D01*
X64770000Y-51840000D02*
X64770000Y-52610000D01*
%TO.C,REF\u002A\u002A*%
X88934000Y-58710000D02*
X89090000Y-58710000D01*
X91250000Y-58710000D02*
X91406000Y-58710000D01*
X89091392Y-55477666D02*
G75*
G03*
X88934485Y-58709999I1078608J-1672334D01*
G01*
X89090164Y-56108871D02*
G75*
G03*
X89090001Y-58190960I1079836J-1041129D01*
G01*
X91249999Y-58190960D02*
G75*
G03*
X91249836Y-56108871I-1079999J1040960D01*
G01*
X91405515Y-58709999D02*
G75*
G03*
X91248608Y-55477666I-1235515J1559999D01*
G01*
%TO.C,1K*%
X70890000Y-50800000D02*
X71660000Y-50800000D01*
X71660000Y-49430000D02*
X71660000Y-52170000D01*
X71660000Y-52170000D02*
X78200000Y-52170000D01*
X78200000Y-49430000D02*
X71660000Y-49430000D01*
X78200000Y-52170000D02*
X78200000Y-49430000D01*
X78970000Y-50800000D02*
X78200000Y-50800000D01*
%TO.C,IN*%
X45690000Y-52240000D02*
X45690000Y-53940000D01*
X45690000Y-53940000D02*
X45690000Y-54440000D01*
X45690000Y-54440000D02*
X48290000Y-54440000D01*
X48290000Y-52240000D02*
X45690000Y-52240000D01*
X48290000Y-54440000D02*
X48290000Y-52240000D01*
%TO.C,*%
X59820000Y-50800000D02*
X58600000Y-50800000D01*
X58600000Y-52270000D02*
X58600000Y-49330000D01*
X58600000Y-49330000D02*
X53160000Y-49330000D01*
X57820000Y-52270000D02*
X57820000Y-49330000D01*
X57700000Y-52270000D02*
X57700000Y-49330000D01*
X57580000Y-52270000D02*
X57580000Y-49330000D01*
X53160000Y-52270000D02*
X58600000Y-52270000D01*
X53160000Y-49330000D02*
X53160000Y-52270000D01*
X51940000Y-50800000D02*
X53160000Y-50800000D01*
X59820000Y-53340000D02*
X58600000Y-53340000D01*
X58600000Y-54810000D02*
X58600000Y-51870000D01*
X58600000Y-51870000D02*
X53160000Y-51870000D01*
X57820000Y-54810000D02*
X57820000Y-51870000D01*
X57700000Y-54810000D02*
X57700000Y-51870000D01*
X57580000Y-54810000D02*
X57580000Y-51870000D01*
X53160000Y-54810000D02*
X58600000Y-54810000D01*
X53160000Y-51870000D02*
X53160000Y-54810000D01*
X51940000Y-53340000D02*
X53160000Y-53340000D01*
X59820000Y-58420000D02*
X58600000Y-58420000D01*
X58600000Y-59890000D02*
X58600000Y-56950000D01*
X58600000Y-56950000D02*
X53160000Y-56950000D01*
X57820000Y-59890000D02*
X57820000Y-56950000D01*
X57700000Y-59890000D02*
X57700000Y-56950000D01*
X57580000Y-59890000D02*
X57580000Y-56950000D01*
X53160000Y-59890000D02*
X58600000Y-59890000D01*
X53160000Y-56950000D02*
X53160000Y-59890000D01*
X51940000Y-58420000D02*
X53160000Y-58420000D01*
%TO.C,Buffer*%
X85520000Y-55290000D02*
X85520000Y-51440000D01*
X81220001Y-53350000D02*
G75*
G03*
X82721193Y-55706399I2599999J0D01*
G01*
X84942045Y-55672631D02*
G75*
G03*
X85520000Y-55290000I-1122045J2322631D01*
G01*
X82721193Y-50993600D02*
G75*
G03*
X81220000Y-53350000I1098807J-2356400D01*
G01*
X85519999Y-51440001D02*
G75*
G03*
X84932264Y-51047618I-1699999J-1909999D01*
G01*
%TO.C,GND*%
X72360000Y-42080000D02*
X72360000Y-43780000D01*
X72360000Y-43780000D02*
X72360000Y-44280000D01*
X72360000Y-44280000D02*
X74960000Y-44280000D01*
X74960000Y-42080000D02*
X72360000Y-42080000D01*
X74960000Y-44280000D02*
X74960000Y-42080000D01*
%TO.C,*%
X59820000Y-55880000D02*
X58600000Y-55880000D01*
X58600000Y-57350000D02*
X58600000Y-54410000D01*
X58600000Y-54410000D02*
X53160000Y-54410000D01*
X57820000Y-57350000D02*
X57820000Y-54410000D01*
X57700000Y-57350000D02*
X57700000Y-54410000D01*
X57580000Y-57350000D02*
X57580000Y-54410000D01*
X53160000Y-57350000D02*
X58600000Y-57350000D01*
X53160000Y-54410000D02*
X53160000Y-57350000D01*
X51940000Y-55880000D02*
X53160000Y-55880000D01*
%TO.C,IN*%
X45690000Y-57320000D02*
X45690000Y-59020000D01*
X45690000Y-59020000D02*
X45690000Y-59520000D01*
X45690000Y-59520000D02*
X48290000Y-59520000D01*
X48290000Y-57320000D02*
X45690000Y-57320000D01*
X48290000Y-59520000D02*
X48290000Y-57320000D01*
X45690000Y-49700000D02*
X45690000Y-51400000D01*
X45690000Y-51400000D02*
X45690000Y-51900000D01*
X45690000Y-51900000D02*
X48290000Y-51900000D01*
X48290000Y-49700000D02*
X45690000Y-49700000D01*
X48290000Y-51900000D02*
X48290000Y-49700000D01*
%TD*%
M02*
