M48
; DRILL file {KiCad 7.0.8} date Mon 09 Oct 2023 04:49:37 PM PDT
; FORMAT={-:-/ absolute / inch / decimal}
; #@! TF.CreationDate,2023-10-09T16:49:37-07:00
; #@! TF.GenerationSoftware,Kicad,Pcbnew,7.0.8
; #@! TF.FileFunction,Plated,1,2,PTH
FMAT,2
INCH
; #@! TA.AperFunction,Plated,PTH,ComponentDrill
T1C0.0315
; #@! TA.AperFunction,Plated,PTH,ComponentDrill
T2C0.0354
%
G90
G05
T1
X2.55Y-2.0
X2.55Y-2.4
X2.75Y-2.0
X2.75Y-2.2
X2.75Y-2.3
X2.75Y-2.4
X2.75Y-2.5
X2.9Y-2.5
X3.15Y-2.0
X3.15Y-2.2
X3.3Y-2.0004
X3.3Y-2.1004
X3.3Y-2.2004
X3.3Y-2.5
T2
X1.85Y-2.0
X1.85Y-2.1
X1.85Y-2.2
X1.85Y-2.3
X2.0Y-2.0
X2.0Y-2.1
X2.0Y-2.2
X2.0Y-2.3
X2.4Y-2.0
X2.4Y-2.1
X2.4Y-2.2
X2.4Y-2.3
X2.9Y-1.7
X3.05Y-1.7
X3.55Y-2.2
X3.55Y-2.3
X3.75Y-2.2
X3.75Y-2.3
X3.85Y-2.2
X3.85Y-2.3
T0
M30
